if (_typeface_js && _typeface_js.loadFace) _typeface_js.loadFace({"glyphs":{"¦":{"x_min":122.078125,"x_max":305.875,"ha":428,"o":"m 122 1112 l 305 1112 l 305 -139 l 122 -139 l 122 1112 "},"Ő":{"x_min":65.109375,"x_max":1129.234375,"ha":1194,"o":"m 65 486 q 80 601 65 542 q 126 716 96 661 q 202 820 157 771 q 306 906 247 870 q 437 964 364 943 q 594 986 510 986 q 755 966 682 986 q 888 912 829 946 q 993 830 948 877 q 1068 727 1038 782 q 1113 610 1098 672 q 1129 486 1129 548 q 1113 365 1129 426 q 1068 247 1098 304 q 993 140 1038 190 q 888 52 948 90 q 755 -6 829 15 q 594 -27 682 -27 q 436 -6 508 -27 q 304 52 363 14 q 201 139 246 89 q 126 246 156 189 q 80 365 95 303 q 65 486 65 426 m 298 489 q 304 375 298 431 q 325 267 311 318 q 362 172 339 216 q 417 96 385 128 q 493 44 450 63 q 590 25 535 25 q 688 44 644 25 q 766 96 732 63 q 824 174 800 130 q 865 270 849 219 q 889 375 881 320 q 898 482 897 430 q 892 590 898 535 q 871 694 885 644 q 833 787 856 744 q 777 863 810 830 q 700 913 744 895 q 601 931 657 931 q 504 915 547 931 q 427 869 461 899 q 369 798 394 839 q 330 708 345 758 q 306 603 314 659 q 298 489 299 548 m 934 1256 l 727 1057 l 647 1057 l 782 1256 l 934 1256 m 747 1256 l 533 1057 l 460 1057 l 594 1256 l 747 1256 "},"Ž":{"x_min":40.015625,"x_max":931.875,"ha":973,"o":"m 54 0 l 40 37 l 40 38 l 41 38 l 712 933 l 341 933 q 266 927 305 933 q 193 905 227 921 q 134 861 159 889 q 99 787 109 832 l 76 791 q 75 812 76 794 q 71 857 75 830 q 61 914 68 883 q 40 972 53 945 l 916 972 l 930 933 l 252 38 l 630 38 q 706 44 667 38 q 778 66 744 50 q 837 110 812 82 q 872 184 862 139 l 895 180 q 896 159 895 177 q 900 114 897 141 q 911 57 904 88 q 931 0 918 27 l 54 0 m 307 1240 l 420 1240 l 519 1105 l 606 1240 l 663 1240 l 533 1041 l 441 1041 l 307 1240 "},"Á":{"x_min":-2.71875,"x_max":1180.78125,"ha":1104,"o":"m 1180 35 q 1068 2 1119 10 q 976 -6 1017 -6 q 920 -3 944 -6 q 879 6 896 0 q 845 19 859 12 q 793 63 815 36 q 753 122 771 90 q 720 186 735 153 q 693 248 706 219 l 676 284 q 548 239 607 265 q 442 189 489 214 q 365 144 396 164 q 320 113 333 123 q 264 64 295 86 q 194 27 233 42 q 108 4 155 12 q 4 -4 61 -4 l -2 25 q 110 67 63 35 q 193 144 158 98 q 252 247 227 189 q 295 368 276 304 q 324 445 306 404 q 367 524 342 486 q 426 596 393 562 q 501 653 459 630 q 478 697 489 674 q 457 743 467 720 q 428 803 442 770 q 395 864 414 836 q 349 911 375 892 q 284 930 323 930 q 231 924 257 930 q 181 909 205 918 l 172 937 q 291 970 231 956 q 412 984 352 984 q 468 981 440 984 q 522 967 496 977 q 565 941 544 959 q 605 896 586 922 q 641 842 624 871 q 672 784 657 813 q 698 728 687 754 q 719 683 710 702 q 838 426 779 555 q 965 173 897 298 q 991 129 977 151 q 1022 90 1005 107 q 1060 63 1039 73 q 1108 54 1081 53 q 1134 56 1117 54 q 1170 66 1150 58 l 1180 35 m 539 575 q 506 516 521 546 q 480 454 492 485 q 457 391 467 422 q 437 331 447 360 q 415 270 427 300 q 388 213 403 241 q 507 276 439 243 q 654 331 576 308 l 539 575 m 731 1240 l 517 1041 l 444 1041 l 578 1240 l 731 1240 "},"ĥ":{"x_min":33.234375,"x_max":934.59375,"ha":957,"o":"m 422 0 l 33 0 l 33 25 q 79 30 61 25 q 107 46 96 36 q 121 68 117 56 q 124 95 124 81 l 124 844 q 121 866 124 854 q 107 887 117 877 q 79 904 96 897 q 33 910 61 910 l 33 935 l 330 935 l 330 607 q 362 653 343 630 q 407 695 381 676 q 464 728 432 714 q 537 750 497 742 q 639 753 594 760 q 718 727 684 746 q 775 679 752 708 q 814 613 799 649 q 836 537 829 577 q 843 455 843 496 l 843 95 q 846 73 843 85 q 859 50 849 61 q 886 32 868 40 q 934 25 904 25 l 934 0 l 554 0 l 554 25 q 600 30 582 25 q 628 46 617 36 q 641 68 638 56 q 645 95 645 81 l 645 497 q 633 586 645 550 q 600 644 621 623 q 553 672 580 666 q 495 672 526 679 q 422 636 453 661 q 372 575 392 611 q 341 495 352 539 q 330 404 331 451 l 330 95 q 333 73 330 85 q 346 50 337 61 q 374 32 356 40 q 422 25 392 25 l 422 0 m 768 801 l 654 801 l 556 935 l 468 801 l 412 801 l 542 1000 l 634 1000 l 768 801 "},"Î":{"x_min":54.265625,"x_max":508.671875,"ha":562,"o":"m 508 0 l 54 0 l 54 25 q 114 32 90 25 q 150 53 137 40 q 168 83 164 66 q 173 119 173 100 l 173 858 q 168 887 173 872 q 150 916 163 903 q 113 938 137 929 q 54 947 90 947 l 54 972 l 508 972 l 508 947 q 447 939 471 947 q 411 918 424 931 q 393 888 398 905 q 388 852 388 871 l 388 119 q 393 89 388 105 q 409 59 397 73 q 446 34 422 44 q 508 25 470 25 l 508 0 m 459 1041 l 345 1041 l 247 1175 l 159 1041 l 103 1041 l 233 1240 l 325 1240 l 459 1041 "},"e":{"x_min":54.265625,"x_max":866.765625,"ha":907,"o":"m 269 423 q 267 395 267 408 q 267 366 267 381 q 276 241 267 302 q 306 132 284 180 q 367 55 328 85 q 469 25 406 26 q 540 37 509 25 q 596 73 572 50 q 636 126 619 96 q 665 193 653 157 l 825 139 q 767 75 800 104 q 689 24 733 46 q 591 -8 645 3 q 473 -21 537 -21 q 341 -5 400 -21 q 236 38 282 10 q 155 104 189 66 q 98 184 121 141 q 65 273 75 227 q 54 364 54 319 q 64 452 54 406 q 94 540 73 497 q 148 622 115 583 q 225 689 180 660 q 328 735 270 718 q 459 752 387 752 q 641 726 566 752 q 764 654 716 699 q 837 550 813 609 q 866 423 861 490 l 269 423 m 463 705 q 380 687 414 705 q 323 636 345 668 q 289 561 301 604 q 271 469 277 518 l 654 469 q 639 560 650 518 q 608 635 629 603 q 551 686 586 668 q 463 705 516 705 "},"»":{"x_min":90.203125,"x_max":771.140625,"ha":822,"o":"m 771 413 l 771 318 l 425 124 l 425 230 l 680 360 l 680 369 l 425 503 l 425 604 l 771 413 m 436 413 l 436 318 l 90 124 l 90 230 l 345 360 l 345 369 l 90 503 l 90 604 l 436 413 "},"ļ":{"x_min":33.234375,"x_max":413.71875,"ha":447,"o":"m 33 25 q 77 30 59 25 q 105 44 94 35 q 120 64 115 52 q 124 90 124 76 l 124 976 q 121 998 124 986 q 107 1020 117 1010 q 79 1036 96 1030 q 33 1043 61 1043 l 33 1069 l 322 1069 l 322 91 q 325 69 322 81 q 339 48 329 58 q 367 31 349 38 q 413 25 385 25 l 413 0 l 33 0 l 33 25 m 161 -318 q 179 -279 175 -299 q 179 -238 183 -259 q 164 -195 176 -217 q 137 -153 153 -174 l 222 -69 l 308 -153 q 259 -242 293 -194 q 176 -333 226 -290 l 161 -318 "},"Ĕ":{"x_min":66.46875,"x_max":961.046875,"ha":1023,"o":"m 930 755 q 879 831 910 798 q 808 887 847 864 q 726 922 769 910 q 640 934 682 934 q 552 917 593 934 q 475 872 510 901 q 410 804 439 843 q 359 718 381 764 q 322 622 337 672 q 302 522 308 572 l 880 522 q 858 462 866 493 q 847 403 851 430 q 843 341 843 371 l 820 337 q 798 409 811 381 q 760 454 786 438 q 691 477 734 470 q 579 483 648 483 l 298 483 l 298 454 q 311 346 298 399 q 347 245 324 293 q 406 158 371 198 q 483 88 440 118 q 577 42 526 59 q 685 26 628 26 q 775 36 736 26 q 844 61 815 46 q 892 93 872 75 q 925 128 912 111 q 944 157 937 144 q 954 173 950 169 l 943 78 q 897 36 927 56 q 827 0 868 16 q 735 -25 786 -15 q 625 -34 684 -34 q 411 -1 512 -34 q 234 92 310 31 q 112 240 158 153 q 66 433 67 326 q 104 631 68 543 q 201 784 141 718 q 343 892 262 849 q 515 956 423 935 q 626 971 563 968 q 751 975 688 975 q 866 973 812 975 q 956 972 920 972 q 946 915 949 940 q 943 869 943 891 q 948 812 943 838 q 961 756 952 786 l 930 755 m 779 1236 q 763 1167 776 1200 q 727 1108 749 1134 q 674 1067 704 1083 q 607 1052 643 1052 q 540 1068 570 1052 q 489 1109 510 1083 q 454 1168 467 1136 q 439 1236 441 1201 l 474 1236 q 502 1190 485 1210 q 543 1159 518 1173 q 607 1145 568 1145 q 676 1159 649 1145 q 718 1190 702 1173 q 744 1236 736 1210 l 779 1236 "},"ò":{"x_min":54.265625,"x_max":895.9375,"ha":952,"o":"m 54 364 q 65 452 54 406 q 98 540 75 497 q 154 622 120 583 q 235 689 189 660 q 341 735 282 718 q 473 752 400 752 q 610 737 549 752 q 717 694 670 721 q 798 629 764 666 q 853 548 832 592 q 885 458 875 505 q 895 364 895 411 q 885 273 895 319 q 853 185 875 227 q 797 104 831 142 q 717 39 764 67 q 609 -4 670 11 q 473 -21 548 -21 q 341 -5 400 -21 q 236 38 282 10 q 155 104 189 66 q 98 184 121 141 q 65 273 75 227 q 54 364 54 319 m 261 366 q 270 241 261 302 q 302 132 279 180 q 366 55 326 85 q 469 25 406 26 q 543 39 510 25 q 600 77 575 52 q 641 134 624 101 q 669 204 658 166 q 685 281 680 241 q 691 360 690 321 q 687 442 691 400 q 674 521 683 483 q 648 593 664 560 q 609 652 632 627 q 553 691 585 676 q 478 705 520 705 q 374 677 415 705 q 307 602 333 649 q 272 494 282 555 q 261 366 261 432 m 367 1000 l 502 801 l 428 801 l 215 1000 l 367 1000 "},"ţ":{"x_min":34.59375,"x_max":849.8125,"ha":876,"o":"m 34 686 q 58 760 53 723 q 63 825 63 797 q 63 838 63 832 q 63 848 63 844 q 62 857 62 853 l 87 861 q 104 809 89 830 q 140 772 118 787 q 187 749 161 758 q 238 736 212 740 q 284 730 263 731 q 319 729 305 729 l 849 729 q 826 654 831 691 q 820 590 820 617 q 820 576 820 582 q 821 567 820 571 q 822 558 821 562 l 797 554 q 780 606 794 584 q 744 642 765 628 q 697 666 722 657 q 646 679 671 674 q 600 685 621 683 q 565 686 578 686 l 552 686 q 437 654 488 682 q 352 580 387 626 q 298 476 317 535 q 279 352 280 417 q 290 228 279 288 q 324 124 301 169 q 387 51 348 78 q 480 25 425 25 q 550 37 520 25 q 600 73 579 50 q 636 126 621 96 q 662 193 651 157 l 822 139 q 766 75 797 104 q 693 24 734 46 q 600 -8 652 3 q 484 -21 549 -21 q 359 -6 416 -21 q 258 35 303 8 q 179 97 212 61 q 123 174 145 132 q 90 260 101 215 q 79 349 79 305 q 96 458 79 406 q 145 552 113 509 q 225 629 177 595 q 333 686 272 663 l 34 686 m 377 -318 q 395 -279 391 -299 q 395 -238 399 -259 q 380 -195 392 -217 q 353 -153 369 -174 l 438 -69 l 524 -153 q 475 -242 509 -194 q 392 -333 442 -290 l 377 -318 "},"^":{"x_min":0,"x_max":529.015625,"ha":529,"o":"m 529 678 l 359 678 l 213 877 l 84 678 l 0 678 l 194 972 l 328 972 l 529 678 "},"«":{"x_min":51.546875,"x_max":731.796875,"ha":822,"o":"m 397 604 l 397 503 l 141 369 l 141 360 l 397 230 l 397 124 l 51 318 l 51 413 l 397 604 m 731 604 l 731 503 l 476 369 l 476 360 l 731 230 l 731 124 l 385 318 l 385 413 l 731 604 "},"í":{"x_min":40.015625,"x_max":497.5625,"ha":461,"o":"m 421 0 l 40 0 l 40 25 q 86 30 68 25 q 114 46 104 36 q 128 68 124 56 q 132 95 132 81 l 132 632 q 128 654 132 642 q 115 677 125 667 q 87 695 105 688 q 40 702 69 702 l 40 729 l 421 729 l 421 702 q 376 697 394 702 q 347 682 358 691 q 333 662 337 674 q 328 637 328 650 l 328 95 q 332 73 328 85 q 345 50 335 61 q 373 32 355 40 q 421 25 391 25 l 421 0 m 497 1000 l 283 801 l 210 801 l 344 1000 l 497 1000 "},"ˆ":{"x_min":0,"x_max":356.75,"ha":357,"o":"m 356 801 l 242 801 l 144 935 l 56 801 l 0 801 l 130 1000 l 222 1000 l 356 801 "},"ū":{"x_min":19.671875,"x_max":962.390625,"ha":1003,"o":"m 400 704 q 354 698 371 704 q 326 682 336 692 q 312 660 316 672 q 308 633 308 647 l 308 231 q 324 142 308 179 q 366 84 341 105 q 424 56 392 63 q 486 56 455 49 q 562 93 529 67 q 618 156 596 119 q 653 239 641 193 q 665 335 665 285 l 665 633 q 662 655 665 643 q 649 678 659 668 q 621 696 639 689 q 573 704 603 704 l 573 729 l 962 729 l 962 704 q 916 698 934 704 q 888 682 898 692 q 874 660 878 672 q 870 633 870 647 l 870 95 q 874 73 870 85 q 887 50 877 61 q 914 32 896 40 q 962 25 932 25 l 962 0 l 665 0 l 665 137 q 631 86 651 111 q 584 40 611 61 q 522 3 557 18 q 444 -21 487 -12 q 339 -24 386 -31 q 256 1 293 -17 q 191 49 219 20 q 146 115 164 79 q 120 191 128 151 q 111 273 111 232 l 111 637 q 107 659 111 647 q 93 680 103 670 q 65 697 83 690 q 19 704 47 704 l 19 729 l 400 729 l 400 704 m 686 800 l 317 800 l 317 864 l 686 864 l 686 800 "},"Ẅ":{"x_min":-42.734375,"x_max":1530.75,"ha":1542,"o":"m -42 972 l 411 972 l 411 947 q 368 943 385 947 q 341 933 351 940 q 327 916 331 926 q 323 895 323 907 l 323 890 q 373 700 346 792 q 429 516 400 609 q 491 321 459 422 q 558 103 523 220 q 625 299 596 208 q 674 470 653 390 q 710 619 695 550 q 735 751 725 689 l 711 852 q 695 883 706 866 q 665 914 684 900 q 618 937 646 928 q 551 947 590 947 l 551 972 l 1005 972 l 1005 947 q 962 943 979 947 q 935 933 945 940 q 922 916 925 926 q 918 895 918 907 l 918 887 q 962 698 940 790 q 1009 514 984 607 q 1063 320 1034 421 q 1125 103 1091 219 q 1209 344 1173 234 q 1271 548 1245 455 q 1316 721 1298 642 q 1347 869 1334 800 l 1347 872 q 1341 902 1347 888 q 1321 926 1335 916 q 1285 941 1307 935 q 1230 947 1263 947 l 1230 972 l 1530 972 q 1452 742 1495 860 q 1360 505 1408 624 q 1263 269 1313 387 q 1166 41 1214 152 l 940 0 q 858 276 895 145 q 788 533 821 407 q 697 283 744 406 q 600 41 650 160 l 373 0 q 302 227 337 118 q 236 439 268 335 q 174 644 204 543 q 118 852 144 746 l 116 852 q 101 883 111 866 q 70 914 90 900 q 23 937 51 928 q -42 947 -4 947 l -42 972 m 757 1119 q 752 1089 757 1103 q 736 1064 746 1074 q 712 1047 726 1053 q 682 1041 698 1041 q 651 1047 665 1041 q 626 1064 637 1053 q 610 1089 616 1074 q 604 1119 604 1103 q 610 1149 604 1135 q 626 1174 616 1163 q 651 1191 637 1184 q 682 1197 665 1197 q 712 1191 698 1197 q 736 1174 726 1184 q 752 1149 746 1163 q 757 1119 757 1135 m 991 1119 q 985 1089 991 1103 q 969 1064 979 1074 q 945 1047 959 1053 q 915 1041 931 1041 q 884 1047 899 1041 q 860 1064 870 1053 q 843 1089 849 1074 q 837 1119 837 1103 q 843 1149 837 1135 q 860 1174 849 1163 q 884 1191 870 1184 q 915 1197 899 1197 q 945 1191 931 1197 q 969 1174 959 1184 q 985 1149 979 1163 q 991 1119 991 1135 "},"ȷ":{"x_min":-283.5,"x_max":416.421875,"ha":449,"o":"m 35 729 l 416 729 l 416 702 q 372 697 389 702 q 344 683 354 692 q 329 663 333 674 q 324 638 324 651 l 326 189 q 289 -9 326 77 q 189 -155 253 -95 q 38 -245 126 -215 q -151 -276 -48 -276 q -193 -276 -176 -276 q -225 -275 -211 -275 q -252 -274 -239 -274 q -280 -273 -265 -273 q -271 -223 -274 -249 q -269 -179 -269 -196 q -273 -134 -269 -155 q -283 -91 -277 -113 l -261 -90 q -181 -189 -230 -153 q -70 -225 -132 -225 q 15 -198 -21 -225 q 76 -126 52 -170 q 112 -24 101 -81 q 124 91 124 32 l 126 637 q 121 659 124 647 q 107 680 117 670 q 80 696 97 690 q 35 702 63 702 l 35 729 "},"ņ":{"x_min":40.015625,"x_max":984.78125,"ha":1025,"o":"m 421 0 l 40 0 l 40 25 q 86 30 68 25 q 114 46 104 36 q 128 68 124 56 q 132 95 132 81 l 132 636 q 128 658 132 646 q 114 679 124 670 q 86 696 104 689 q 40 702 68 702 l 40 729 l 421 729 l 421 702 q 376 697 394 702 q 347 682 358 691 q 333 662 337 674 q 328 637 328 650 l 328 465 q 385 365 352 418 q 463 259 419 311 q 566 157 508 206 q 695 70 623 108 l 695 632 q 692 654 695 642 q 679 677 689 667 q 652 695 670 688 q 604 702 634 702 l 604 729 l 984 729 l 984 702 q 940 697 957 702 q 911 682 922 691 q 897 662 901 674 q 893 637 893 650 l 893 91 q 896 69 893 81 q 910 48 900 58 q 938 31 921 38 q 984 25 956 25 l 984 0 l 695 0 q 595 41 646 12 q 496 107 543 70 q 405 185 448 144 q 328 261 362 225 l 328 95 q 332 73 328 85 q 345 50 335 61 q 373 32 355 40 q 421 25 391 25 l 421 0 m 450 -318 q 468 -279 464 -299 q 468 -238 472 -259 q 453 -195 465 -217 q 426 -153 442 -174 l 511 -69 l 597 -153 q 548 -242 582 -194 q 465 -333 515 -290 l 450 -318 "},"µ":{"x_min":59.6875,"x_max":1003.09375,"ha":1055,"o":"m 613 729 l 1003 729 l 1003 704 q 956 698 974 704 q 928 682 938 692 q 914 660 918 672 q 910 633 910 647 l 910 91 q 914 69 910 81 q 928 48 918 58 q 956 31 938 38 q 1003 25 974 25 l 1003 0 l 705 0 l 705 137 q 671 86 691 111 q 624 40 651 61 q 563 3 598 18 q 484 -21 528 -12 q 412 -26 446 -27 q 348 -18 377 -25 l 348 -275 l 151 -275 l 151 637 q 147 659 151 647 q 133 680 143 670 q 105 697 123 690 q 59 704 88 704 l 59 729 l 440 729 l 440 704 q 394 698 412 704 q 366 682 376 692 q 352 660 356 672 q 348 633 348 647 l 348 231 q 364 142 348 179 q 406 84 381 105 q 464 56 432 63 q 526 56 495 49 q 601 92 568 67 q 656 152 634 117 q 691 232 679 188 q 705 324 704 276 l 705 637 q 701 659 705 647 q 687 680 697 670 q 659 697 677 690 q 613 704 642 704 l 613 729 "},"ỳ":{"x_min":21.03125,"x_max":922.390625,"ha":956,"o":"m 533 729 l 922 729 l 922 704 q 876 698 893 704 q 848 682 858 692 q 834 660 838 672 q 830 633 830 647 l 829 108 q 815 0 829 47 q 775 -86 800 -48 q 716 -153 750 -124 q 640 -202 681 -181 q 554 -238 600 -223 q 462 -262 509 -252 q 424 -268 446 -265 q 378 -272 402 -271 q 329 -275 354 -274 q 282 -276 304 -276 q 193 -275 231 -276 q 124 -273 156 -273 q 133 -223 131 -249 q 136 -179 136 -196 q 132 -134 136 -155 q 122 -91 128 -113 l 144 -90 q 183 -147 159 -122 q 237 -189 208 -172 q 299 -216 267 -206 q 362 -225 332 -225 q 471 -206 423 -225 q 554 -153 520 -187 q 607 -71 588 -120 q 625 35 625 -23 l 625 122 q 592 75 611 98 q 548 33 573 52 q 490 0 522 14 q 417 -21 458 -13 q 316 -24 360 -31 q 237 1 271 -17 q 179 49 203 20 q 141 115 155 79 q 119 191 126 151 q 112 273 112 232 l 112 637 q 108 659 112 647 q 94 680 105 670 q 66 697 84 690 q 21 704 48 704 l 21 729 l 401 729 l 401 704 q 356 698 374 704 q 328 684 339 693 q 314 663 318 675 q 309 638 309 651 l 309 231 q 322 142 309 179 q 354 84 334 105 q 402 56 375 63 q 459 56 429 49 q 534 93 503 67 q 585 156 565 119 q 615 239 606 193 q 625 335 625 285 l 625 633 q 621 655 625 643 q 608 678 618 668 q 580 696 598 689 q 533 704 562 704 l 533 729 m 362 1000 l 497 801 l 423 801 l 210 1000 l 362 1000 "},"č":{"x_min":58.328125,"x_max":769.78125,"ha":821,"o":"m 769 547 l 747 545 q 707 602 731 577 q 653 645 682 628 q 591 671 623 662 q 529 680 559 680 q 419 650 468 680 q 336 571 370 619 q 282 462 301 522 q 263 343 263 402 q 284 223 263 280 q 344 122 305 166 q 438 52 383 78 q 563 26 494 26 q 658 42 620 26 q 718 78 695 58 q 751 115 741 98 q 765 137 762 133 l 755 58 q 719 25 743 40 q 664 -2 696 9 q 594 -20 633 -13 q 511 -26 555 -26 q 327 -5 410 -26 q 184 60 244 16 q 91 169 124 103 q 58 324 58 236 q 80 465 60 404 q 137 572 101 526 q 222 648 172 617 q 333 697 272 678 q 463 724 393 716 q 609 731 533 731 q 697 730 659 731 q 766 729 735 729 q 757 678 760 705 q 755 634 755 652 q 759 590 755 611 q 769 547 763 569 m 319 1000 l 432 1000 l 531 865 l 618 1000 l 675 1000 l 545 801 l 453 801 l 319 1000 "},"’":{"x_min":62.390625,"x_max":276.71875,"ha":319,"o":"m 94 662 q 115 710 111 685 q 115 761 120 735 q 97 814 111 788 q 62 866 83 841 l 169 973 l 276 866 q 252 813 267 841 q 216 756 237 785 q 169 698 196 727 q 111 642 143 669 l 94 662 "},"-":{"x_min":108.515625,"x_max":734.515625,"ha":843,"o":"m 734 514 l 734 422 l 108 422 l 108 514 l 734 514 "},"Q":{"x_min":67.828125,"x_max":1118.390625,"ha":1162,"o":"m 1118 947 q 1058 938 1081 947 q 1021 916 1034 929 q 1003 887 1008 903 q 999 858 999 872 l 999 -153 q 987 -189 999 -170 q 958 -230 976 -208 q 916 -277 940 -252 q 869 -331 893 -303 q 823 -391 845 -360 q 783 -458 800 -423 l 783 -10 q 716 -24 750 -20 q 648 -27 682 -27 q 403 15 511 -27 q 221 134 295 59 q 107 306 146 208 q 67 514 67 404 q 89 653 67 592 q 147 760 110 714 q 235 841 185 807 q 341 898 284 875 q 457 936 397 922 q 576 959 518 951 q 688 969 634 967 q 783 972 741 972 l 1118 972 l 1118 947 m 615 18 q 700 25 655 18 q 783 52 745 31 l 783 922 q 682 909 737 918 q 574 878 628 899 q 468 824 519 857 q 377 741 417 791 q 314 622 337 691 q 290 462 290 554 q 296 366 290 417 q 317 267 303 316 q 356 172 332 217 q 417 93 381 127 q 502 38 453 59 q 615 18 551 18 "},"M":{"x_min":69.171875,"x_max":1708.4375,"ha":1775,"o":"m 768 516 q 764 623 768 570 q 749 725 759 676 q 721 815 738 773 q 680 888 705 857 q 623 936 656 918 q 548 954 590 954 q 440 919 488 954 q 358 825 392 884 q 306 690 324 767 q 288 531 288 614 q 308 365 288 440 q 359 233 328 291 q 425 131 389 174 q 493 59 461 88 q 547 16 524 31 q 573 0 570 1 l 314 0 q 278 27 301 6 q 228 81 255 48 q 172 159 200 114 q 121 256 144 203 q 83 368 98 308 q 69 493 69 428 q 76 585 69 532 q 102 694 83 638 q 154 804 121 750 q 238 901 187 858 q 360 970 288 944 q 527 996 431 996 q 643 985 591 996 q 737 952 695 973 q 811 904 779 931 q 869 844 844 876 q 929 904 894 876 q 1008 952 963 931 q 1109 985 1053 973 q 1236 996 1166 996 q 1401 975 1330 996 q 1525 919 1473 954 q 1613 837 1578 883 q 1669 740 1648 790 q 1699 637 1690 689 q 1708 540 1708 585 q 1682 384 1708 455 q 1616 258 1656 314 q 1524 159 1575 202 q 1424 84 1474 115 q 1332 32 1375 52 q 1262 0 1289 11 l 1203 0 q 1228 16 1206 1 q 1283 61 1251 31 q 1351 134 1315 90 q 1417 238 1386 178 q 1468 373 1448 297 q 1488 541 1488 448 q 1466 714 1488 637 q 1406 844 1443 790 q 1319 925 1368 897 q 1215 954 1269 954 q 1138 936 1171 954 q 1078 888 1104 918 q 1034 815 1052 857 q 1005 725 1016 773 q 988 623 993 676 q 983 516 983 570 l 983 0 l 768 0 l 768 516 "},"̦":{"x_min":47.46875,"x_max":218.390625,"ha":267,"o":"m 71 -318 q 89 -279 85 -299 q 89 -238 93 -259 q 74 -195 86 -217 q 47 -153 63 -174 l 132 -69 l 218 -153 q 169 -242 203 -194 q 86 -333 136 -290 l 71 -318 "},"œ":{"x_min":54.265625,"x_max":1504.296875,"ha":1544,"o":"m 906 423 q 905 395 905 408 q 905 366 905 381 q 913 241 905 302 q 943 132 921 180 q 1005 55 965 85 q 1106 25 1044 26 q 1178 37 1146 25 q 1233 73 1209 50 q 1274 126 1257 96 q 1302 193 1291 157 l 1462 139 q 1404 75 1438 104 q 1326 24 1370 46 q 1229 -8 1283 3 q 1110 -21 1175 -21 q 1010 -12 1057 -21 q 925 12 964 -3 q 853 51 885 29 q 794 101 820 74 q 736 51 768 74 q 664 12 704 29 q 576 -12 624 -3 q 473 -21 529 -21 q 341 -5 400 -21 q 236 38 282 10 q 155 104 189 66 q 98 184 121 141 q 65 273 75 227 q 54 364 54 319 q 65 452 54 406 q 98 540 75 497 q 154 622 120 583 q 235 689 189 660 q 341 735 282 718 q 473 752 400 752 q 576 744 529 752 q 664 719 624 735 q 736 681 704 703 q 794 632 768 659 q 849 680 818 658 q 917 718 880 702 q 1000 744 955 735 q 1097 752 1045 752 q 1279 726 1203 752 q 1402 654 1354 699 q 1474 550 1450 609 q 1504 423 1498 490 l 906 423 m 261 366 q 270 241 261 302 q 302 132 279 180 q 366 55 326 85 q 469 25 406 26 q 543 39 510 25 q 600 77 575 52 q 641 134 624 101 q 669 204 658 166 q 685 281 680 241 q 691 360 690 321 l 691 364 q 687 444 691 404 q 673 523 682 485 q 648 594 663 561 q 608 652 632 628 q 552 691 584 676 q 478 705 520 705 q 374 677 415 705 q 307 602 333 649 q 272 494 282 555 q 261 366 261 432 m 1101 705 q 1018 687 1051 705 q 961 636 984 668 q 927 561 939 604 q 909 469 914 518 l 1292 469 q 1277 560 1287 518 q 1245 635 1266 603 q 1189 686 1224 668 q 1101 705 1154 705 "},"ě":{"x_min":54.265625,"x_max":866.765625,"ha":907,"o":"m 269 423 q 267 395 267 408 q 267 366 267 381 q 276 241 267 302 q 306 132 284 180 q 367 55 328 85 q 469 25 406 26 q 540 37 509 25 q 596 73 572 50 q 636 126 619 96 q 665 193 653 157 l 825 139 q 767 75 800 104 q 689 24 733 46 q 591 -8 645 3 q 473 -21 537 -21 q 341 -5 400 -21 q 236 38 282 10 q 155 104 189 66 q 98 184 121 141 q 65 273 75 227 q 54 364 54 319 q 64 452 54 406 q 94 540 73 497 q 148 622 115 583 q 225 689 180 660 q 328 735 270 718 q 459 752 387 752 q 641 726 566 752 q 764 654 716 699 q 837 550 813 609 q 866 423 861 490 l 269 423 m 463 705 q 380 687 414 705 q 323 636 345 668 q 289 561 301 604 q 271 469 277 518 l 654 469 q 639 560 650 518 q 608 635 629 603 q 551 686 586 668 q 463 705 516 705 m 275 1000 l 388 1000 l 487 865 l 574 1000 l 631 1000 l 501 801 l 409 801 l 275 1000 "},"ũ":{"x_min":19.671875,"x_max":962.390625,"ha":1003,"o":"m 400 704 q 354 698 371 704 q 326 682 336 692 q 312 660 316 672 q 308 633 308 647 l 308 231 q 324 142 308 179 q 366 84 341 105 q 424 56 392 63 q 486 56 455 49 q 562 93 529 67 q 618 156 596 119 q 653 239 641 193 q 665 335 665 285 l 665 633 q 662 655 665 643 q 649 678 659 668 q 621 696 639 689 q 573 704 603 704 l 573 729 l 962 729 l 962 704 q 916 698 934 704 q 888 682 898 692 q 874 660 878 672 q 870 633 870 647 l 870 95 q 874 73 870 85 q 887 50 877 61 q 914 32 896 40 q 962 25 932 25 l 962 0 l 665 0 l 665 137 q 631 86 651 111 q 584 40 611 61 q 522 3 557 18 q 444 -21 487 -12 q 339 -24 386 -31 q 256 1 293 -17 q 191 49 219 20 q 146 115 164 79 q 120 191 128 151 q 111 273 111 232 l 111 637 q 107 659 111 647 q 93 680 103 670 q 65 697 83 690 q 19 704 47 704 l 19 729 l 400 729 l 400 704 m 730 986 q 717 919 727 952 q 688 860 706 886 q 644 817 670 834 q 584 801 617 801 q 515 816 543 801 q 464 848 487 830 q 421 879 441 865 q 376 894 400 894 q 339 883 352 894 q 318 857 325 872 q 309 827 311 843 q 307 801 307 811 l 272 801 q 281 869 273 836 q 306 928 289 902 q 351 970 323 954 q 420 986 379 986 q 484 971 457 986 q 534 940 511 957 q 577 908 556 923 q 619 894 597 894 q 654 905 640 894 q 676 930 668 915 q 687 960 684 945 q 691 986 690 975 l 730 986 "},"ŭ":{"x_min":19.671875,"x_max":962.390625,"ha":1003,"o":"m 400 704 q 354 698 371 704 q 326 682 336 692 q 312 660 316 672 q 308 633 308 647 l 308 231 q 324 142 308 179 q 366 84 341 105 q 424 56 392 63 q 486 56 455 49 q 562 93 529 67 q 618 156 596 119 q 653 239 641 193 q 665 335 665 285 l 665 633 q 662 655 665 643 q 649 678 659 668 q 621 696 639 689 q 573 704 603 704 l 573 729 l 962 729 l 962 704 q 916 698 934 704 q 888 682 898 692 q 874 660 878 672 q 870 633 870 647 l 870 95 q 874 73 870 85 q 887 50 877 61 q 914 32 896 40 q 962 25 932 25 l 962 0 l 665 0 l 665 137 q 631 86 651 111 q 584 40 611 61 q 522 3 557 18 q 444 -21 487 -12 q 339 -24 386 -31 q 256 1 293 -17 q 191 49 219 20 q 146 115 164 79 q 120 191 128 151 q 111 273 111 232 l 111 637 q 107 659 111 647 q 93 680 103 670 q 65 697 83 690 q 19 704 47 704 l 19 729 l 400 729 l 400 704 m 657 984 q 641 915 654 948 q 605 856 627 882 q 552 815 582 831 q 485 800 521 800 q 418 816 448 800 q 367 857 388 831 q 332 916 345 884 q 317 984 319 949 l 352 984 q 380 938 363 958 q 421 907 396 921 q 485 893 446 893 q 554 907 527 893 q 596 938 580 921 q 622 984 614 958 l 657 984 "},"{":{"x_min":-1.359375,"x_max":508.671875,"ha":532,"o":"m 508 -140 l 434 -140 q 374 -135 405 -140 q 314 -118 343 -130 q 259 -86 285 -106 q 214 -36 233 -66 q 183 34 194 -6 q 172 128 172 75 l 172 283 q 161 350 172 318 q 127 409 149 383 q 73 452 105 436 q -1 467 40 467 l -1 493 q 70 508 38 493 q 125 550 103 524 q 160 608 147 575 q 172 676 172 641 l 172 840 q 193 972 172 920 q 250 1054 215 1024 q 334 1096 286 1084 q 434 1108 381 1108 l 508 1108 l 508 1074 q 442 1053 470 1066 q 397 1017 415 1039 q 372 964 380 995 q 364 887 364 932 l 364 747 q 352 644 364 693 q 314 557 340 594 q 244 499 287 520 q 140 480 202 478 q 247 459 204 479 q 316 403 290 439 q 353 319 342 368 q 364 213 364 271 l 364 80 q 370 -5 364 29 q 392 -61 376 -39 q 436 -94 408 -82 q 508 -112 464 -106 l 508 -140 "},"¼":{"x_min":73.921875,"x_max":919.671875,"ha":960,"o":"m 345 351 l 101 351 l 101 377 q 133 380 121 378 q 152 387 145 383 q 162 396 160 391 q 166 408 165 402 l 166 673 q 151 694 164 687 q 101 702 139 702 l 101 729 l 280 729 l 280 417 q 282 402 280 409 q 291 389 284 395 q 311 380 299 383 q 345 377 324 377 l 345 351 m 919 729 l 191 0 l 73 0 l 801 729 l 919 729 m 830 -137 l 633 -137 l 633 -111 q 669 -103 660 -111 q 678 -86 678 -95 l 678 0 l 381 0 q 437 102 410 56 q 492 186 465 148 q 547 253 519 223 q 604 308 575 284 l 641 308 q 592 218 615 263 q 552 134 569 172 q 516 48 533 90 l 678 48 l 678 308 l 784 308 l 784 48 l 819 48 l 819 0 l 784 0 l 784 -84 q 793 -102 784 -92 q 830 -111 802 -111 l 830 -137 "},"#":{"x_min":65.109375,"x_max":625.328125,"ha":692,"o":"m 421 869 l 355 653 l 442 653 l 508 869 l 604 869 l 539 653 l 625 653 l 600 560 l 512 560 l 457 375 l 548 375 l 522 283 l 429 283 l 372 88 l 275 88 l 333 283 l 245 283 l 189 88 l 91 88 l 149 283 l 65 283 l 91 375 l 176 375 l 231 560 l 143 560 l 168 653 l 259 653 l 324 869 l 421 869 m 273 375 l 359 375 l 415 560 l 328 560 l 273 375 "},"Ĳ":{"x_min":54.265625,"x_max":1061.84375,"ha":1101,"o":"m 508 0 l 54 0 l 54 25 q 114 32 90 25 q 150 53 137 40 q 168 83 164 66 q 173 119 173 100 l 173 858 q 168 887 173 872 q 150 916 163 903 q 113 938 137 929 q 54 947 90 947 l 54 972 l 508 972 l 508 947 q 447 939 471 947 q 411 918 424 931 q 393 888 398 905 q 388 852 388 871 l 388 119 q 393 89 388 105 q 409 59 397 73 q 446 34 422 44 q 508 25 470 25 l 508 0 m 608 972 l 1061 972 l 1061 947 q 1002 940 1025 947 q 966 919 979 932 q 947 890 952 906 q 942 855 942 874 l 942 388 q 924 167 942 266 q 878 -9 907 69 q 813 -147 850 -87 q 739 -250 777 -207 q 535 -402 649 -353 l 523 -380 q 625 -240 580 -326 q 662 -156 644 -203 q 695 -51 680 -109 q 718 75 709 6 q 727 226 727 145 l 727 858 q 722 887 727 872 q 704 916 717 903 q 667 938 690 929 q 608 947 644 947 l 608 972 "},"Ê":{"x_min":66.46875,"x_max":961.046875,"ha":1023,"o":"m 930 755 q 879 831 910 798 q 808 887 847 864 q 726 922 769 910 q 640 934 682 934 q 552 917 593 934 q 475 872 510 901 q 410 804 439 843 q 359 718 381 764 q 322 622 337 672 q 302 522 308 572 l 880 522 q 858 462 866 493 q 847 403 851 430 q 843 341 843 371 l 820 337 q 798 409 811 381 q 760 454 786 438 q 691 477 734 470 q 579 483 648 483 l 298 483 l 298 454 q 311 346 298 399 q 347 245 324 293 q 406 158 371 198 q 483 88 440 118 q 577 42 526 59 q 685 26 628 26 q 775 36 736 26 q 844 61 815 46 q 892 93 872 75 q 925 128 912 111 q 944 157 937 144 q 954 173 950 169 l 943 78 q 897 36 927 56 q 827 0 868 16 q 735 -25 786 -15 q 625 -34 684 -34 q 411 -1 512 -34 q 234 92 310 31 q 112 240 158 153 q 66 433 67 326 q 104 631 68 543 q 201 784 141 718 q 343 892 262 849 q 515 956 423 935 q 626 971 563 968 q 751 975 688 975 q 866 973 812 975 q 956 972 920 972 q 946 915 949 940 q 943 869 943 891 q 948 812 943 838 q 961 756 952 786 l 930 755 m 780 1041 l 666 1041 l 568 1175 l 480 1041 l 424 1041 l 554 1240 l 646 1240 l 780 1041 "},")":{"x_min":15.59375,"x_max":401.515625,"ha":454,"o":"m 15 -120 q 111 32 69 -57 q 147 119 130 71 q 178 225 164 167 q 200 350 191 283 q 208 495 208 418 q 200 636 208 570 q 178 761 191 703 q 147 868 164 819 q 111 957 130 917 q 15 1121 69 1051 l 58 1121 q 148 1040 105 1081 q 230 954 192 999 q 300 860 268 910 q 354 754 331 811 q 388 634 376 698 q 401 495 401 569 q 373 283 401 380 q 297 108 344 186 q 187 -26 249 31 q 58 -120 125 -84 l 15 -120 "},"Å":{"x_min":-2.71875,"x_max":1180.78125,"ha":1104,"o":"m 1180 35 q 1068 2 1119 10 q 976 -6 1017 -6 q 920 -3 944 -6 q 879 6 896 0 q 845 19 859 12 q 793 63 815 36 q 753 122 771 90 q 720 186 735 153 q 693 248 706 219 l 676 284 q 548 239 607 265 q 442 189 489 214 q 365 144 396 164 q 320 113 333 123 q 264 64 295 86 q 194 27 233 42 q 108 4 155 12 q 4 -4 61 -4 l -2 25 q 110 67 63 35 q 193 144 158 98 q 252 247 227 189 q 295 368 276 304 q 324 445 306 404 q 367 524 342 486 q 426 596 393 562 q 501 653 459 630 q 478 697 489 674 q 457 743 467 720 q 428 803 442 770 q 395 864 414 836 q 349 911 375 892 q 284 930 323 930 q 231 924 257 930 q 181 909 205 918 l 172 937 q 291 970 231 956 q 412 984 352 984 q 468 981 440 984 q 522 967 496 977 q 565 941 544 959 q 605 896 586 922 q 641 842 624 871 q 672 784 657 813 q 698 728 687 754 q 719 683 710 702 q 838 426 779 555 q 965 173 897 298 q 991 129 977 151 q 1022 90 1005 107 q 1060 63 1039 73 q 1108 54 1081 53 q 1134 56 1117 54 q 1170 66 1150 58 l 1180 35 m 539 575 q 506 516 521 546 q 480 454 492 485 q 457 391 467 422 q 437 331 447 360 q 415 270 427 300 q 388 213 403 241 q 507 276 439 243 q 654 331 576 308 l 539 575 m 692 1155 q 680 1095 692 1123 q 647 1046 667 1067 q 598 1013 626 1025 q 537 1000 570 1000 q 477 1013 505 1000 q 429 1046 450 1025 q 396 1095 408 1067 q 385 1155 385 1123 q 396 1215 385 1187 q 429 1264 408 1243 q 477 1297 450 1285 q 537 1309 505 1309 q 597 1297 569 1309 q 646 1264 625 1285 q 680 1215 667 1243 q 692 1155 692 1187 m 608 1155 q 602 1211 608 1190 q 584 1246 595 1233 q 561 1263 574 1258 q 537 1268 549 1268 q 513 1261 526 1268 q 491 1241 501 1255 q 474 1206 481 1227 q 468 1155 468 1184 q 474 1106 468 1127 q 491 1071 481 1085 q 513 1050 501 1057 q 537 1043 526 1043 q 562 1049 549 1043 q 585 1070 574 1056 q 602 1105 595 1083 q 608 1155 608 1126 "},"¸":{"x_min":0,"x_max":288.921875,"ha":289,"o":"m 288 -153 q 276 -214 288 -189 q 243 -254 264 -238 q 192 -276 221 -269 q 130 -283 164 -283 q 80 -272 103 -283 q 38 -244 56 -262 q 10 -202 20 -226 q 0 -151 0 -178 l 34 -151 q 43 -191 34 -173 q 65 -220 52 -208 q 92 -239 78 -232 q 113 -245 105 -245 q 152 -236 137 -245 q 177 -213 167 -227 q 190 -184 186 -200 q 194 -153 194 -168 q 183 -107 194 -124 q 158 -82 172 -90 q 127 -72 143 -74 q 101 -70 111 -70 l 162 48 l 198 48 l 160 -41 q 204 -48 181 -41 q 246 -70 227 -56 q 277 -105 265 -84 q 288 -153 288 -126 "},"a":{"x_min":54.265625,"x_max":935.953125,"ha":978,"o":"m 472 758 q 565 747 522 758 q 640 720 607 736 q 697 687 673 705 q 735 655 721 670 q 781 685 756 672 q 830 708 805 698 q 880 722 855 717 q 927 729 905 727 l 935 706 q 887 671 908 695 q 853 613 868 650 q 836 518 837 577 q 835 446 835 483 q 835 372 835 408 q 834 303 834 336 q 833 244 834 270 q 833 203 833 219 q 833 184 833 187 q 848 88 833 125 q 883 31 864 52 q 933 -4 905 6 l 925 -26 q 853 -14 891 -25 q 779 13 815 -4 q 713 57 744 31 q 663 115 682 82 q 629 65 650 89 q 577 21 608 40 q 505 -9 547 2 q 411 -21 464 -21 q 256 10 322 -21 q 144 93 189 42 q 76 208 99 144 q 54 339 54 273 q 66 438 54 388 q 101 535 78 489 q 159 622 124 581 q 241 693 194 663 q 345 740 287 723 q 472 758 402 758 m 474 50 q 553 71 522 50 q 603 124 584 93 q 630 190 621 155 q 642 251 639 225 l 648 508 q 643 543 647 522 q 632 585 639 563 q 612 629 624 607 q 582 668 600 651 q 538 695 564 685 q 479 706 513 706 q 387 680 428 706 q 316 610 345 655 q 271 507 287 566 q 255 381 255 448 q 274 232 255 295 q 323 129 293 170 q 394 69 354 88 q 474 50 433 50 "},"Ę":{"x_min":66.46875,"x_max":961.046875,"ha":1023,"o":"m 961 -151 q 950 -202 961 -178 q 923 -244 940 -226 q 881 -272 905 -262 q 830 -283 857 -283 q 767 -272 796 -283 q 717 -242 738 -261 q 683 -193 695 -222 q 672 -130 672 -165 q 686 -76 672 -103 q 723 -26 699 -49 q 625 -34 677 -34 q 411 -1 512 -34 q 234 92 310 31 q 112 240 158 153 q 66 433 67 326 q 104 631 68 543 q 201 784 141 718 q 343 892 262 849 q 515 956 423 935 q 626 971 563 968 q 751 975 688 975 q 866 973 812 975 q 956 972 920 972 q 946 915 949 940 q 943 869 943 891 q 948 812 943 838 q 961 756 952 786 l 930 755 q 879 831 910 798 q 808 887 847 864 q 726 922 769 910 q 640 934 682 934 q 552 917 593 934 q 475 872 510 901 q 410 804 439 843 q 359 718 381 764 q 322 622 337 672 q 302 522 308 572 l 880 522 q 858 462 866 493 q 847 403 851 430 q 843 341 843 371 l 820 337 q 798 409 811 381 q 760 454 786 438 q 691 477 734 470 q 579 483 648 483 l 298 483 l 298 454 q 311 346 298 399 q 347 245 324 293 q 406 158 371 198 q 483 88 440 118 q 577 42 526 59 q 685 26 628 26 q 775 36 736 26 q 844 61 815 46 q 892 93 872 75 q 925 128 912 111 q 944 157 937 144 q 954 173 950 169 l 943 78 q 897 35 927 56 q 825 0 866 14 q 775 -61 790 -25 q 759 -130 759 -96 q 766 -178 759 -157 q 782 -214 772 -200 q 806 -237 792 -229 q 833 -245 819 -245 q 873 -234 856 -245 q 902 -208 891 -223 q 920 -177 914 -193 q 926 -151 925 -161 l 961 -151 "},"=":{"x_min":127.5,"x_max":754.1875,"ha":882,"o":"m 754 375 l 754 283 l 127 283 l 127 375 l 754 375 m 754 653 l 754 560 l 127 560 l 127 653 l 754 653 "},"˚":{"x_min":0,"x_max":307.234375,"ha":307,"o":"m 307 915 q 295 855 307 883 q 262 806 282 827 q 213 773 241 785 q 152 760 185 760 q 92 773 120 760 q 44 806 65 785 q 11 855 23 827 q 0 915 0 883 q 11 975 0 947 q 44 1024 23 1003 q 92 1057 65 1045 q 152 1069 120 1069 q 212 1057 184 1069 q 261 1024 240 1045 q 295 975 282 1003 q 307 915 307 947 m 223 915 q 217 971 223 950 q 199 1006 210 993 q 176 1023 189 1018 q 152 1028 164 1028 q 128 1021 141 1028 q 106 1001 116 1015 q 89 966 96 987 q 83 915 83 944 q 89 866 83 887 q 106 831 96 845 q 128 810 116 817 q 152 803 141 803 q 177 809 164 803 q 200 830 189 816 q 217 865 210 843 q 223 915 223 886 "},"ú":{"x_min":19.671875,"x_max":962.390625,"ha":1003,"o":"m 400 704 q 354 698 371 704 q 326 682 336 692 q 312 660 316 672 q 308 633 308 647 l 308 231 q 324 142 308 179 q 366 84 341 105 q 424 56 392 63 q 486 56 455 49 q 562 93 529 67 q 618 156 596 119 q 653 239 641 193 q 665 335 665 285 l 665 633 q 662 655 665 643 q 649 678 659 668 q 621 696 639 689 q 573 704 603 704 l 573 729 l 962 729 l 962 704 q 916 698 934 704 q 888 682 898 692 q 874 660 878 672 q 870 633 870 647 l 870 95 q 874 73 870 85 q 887 50 877 61 q 914 32 896 40 q 962 25 932 25 l 962 0 l 665 0 l 665 137 q 631 86 651 111 q 584 40 611 61 q 522 3 557 18 q 444 -21 487 -12 q 339 -24 386 -31 q 256 1 293 -17 q 191 49 219 20 q 146 115 164 79 q 120 191 128 151 q 111 273 111 232 l 111 637 q 107 659 111 647 q 93 680 103 670 q 65 697 83 690 q 19 704 47 704 l 19 729 l 400 729 l 400 704 m 743 1000 l 529 801 l 456 801 l 590 1000 l 743 1000 "},"¯":{"x_min":0,"x_max":369.625,"ha":370,"o":"m 369 844 l 0 844 l 0 908 l 369 908 l 369 844 "},"Z":{"x_min":40.015625,"x_max":931.875,"ha":973,"o":"m 54 0 l 40 37 l 40 38 l 41 38 l 712 933 l 341 933 q 266 927 305 933 q 193 905 227 921 q 134 861 159 889 q 99 787 109 832 l 76 791 q 75 812 76 794 q 71 857 75 830 q 61 914 68 883 q 40 972 53 945 l 916 972 l 930 933 l 252 38 l 630 38 q 706 44 667 38 q 778 66 744 50 q 837 110 812 82 q 872 184 862 139 l 895 180 q 896 159 895 177 q 900 114 897 141 q 911 57 904 88 q 931 0 918 27 l 54 0 "},"u":{"x_min":19.671875,"x_max":962.390625,"ha":1003,"o":"m 400 704 q 354 698 371 704 q 326 682 336 692 q 312 660 316 672 q 308 633 308 647 l 308 231 q 324 142 308 179 q 366 84 341 105 q 424 56 392 63 q 486 56 455 49 q 562 93 529 67 q 618 156 596 119 q 653 239 641 193 q 665 335 665 285 l 665 633 q 662 655 665 643 q 649 678 659 668 q 621 696 639 689 q 573 704 603 704 l 573 729 l 962 729 l 962 704 q 916 698 934 704 q 888 682 898 692 q 874 660 878 672 q 870 633 870 647 l 870 95 q 874 73 870 85 q 887 50 877 61 q 914 32 896 40 q 962 25 932 25 l 962 0 l 665 0 l 665 137 q 631 86 651 111 q 584 40 611 61 q 522 3 557 18 q 444 -21 487 -12 q 339 -24 386 -31 q 256 1 293 -17 q 191 49 219 20 q 146 115 164 79 q 120 191 128 151 q 111 273 111 232 l 111 637 q 107 659 111 647 q 93 680 103 670 q 65 697 83 690 q 19 704 47 704 l 19 729 l 400 729 l 400 704 "},"k":{"x_min":33.234375,"x_max":950.1875,"ha":953,"o":"m 422 0 l 33 0 l 33 25 q 77 30 59 25 q 105 44 94 35 q 120 64 115 52 q 124 90 124 76 l 124 844 q 121 866 124 854 q 107 887 117 877 q 79 904 96 897 q 33 910 61 910 l 33 935 l 330 935 l 330 695 q 412 734 364 718 q 523 750 459 750 q 659 736 596 750 q 767 693 721 722 q 838 621 812 665 q 864 519 864 578 q 839 419 864 462 q 776 345 815 377 q 687 294 737 314 q 585 261 637 273 q 675 171 629 214 q 763 96 720 129 q 839 45 805 64 q 894 26 874 26 q 913 28 900 26 q 942 35 926 29 l 950 5 q 860 -19 902 -12 q 783 -26 819 -26 q 699 -9 743 -26 q 611 32 655 6 q 527 90 568 58 q 451 152 486 122 q 391 210 417 183 q 352 251 365 236 q 505 305 438 269 q 561 341 533 320 q 610 387 589 361 q 645 446 632 414 q 658 519 658 479 q 644 605 658 571 q 608 658 630 638 q 558 685 585 678 q 502 693 530 693 q 442 681 473 693 q 387 647 412 670 q 346 590 362 624 q 330 508 330 555 l 330 95 q 333 73 330 85 q 346 50 337 61 q 374 32 356 40 q 422 25 392 25 l 422 0 "},"Ù":{"x_min":63.75,"x_max":1188.921875,"ha":1243,"o":"m 734 972 l 1188 972 l 1188 947 q 1128 939 1152 947 q 1092 918 1105 931 q 1074 888 1079 905 q 1069 852 1069 871 l 1069 119 q 1073 89 1069 105 q 1090 59 1078 73 q 1126 34 1103 44 q 1188 25 1150 25 l 1188 0 l 854 0 l 854 101 q 800 51 830 75 q 736 10 771 28 q 658 -17 700 -6 q 567 -27 616 -27 q 444 -14 505 -27 q 327 23 383 -2 q 223 87 271 49 q 140 176 175 126 q 84 290 104 227 q 63 429 63 354 q 82 579 63 510 q 131 705 101 648 q 202 806 162 761 q 282 886 241 851 q 502 1016 379 967 l 520 1000 q 501 982 518 998 q 459 936 484 967 q 407 859 435 906 q 356 748 379 813 q 316 600 332 684 q 301 413 301 517 q 322 241 301 315 q 381 119 343 168 q 471 45 419 69 q 584 21 523 21 q 688 42 639 21 q 774 101 737 63 q 832 191 811 139 q 854 307 854 244 l 854 852 q 850 882 854 866 q 833 913 845 899 q 796 937 820 927 q 734 947 773 947 l 734 972 m 530 1240 l 665 1041 l 591 1041 l 378 1240 l 530 1240 "},"Ů":{"x_min":63.75,"x_max":1188.921875,"ha":1243,"o":"m 734 972 l 1188 972 l 1188 947 q 1128 939 1152 947 q 1092 918 1105 931 q 1074 888 1079 905 q 1069 852 1069 871 l 1069 119 q 1073 89 1069 105 q 1090 59 1078 73 q 1126 34 1103 44 q 1188 25 1150 25 l 1188 0 l 854 0 l 854 101 q 800 51 830 75 q 736 10 771 28 q 658 -17 700 -6 q 567 -27 616 -27 q 444 -14 505 -27 q 327 23 383 -2 q 223 87 271 49 q 140 176 175 126 q 84 290 104 227 q 63 429 63 354 q 82 579 63 510 q 131 705 101 648 q 202 806 162 761 q 282 886 241 851 q 502 1016 379 967 l 520 1000 q 501 982 518 998 q 459 936 484 967 q 407 859 435 906 q 356 748 379 813 q 316 600 332 684 q 301 413 301 517 q 322 241 301 315 q 381 119 343 168 q 471 45 419 69 q 584 21 523 21 q 688 42 639 21 q 774 101 737 63 q 832 191 811 139 q 854 307 854 244 l 854 852 q 850 882 854 866 q 833 913 845 899 q 796 937 820 927 q 734 947 773 947 l 734 972 m 775 1193 q 763 1133 775 1161 q 730 1084 750 1105 q 681 1051 709 1063 q 620 1038 653 1038 q 560 1051 588 1038 q 512 1084 533 1063 q 479 1133 491 1105 q 468 1193 468 1161 q 479 1253 468 1225 q 512 1302 491 1281 q 560 1335 533 1323 q 620 1347 588 1347 q 680 1335 652 1347 q 729 1302 708 1323 q 763 1253 750 1281 q 775 1193 775 1225 m 691 1193 q 685 1249 691 1228 q 667 1284 678 1271 q 644 1301 657 1296 q 620 1306 632 1306 q 596 1299 609 1306 q 574 1279 584 1293 q 557 1244 564 1265 q 551 1193 551 1222 q 557 1144 551 1165 q 574 1109 564 1123 q 596 1088 584 1095 q 620 1081 609 1081 q 645 1087 632 1081 q 668 1108 657 1094 q 685 1143 678 1121 q 691 1193 691 1164 "},"¢":{"x_min":59.6875,"x_max":556.828125,"ha":629,"o":"m 454 743 q 510 742 485 743 q 555 741 534 741 q 549 706 551 725 q 547 674 547 687 q 550 643 547 658 q 556 613 552 629 l 541 612 q 499 665 526 644 q 441 697 472 687 l 319 269 q 413 248 360 248 q 479 260 453 248 q 521 285 505 271 q 545 311 537 299 q 554 326 552 324 l 547 271 q 522 248 538 259 q 483 229 505 238 q 434 217 461 221 q 376 212 406 212 q 305 216 338 212 l 244 0 l 201 0 l 263 223 q 179 253 217 233 q 114 301 141 272 q 73 370 88 330 q 59 458 59 409 q 89 591 61 537 q 163 677 116 644 q 273 725 210 710 q 411 741 337 739 l 476 973 l 519 973 l 454 743 m 202 470 q 223 370 202 417 q 283 291 244 323 l 400 706 l 388 706 q 312 685 346 706 q 253 630 278 663 q 216 554 229 596 q 202 470 202 512 "},"Ş":{"x_min":70.53125,"x_max":923.734375,"ha":978,"o":"m 605 -153 q 593 -214 605 -189 q 559 -254 581 -238 q 509 -276 538 -269 q 446 -283 480 -283 q 396 -272 419 -283 q 354 -244 372 -262 q 326 -202 337 -226 q 316 -151 316 -178 l 351 -151 q 360 -191 351 -173 q 382 -220 369 -208 q 408 -239 395 -232 q 430 -245 422 -245 q 468 -236 453 -245 q 493 -213 484 -227 q 507 -184 503 -200 q 511 -153 511 -168 q 500 -107 511 -124 q 474 -82 489 -90 q 443 -72 459 -74 q 417 -70 427 -70 l 448 -15 q 391 -17 419 -16 q 336 -18 363 -18 q 233 -15 273 -18 q 168 -9 194 -12 q 126 -2 143 -5 q 92 0 109 0 q 103 55 100 30 q 107 103 107 81 q 101 159 107 133 q 88 215 96 185 l 119 216 q 176 138 138 173 q 261 76 214 102 q 358 35 307 50 q 455 21 409 21 q 556 40 510 21 q 636 90 602 59 q 688 162 669 122 q 706 245 706 202 q 685 321 706 292 q 628 368 663 351 q 546 395 592 386 q 453 409 501 404 q 374 419 417 413 q 289 435 332 424 q 207 464 246 446 q 137 510 168 482 q 88 577 107 537 q 70 673 70 617 q 96 788 70 739 q 164 871 122 836 q 261 929 206 906 q 374 965 316 952 q 490 983 432 978 q 594 988 547 988 q 672 986 636 988 q 739 980 708 983 q 796 974 770 977 q 844 972 822 972 q 833 915 836 940 q 830 868 830 891 q 835 812 830 838 q 848 756 840 786 l 817 755 q 797 805 807 780 q 774 850 788 829 q 742 890 761 872 q 692 921 722 908 q 618 941 662 934 q 512 948 575 948 q 431 933 470 948 q 360 892 391 918 q 310 830 329 866 q 291 751 291 794 q 305 687 291 714 q 341 642 319 661 q 392 613 364 624 q 448 595 420 601 q 502 585 476 588 q 544 581 527 583 q 617 573 576 579 q 699 557 657 568 q 782 527 741 545 q 854 480 822 509 q 904 409 885 451 q 923 312 923 368 q 906 206 923 252 q 859 125 889 160 q 788 66 829 90 q 699 25 747 42 q 597 0 651 9 q 489 -12 543 -8 l 476 -41 q 520 -48 497 -41 q 562 -70 543 -56 q 593 -105 581 -84 q 605 -153 605 -126 "},"é":{"x_min":54.265625,"x_max":866.765625,"ha":907,"o":"m 269 423 q 267 395 267 408 q 267 366 267 381 q 276 241 267 302 q 306 132 284 180 q 367 55 328 85 q 469 25 406 26 q 540 37 509 25 q 596 73 572 50 q 636 126 619 96 q 665 193 653 157 l 825 139 q 767 75 800 104 q 689 24 733 46 q 591 -8 645 3 q 473 -21 537 -21 q 341 -5 400 -21 q 236 38 282 10 q 155 104 189 66 q 98 184 121 141 q 65 273 75 227 q 54 364 54 319 q 64 452 54 406 q 94 540 73 497 q 148 622 115 583 q 225 689 180 660 q 328 735 270 718 q 459 752 387 752 q 641 726 566 752 q 764 654 716 699 q 837 550 813 609 q 866 423 861 490 l 269 423 m 463 705 q 380 687 414 705 q 323 636 345 668 q 289 561 301 604 q 271 469 277 518 l 654 469 q 639 560 650 518 q 608 635 629 603 q 551 686 586 668 q 463 705 516 705 m 719 1000 l 505 801 l 432 801 l 566 1000 l 719 1000 "},"B":{"x_min":46.125,"x_max":1023.4375,"ha":1079,"o":"m 922 752 q 903 680 922 715 q 851 614 883 644 q 775 557 818 583 q 683 514 731 532 q 698 515 691 515 q 714 515 706 515 q 825 505 770 515 q 925 471 881 496 q 996 401 969 445 q 1023 288 1023 357 q 1008 193 1023 235 q 966 118 992 151 q 904 62 939 86 q 828 23 868 39 q 746 -3 788 6 q 662 -18 703 -12 q 584 -25 621 -23 q 519 -27 548 -27 q 460 -26 491 -27 q 399 -21 430 -24 q 339 -15 368 -18 q 283 -8 309 -12 q 161 12 221 0 l 168 851 q 163 882 168 865 q 145 913 158 899 q 108 937 132 927 q 46 947 84 947 l 46 972 l 499 972 q 674 964 596 972 q 807 932 752 956 q 892 865 862 908 q 922 752 922 822 m 695 754 q 678 841 695 807 q 634 896 661 876 q 571 925 606 916 q 499 933 535 933 q 439 925 463 933 q 403 904 416 917 q 385 874 389 891 q 380 838 380 857 l 377 51 q 430 30 400 39 q 489 15 455 22 q 567 9 524 9 q 647 22 604 9 q 728 63 691 35 q 790 133 765 90 q 815 233 815 175 q 803 317 815 281 q 769 378 790 352 q 721 419 748 403 q 664 445 694 436 q 603 457 634 454 q 544 461 572 461 q 503 459 522 461 q 470 456 484 457 q 440 451 453 453 l 429 478 q 562 519 503 486 q 611 553 587 533 q 653 602 634 573 q 684 668 672 630 q 695 754 695 706 "},"…":{"x_min":73.921875,"x_max":1001.734375,"ha":1075,"o":"m 73 84 q 82 125 73 106 q 104 159 90 145 q 138 182 118 173 q 179 190 157 190 q 220 182 200 190 q 253 159 239 173 q 276 125 267 145 q 284 84 284 106 q 276 43 284 63 q 253 10 267 24 q 220 -12 239 -4 q 179 -21 200 -21 q 138 -12 157 -21 q 104 10 118 -4 q 82 43 90 24 q 73 84 73 63 m 432 84 q 440 125 432 106 q 463 159 448 145 q 496 182 477 173 q 537 190 516 190 q 578 182 559 190 q 612 159 598 173 q 634 125 626 145 q 642 84 642 106 q 634 43 642 63 q 612 10 626 24 q 578 -12 598 -4 q 537 -21 559 -21 q 496 -12 516 -21 q 463 10 477 -4 q 440 43 448 24 q 432 84 432 63 m 790 84 q 798 125 790 106 q 821 159 807 145 q 854 182 835 173 q 895 190 874 190 q 936 182 917 190 q 970 159 956 173 q 993 125 984 145 q 1001 84 1001 106 q 993 43 1001 63 q 970 10 984 24 q 936 -12 956 -4 q 895 -21 917 -21 q 854 -12 874 -21 q 821 10 835 -4 q 798 43 807 24 q 790 84 790 63 "},"ē":{"x_min":54.265625,"x_max":866.765625,"ha":907,"o":"m 269 423 q 267 395 267 408 q 267 366 267 381 q 276 241 267 302 q 306 132 284 180 q 367 55 328 85 q 469 25 406 26 q 540 37 509 25 q 596 73 572 50 q 636 126 619 96 q 665 193 653 157 l 825 139 q 767 75 800 104 q 689 24 733 46 q 591 -8 645 3 q 473 -21 537 -21 q 341 -5 400 -21 q 236 38 282 10 q 155 104 189 66 q 98 184 121 141 q 65 273 75 227 q 54 364 54 319 q 64 452 54 406 q 94 540 73 497 q 148 622 115 583 q 225 689 180 660 q 328 735 270 718 q 459 752 387 752 q 641 726 566 752 q 764 654 716 699 q 837 550 813 609 q 866 423 861 490 l 269 423 m 463 705 q 380 687 414 705 q 323 636 345 668 q 289 561 301 604 q 271 469 277 518 l 654 469 q 639 560 650 518 q 608 635 629 603 q 551 686 586 668 q 463 705 516 705 m 637 831 l 268 831 l 268 895 l 637 895 l 637 831 "},"H":{"x_min":46.125,"x_max":1170.609375,"ha":1234,"o":"m 499 0 l 46 0 l 46 25 q 106 32 82 25 q 142 53 129 40 q 160 83 155 66 q 165 119 165 100 l 165 1134 q 160 1163 165 1148 q 142 1192 155 1179 q 105 1214 128 1205 q 46 1223 82 1223 l 46 1248 l 380 1248 l 380 901 q 433 939 403 921 q 498 970 462 956 q 576 992 533 984 q 668 1000 618 1000 q 790 987 729 1000 q 907 948 851 974 q 1011 884 963 923 q 1094 795 1059 846 q 1150 681 1129 744 q 1170 543 1170 618 q 1147 392 1170 461 q 1086 266 1124 323 q 1001 165 1049 210 q 902 85 952 120 q 634 -44 784 4 l 615 -27 q 773 105 704 23 q 832 185 803 139 q 883 286 860 230 q 919 410 905 343 q 933 558 933 478 q 911 730 933 656 q 852 853 890 804 q 762 927 814 902 q 649 951 710 951 q 546 932 594 951 q 461 877 497 912 q 404 791 425 841 q 380 677 382 740 l 380 119 q 384 89 380 105 q 401 59 389 73 q 437 34 414 44 q 499 25 461 25 l 499 0 "},"î":{"x_min":40.015625,"x_max":421.171875,"ha":461,"o":"m 421 0 l 40 0 l 40 25 q 86 30 68 25 q 114 46 104 36 q 128 68 124 56 q 132 95 132 81 l 132 632 q 128 654 132 642 q 115 677 125 667 q 87 695 105 688 q 40 702 69 702 l 40 729 l 421 729 l 421 702 q 376 697 394 702 q 347 682 358 691 q 333 662 337 674 q 328 637 328 650 l 328 95 q 332 73 328 85 q 345 50 335 61 q 373 32 355 40 q 421 25 391 25 l 421 0 m 408 801 l 294 801 l 196 935 l 108 801 l 52 801 l 182 1000 l 274 1000 l 408 801 "},"−":{"x_min":128.859375,"x_max":755.546875,"ha":885,"o":"m 755 514 l 755 422 l 128 422 l 128 514 l 755 514 "},"≠":{"x_min":91.5625,"x_max":718.234375,"ha":811,"o":"m 279 283 l 91 283 l 91 375 l 318 375 l 397 560 l 91 560 l 91 653 l 434 653 l 490 783 l 596 783 l 540 653 l 718 653 l 718 560 l 502 560 l 423 375 l 718 375 l 718 283 l 384 283 l 331 156 l 226 156 l 279 283 "},"¥":{"x_min":42.734375,"x_max":1133.3125,"ha":1174,"o":"m 453 465 l 218 852 q 196 882 210 866 q 160 913 181 899 q 110 937 139 927 q 42 947 81 947 l 42 972 l 511 972 l 511 947 q 450 936 466 947 q 433 908 433 925 q 438 881 433 895 q 453 852 444 867 l 693 470 q 810 642 755 548 q 916 852 865 735 q 925 874 922 864 q 927 894 927 885 q 906 932 927 917 q 833 947 885 947 l 833 972 l 1133 972 q 1051 843 1094 909 q 961 711 1007 776 q 866 582 914 645 q 768 465 817 520 l 910 465 l 910 373 l 710 373 l 710 290 l 910 290 l 910 198 l 710 198 l 710 119 q 714 89 710 105 q 731 59 718 73 q 767 34 744 44 q 829 25 790 25 l 829 0 l 375 0 l 375 25 q 434 32 411 25 q 470 51 457 39 q 489 80 484 64 q 494 115 494 96 l 494 198 l 284 198 l 284 290 l 494 290 l 494 373 l 284 373 l 284 465 l 453 465 "},"Ĥ":{"x_min":46.125,"x_max":1170.609375,"ha":1234,"o":"m 499 0 l 46 0 l 46 25 q 106 32 82 25 q 142 53 129 40 q 160 83 155 66 q 165 119 165 100 l 165 1134 q 160 1163 165 1148 q 142 1192 155 1179 q 105 1214 128 1205 q 46 1223 82 1223 l 46 1248 l 380 1248 l 380 901 q 433 939 403 921 q 498 970 462 956 q 576 992 533 984 q 668 1000 618 1000 q 790 987 729 1000 q 907 948 851 974 q 1011 884 963 923 q 1094 795 1059 846 q 1150 681 1129 744 q 1170 543 1170 618 q 1147 392 1170 461 q 1086 266 1124 323 q 1001 165 1049 210 q 902 85 952 120 q 634 -44 784 4 l 615 -27 q 773 105 704 23 q 832 185 803 139 q 883 286 860 230 q 919 410 905 343 q 933 558 933 478 q 911 730 933 656 q 852 853 890 804 q 762 927 814 902 q 649 951 710 951 q 546 932 594 951 q 461 877 497 912 q 404 791 425 841 q 380 677 382 740 l 380 119 q 384 89 380 105 q 401 59 389 73 q 437 34 414 44 q 499 25 461 25 l 499 0 m 863 1057 l 749 1057 l 651 1191 l 563 1057 l 507 1057 l 637 1256 l 729 1256 l 863 1057 "},"U":{"x_min":63.75,"x_max":1188.921875,"ha":1243,"o":"m 734 972 l 1188 972 l 1188 947 q 1128 939 1152 947 q 1092 918 1105 931 q 1074 888 1079 905 q 1069 852 1069 871 l 1069 119 q 1073 89 1069 105 q 1090 59 1078 73 q 1126 34 1103 44 q 1188 25 1150 25 l 1188 0 l 854 0 l 854 101 q 800 51 830 75 q 736 10 771 28 q 658 -17 700 -6 q 567 -27 616 -27 q 444 -14 505 -27 q 327 23 383 -2 q 223 87 271 49 q 140 176 175 126 q 84 290 104 227 q 63 429 63 354 q 82 579 63 510 q 131 705 101 648 q 202 806 162 761 q 282 886 241 851 q 502 1016 379 967 l 520 1000 q 501 982 518 998 q 459 936 484 967 q 407 859 435 906 q 356 748 379 813 q 316 600 332 684 q 301 413 301 517 q 322 241 301 315 q 381 119 343 168 q 471 45 419 69 q 584 21 523 21 q 688 42 639 21 q 774 101 737 63 q 832 191 811 139 q 854 307 854 244 l 854 852 q 850 882 854 866 q 833 913 845 899 q 796 937 820 927 q 734 947 773 947 l 734 972 "},"Ñ":{"x_min":55.609375,"x_max":1090.578125,"ha":1135,"o":"m 55 972 l 396 972 l 909 348 l 909 858 q 904 887 909 872 q 886 916 899 903 q 849 938 872 929 q 790 947 826 947 l 790 972 l 1090 972 l 1090 947 q 1030 939 1053 947 q 993 918 1007 931 q 975 888 980 905 q 971 852 971 871 l 971 0 l 909 0 l 236 812 l 236 119 q 240 89 236 105 q 257 59 244 73 q 293 34 269 44 q 355 25 316 25 l 355 0 l 55 0 l 55 25 q 115 32 92 25 q 152 53 139 40 q 170 83 165 66 q 174 119 174 100 l 174 886 q 145 916 158 904 q 117 934 131 927 q 88 944 103 942 q 55 947 73 947 l 55 972 m 801 1226 q 788 1159 798 1192 q 759 1100 777 1126 q 715 1057 741 1074 q 655 1041 688 1041 q 586 1056 614 1041 q 535 1088 558 1070 q 492 1119 512 1105 q 447 1134 471 1134 q 410 1123 423 1134 q 389 1097 396 1112 q 380 1067 382 1083 q 378 1041 378 1051 l 343 1041 q 352 1109 344 1076 q 377 1168 360 1142 q 422 1210 394 1194 q 491 1226 450 1226 q 555 1211 528 1226 q 605 1180 582 1197 q 648 1148 627 1163 q 690 1134 668 1134 q 725 1145 711 1134 q 747 1170 739 1155 q 758 1200 755 1185 q 762 1226 761 1215 l 801 1226 "},"F":{"x_min":46.125,"x_max":905.421875,"ha":928,"o":"m 46 972 l 905 972 q 884 914 891 945 q 874 857 877 883 q 870 812 870 830 q 869 791 869 794 l 845 787 q 811 861 836 832 q 752 905 786 889 q 679 927 718 921 q 604 933 640 933 l 380 933 l 380 438 l 817 438 q 796 379 803 410 q 785 320 788 347 q 780 258 781 288 l 758 254 q 740 315 750 290 q 713 356 730 340 q 669 381 695 373 q 604 394 643 390 q 510 399 564 398 q 380 400 455 400 l 380 -76 q 368 -110 380 -91 q 339 -151 357 -128 q 297 -199 320 -173 q 250 -252 274 -224 q 204 -311 226 -280 q 165 -375 181 -342 l 165 858 q 160 887 165 872 q 142 916 155 903 q 105 938 128 929 q 46 947 82 947 l 46 972 "},"̒":{"x_min":37.296875,"x_max":208.21875,"ha":252,"o":"m 183 1052 q 165 1014 169 1034 q 165 973 161 994 q 180 930 169 952 q 208 889 191 909 l 123 803 l 37 889 q 85 977 52 929 q 169 1068 119 1025 l 183 1052 "},"ĵ":{"x_min":-283.5,"x_max":416.421875,"ha":449,"o":"m 35 729 l 416 729 l 416 702 q 372 697 389 702 q 344 683 354 692 q 329 663 333 674 q 324 638 324 651 l 326 189 q 289 -9 326 77 q 189 -155 253 -95 q 38 -245 126 -215 q -151 -276 -48 -276 q -193 -276 -176 -276 q -225 -275 -211 -275 q -252 -274 -239 -274 q -280 -273 -265 -273 q -271 -223 -274 -249 q -269 -179 -269 -196 q -273 -134 -269 -155 q -283 -91 -277 -113 l -261 -90 q -181 -189 -230 -153 q -70 -225 -132 -225 q 15 -198 -21 -225 q 76 -126 52 -170 q 112 -24 101 -81 q 124 91 124 32 l 126 637 q 121 659 124 647 q 107 680 117 670 q 80 696 97 690 q 35 702 63 702 l 35 729 m 402 801 l 288 801 l 190 935 l 102 801 l 46 801 l 176 1000 l 268 1000 l 402 801 "},"ā":{"x_min":54.265625,"x_max":935.953125,"ha":978,"o":"m 472 758 q 565 747 522 758 q 640 720 607 736 q 697 687 673 705 q 735 655 721 670 q 781 685 756 672 q 830 708 805 698 q 880 722 855 717 q 927 729 905 727 l 935 706 q 887 671 908 695 q 853 613 868 650 q 836 518 837 577 q 835 446 835 483 q 835 372 835 408 q 834 303 834 336 q 833 244 834 270 q 833 203 833 219 q 833 184 833 187 q 848 88 833 125 q 883 31 864 52 q 933 -4 905 6 l 925 -26 q 853 -14 891 -25 q 779 13 815 -4 q 713 57 744 31 q 663 115 682 82 q 629 65 650 89 q 577 21 608 40 q 505 -9 547 2 q 411 -21 464 -21 q 256 10 322 -21 q 144 93 189 42 q 76 208 99 144 q 54 339 54 273 q 66 438 54 388 q 101 535 78 489 q 159 622 124 581 q 241 693 194 663 q 345 740 287 723 q 472 758 402 758 m 474 50 q 553 71 522 50 q 603 124 584 93 q 630 190 621 155 q 642 251 639 225 l 648 508 q 643 543 647 522 q 632 585 639 563 q 612 629 624 607 q 582 668 600 651 q 538 695 564 685 q 479 706 513 706 q 387 680 428 706 q 316 610 345 655 q 271 507 287 566 q 255 381 255 448 q 274 232 255 295 q 323 129 293 170 q 394 69 354 88 q 474 50 433 50 m 674 826 l 305 826 l 305 890 l 674 890 l 674 826 "},"Ĩ":{"x_min":52,"x_max":510.484375,"ha":562,"o":"m 508 0 l 54 0 l 54 25 q 114 32 90 25 q 150 53 137 40 q 168 83 164 66 q 173 119 173 100 l 173 858 q 168 887 173 872 q 150 916 163 903 q 113 938 137 929 q 54 947 90 947 l 54 972 l 508 972 l 508 947 q 447 939 471 947 q 411 918 424 931 q 393 888 398 905 q 388 852 388 871 l 388 119 q 393 89 388 105 q 409 59 397 73 q 446 34 422 44 q 508 25 470 25 l 508 0 m 510 1225 q 497 1158 507 1191 q 468 1099 486 1125 q 424 1056 450 1073 q 364 1040 397 1040 q 295 1055 323 1040 q 244 1087 267 1069 q 201 1118 221 1104 q 156 1133 180 1133 q 119 1122 132 1133 q 98 1096 105 1111 q 89 1066 91 1082 q 87 1040 87 1050 l 52 1040 q 61 1108 53 1075 q 86 1167 69 1141 q 131 1209 103 1193 q 200 1225 159 1225 q 264 1210 237 1225 q 314 1179 291 1196 q 357 1147 336 1162 q 399 1133 377 1133 q 434 1144 420 1133 q 456 1169 448 1154 q 467 1199 464 1184 q 471 1225 470 1214 l 510 1225 "},"ă":{"x_min":54.265625,"x_max":935.953125,"ha":978,"o":"m 472 758 q 565 747 522 758 q 640 720 607 736 q 697 687 673 705 q 735 655 721 670 q 781 685 756 672 q 830 708 805 698 q 880 722 855 717 q 927 729 905 727 l 935 706 q 887 671 908 695 q 853 613 868 650 q 836 518 837 577 q 835 446 835 483 q 835 372 835 408 q 834 303 834 336 q 833 244 834 270 q 833 203 833 219 q 833 184 833 187 q 848 88 833 125 q 883 31 864 52 q 933 -4 905 6 l 925 -26 q 853 -14 891 -25 q 779 13 815 -4 q 713 57 744 31 q 663 115 682 82 q 629 65 650 89 q 577 21 608 40 q 505 -9 547 2 q 411 -21 464 -21 q 256 10 322 -21 q 144 93 189 42 q 76 208 99 144 q 54 339 54 273 q 66 438 54 388 q 101 535 78 489 q 159 622 124 581 q 241 693 194 663 q 345 740 287 723 q 472 758 402 758 m 474 50 q 553 71 522 50 q 603 124 584 93 q 630 190 621 155 q 642 251 639 225 l 648 508 q 643 543 647 522 q 632 585 639 563 q 612 629 624 607 q 582 668 600 651 q 538 695 564 685 q 479 706 513 706 q 387 680 428 706 q 316 610 345 655 q 271 507 287 566 q 255 381 255 448 q 274 232 255 295 q 323 129 293 170 q 394 69 354 88 q 474 50 433 50 m 645 1000 q 629 931 642 964 q 593 872 615 898 q 540 831 570 847 q 473 816 509 816 q 406 832 436 816 q 355 873 376 847 q 320 932 333 900 q 305 1000 307 965 l 340 1000 q 368 954 351 974 q 409 923 384 937 q 473 909 434 909 q 542 923 515 909 q 584 954 568 937 q 610 1000 602 974 l 645 1000 "},"*":{"x_min":65.109375,"x_max":501.203125,"ha":567,"o":"m 501 766 l 324 744 l 458 636 l 352 555 l 282 712 l 212 555 l 107 636 l 240 744 l 65 766 l 105 890 l 257 794 l 216 972 l 348 972 l 308 794 l 458 890 l 501 766 "},"†":{"x_min":51.546875,"x_max":558.171875,"ha":610,"o":"m 212 834 l 212 1112 l 396 1112 l 396 834 l 558 834 l 558 743 l 396 743 l 396 -139 l 212 -139 l 212 743 l 51 743 l 51 834 l 212 834 "},"°":{"x_min":61.046875,"x_max":368.28125,"ha":429,"o":"m 368 840 q 356 780 368 808 q 323 731 343 752 q 274 698 302 710 q 213 686 246 686 q 153 698 181 686 q 105 731 126 710 q 72 780 84 752 q 61 840 61 808 q 72 900 61 872 q 105 949 84 928 q 153 982 126 969 q 213 994 181 994 q 273 982 245 994 q 322 949 301 969 q 356 900 343 928 q 368 840 368 872 m 284 840 q 278 896 284 874 q 260 930 271 918 q 237 948 250 943 q 213 952 225 952 q 189 946 202 952 q 167 926 177 940 q 150 891 157 912 q 144 840 144 870 q 150 790 144 811 q 167 755 157 769 q 189 734 177 741 q 213 727 202 727 q 238 734 225 727 q 261 754 250 741 q 278 789 271 768 q 284 840 284 811 "},"å":{"x_min":54.265625,"x_max":935.953125,"ha":978,"o":"m 472 758 q 565 747 522 758 q 640 720 607 736 q 697 687 673 705 q 735 655 721 670 q 781 685 756 672 q 830 708 805 698 q 880 722 855 717 q 927 729 905 727 l 935 706 q 887 671 908 695 q 853 613 868 650 q 836 518 837 577 q 835 446 835 483 q 835 372 835 408 q 834 303 834 336 q 833 244 834 270 q 833 203 833 219 q 833 184 833 187 q 848 88 833 125 q 883 31 864 52 q 933 -4 905 6 l 925 -26 q 853 -14 891 -25 q 779 13 815 -4 q 713 57 744 31 q 663 115 682 82 q 629 65 650 89 q 577 21 608 40 q 505 -9 547 2 q 411 -21 464 -21 q 256 10 322 -21 q 144 93 189 42 q 76 208 99 144 q 54 339 54 273 q 66 438 54 388 q 101 535 78 489 q 159 622 124 581 q 241 693 194 663 q 345 740 287 723 q 472 758 402 758 m 474 50 q 553 71 522 50 q 603 124 584 93 q 630 190 621 155 q 642 251 639 225 l 648 508 q 643 543 647 522 q 632 585 639 563 q 612 629 624 607 q 582 668 600 651 q 538 695 564 685 q 479 706 513 706 q 387 680 428 706 q 316 610 345 655 q 271 507 287 566 q 255 381 255 448 q 274 232 255 295 q 323 129 293 170 q 394 69 354 88 q 474 50 433 50 m 614 956 q 602 896 614 924 q 569 847 589 868 q 520 814 548 826 q 459 801 492 801 q 399 814 427 801 q 351 847 372 826 q 318 896 330 868 q 307 956 307 924 q 318 1016 307 988 q 351 1065 330 1044 q 399 1098 372 1086 q 459 1110 427 1110 q 519 1098 491 1110 q 568 1065 547 1086 q 602 1016 589 1044 q 614 956 614 988 m 530 956 q 524 1012 530 991 q 506 1047 517 1034 q 483 1064 496 1059 q 459 1069 471 1069 q 435 1062 448 1069 q 413 1042 423 1056 q 396 1007 403 1028 q 390 956 390 985 q 396 907 390 928 q 413 872 403 886 q 435 851 423 858 q 459 844 448 844 q 484 850 471 844 q 507 871 496 857 q 524 906 517 884 q 530 956 530 927 "},"0":{"x_min":67.828125,"x_max":1039.03125,"ha":1108,"o":"m 1039 366 q 1018 241 1039 297 q 963 142 998 185 q 880 68 927 99 q 779 18 832 37 q 667 -10 725 -1 q 554 -19 609 -19 q 436 -9 495 -19 q 323 20 377 0 q 222 72 269 41 q 141 147 175 104 q 87 244 107 189 q 67 365 67 299 q 87 487 67 432 q 141 584 107 541 q 223 658 176 627 q 324 710 270 689 q 438 740 379 730 q 558 750 498 750 q 674 740 615 750 q 786 711 732 731 q 885 660 839 691 q 965 587 931 629 q 1019 489 999 544 q 1039 366 1039 434 m 828 366 q 809 494 828 433 q 754 601 790 555 q 667 676 718 648 q 551 704 615 704 q 440 678 490 704 q 354 608 389 653 q 299 503 318 564 q 279 372 279 442 q 299 237 279 301 q 354 127 318 174 q 438 52 389 80 q 548 25 488 25 q 657 51 607 25 q 746 123 708 77 q 806 231 784 169 q 828 366 828 294 "},"ō":{"x_min":54.265625,"x_max":895.9375,"ha":952,"o":"m 54 364 q 65 452 54 406 q 98 540 75 497 q 154 622 120 583 q 235 689 189 660 q 341 735 282 718 q 473 752 400 752 q 610 737 549 752 q 717 694 670 721 q 798 629 764 666 q 853 548 832 592 q 885 458 875 505 q 895 364 895 411 q 885 273 895 319 q 853 185 875 227 q 797 104 831 142 q 717 39 764 67 q 609 -4 670 11 q 473 -21 548 -21 q 341 -5 400 -21 q 236 38 282 10 q 155 104 189 66 q 98 184 121 141 q 65 273 75 227 q 54 364 54 319 m 261 366 q 270 241 261 302 q 302 132 279 180 q 366 55 326 85 q 469 25 406 26 q 543 39 510 25 q 600 77 575 52 q 641 134 624 101 q 669 204 658 166 q 685 281 680 241 q 691 360 690 321 q 687 442 691 400 q 674 521 683 483 q 648 593 664 560 q 609 652 632 627 q 553 691 585 676 q 478 705 520 705 q 374 677 415 705 q 307 602 333 649 q 272 494 282 555 q 261 366 261 432 m 659 821 l 290 821 l 290 885 l 659 885 l 659 821 "},"”":{"x_min":62.390625,"x_max":518.15625,"ha":561,"o":"m 94 662 q 115 710 111 685 q 115 761 120 735 q 97 814 111 788 q 62 866 83 841 l 169 973 l 276 866 q 252 813 267 841 q 216 756 237 785 q 169 698 196 727 q 111 642 143 669 l 94 662 m 336 662 q 357 710 352 685 q 357 761 362 735 q 338 814 352 788 q 304 866 324 841 l 411 973 l 518 866 q 494 813 509 841 q 458 756 478 785 q 411 698 437 727 q 352 642 384 669 l 336 662 "},"ŵ":{"x_min":21.03125,"x_max":1309.640625,"ha":1350,"o":"m 921 729 l 1309 729 l 1309 704 q 1264 698 1282 704 q 1236 684 1247 693 q 1222 663 1226 675 q 1218 638 1218 651 l 1218 91 q 1221 69 1218 81 q 1235 48 1225 58 q 1263 31 1245 38 q 1309 25 1281 25 l 1309 0 l 1012 0 l 1012 75 q 976 37 996 54 q 932 6 956 19 q 880 -13 908 -6 q 817 -21 851 -21 q 743 -10 777 -21 q 680 20 708 0 q 631 66 653 39 q 594 126 609 93 q 558 70 579 96 q 510 23 537 44 q 446 -8 482 3 q 368 -21 411 -21 q 258 3 305 -21 q 178 70 210 27 q 129 168 145 112 q 112 287 112 224 l 112 637 q 108 659 112 647 q 94 680 105 670 q 66 697 84 690 q 21 704 48 704 l 21 729 l 408 729 l 408 704 q 363 698 381 704 q 335 684 345 693 q 320 663 324 675 q 316 638 316 651 l 316 245 q 324 157 316 193 q 347 99 333 121 q 380 66 361 76 q 421 56 399 56 q 474 72 448 56 q 519 122 500 88 q 550 208 539 155 q 562 335 562 261 l 562 637 q 558 659 562 647 q 544 680 554 670 q 516 697 534 690 q 470 704 499 704 l 470 729 l 858 729 l 858 704 q 812 698 830 704 q 784 682 794 692 q 770 660 773 672 q 766 633 766 647 l 766 245 q 774 157 766 193 q 796 99 782 121 q 830 66 811 76 q 870 56 849 56 q 922 71 897 56 q 967 115 948 85 q 999 193 987 146 q 1011 307 1011 240 l 1011 645 q 1006 666 1011 655 q 990 684 1001 676 q 963 698 980 693 q 921 704 946 704 l 921 729 m 852 801 l 738 801 l 640 935 l 552 801 l 496 801 l 626 1000 l 718 1000 l 852 801 "},"Ķ":{"x_min":46.125,"x_max":1152.984375,"ha":1120,"o":"m 499 0 l 46 0 l 46 25 q 105 32 82 25 q 141 51 128 39 q 160 80 155 64 q 165 115 165 96 l 165 1134 q 160 1163 165 1148 q 142 1192 155 1179 q 105 1214 128 1205 q 46 1223 82 1223 l 46 1248 l 380 1248 l 380 119 q 384 89 380 105 q 401 59 389 73 q 437 34 414 44 q 499 25 461 25 l 499 0 m 1152 8 q 1038 -25 1091 -16 q 942 -34 984 -34 q 826 -11 881 -34 q 722 49 771 11 q 629 136 673 87 q 546 236 585 185 q 473 337 507 287 q 409 427 439 387 q 555 557 486 488 q 614 620 584 586 q 672 692 644 655 q 722 770 699 730 q 760 852 746 811 q 763 859 762 855 q 763 866 763 862 q 757 893 763 878 q 736 919 750 907 q 698 939 721 931 q 641 947 674 947 l 641 972 l 1013 972 q 951 808 991 883 q 858 672 910 733 q 747 564 807 611 q 625 483 687 517 q 772 310 704 393 q 896 164 839 227 q 998 64 952 101 q 1080 26 1044 26 q 1106 28 1089 26 q 1143 38 1123 30 l 1152 8 m 498 -318 q 516 -279 512 -299 q 516 -238 520 -259 q 501 -195 513 -217 q 474 -153 490 -174 l 559 -69 l 645 -153 q 596 -242 630 -194 q 513 -333 563 -290 l 498 -318 "},"ö":{"x_min":54.265625,"x_max":895.9375,"ha":952,"o":"m 54 364 q 65 452 54 406 q 98 540 75 497 q 154 622 120 583 q 235 689 189 660 q 341 735 282 718 q 473 752 400 752 q 610 737 549 752 q 717 694 670 721 q 798 629 764 666 q 853 548 832 592 q 885 458 875 505 q 895 364 895 411 q 885 273 895 319 q 853 185 875 227 q 797 104 831 142 q 717 39 764 67 q 609 -4 670 11 q 473 -21 548 -21 q 341 -5 400 -21 q 236 38 282 10 q 155 104 189 66 q 98 184 121 141 q 65 273 75 227 q 54 364 54 319 m 261 366 q 270 241 261 302 q 302 132 279 180 q 366 55 326 85 q 469 25 406 26 q 543 39 510 25 q 600 77 575 52 q 641 134 624 101 q 669 204 658 166 q 685 281 680 241 q 691 360 690 321 q 687 442 691 400 q 674 521 683 483 q 648 593 664 560 q 609 652 632 627 q 553 691 585 676 q 478 705 520 705 q 374 677 415 705 q 307 602 333 649 q 272 494 282 555 q 261 366 261 432 m 434 894 q 429 864 434 878 q 413 839 423 849 q 389 822 403 828 q 359 816 375 816 q 328 822 342 816 q 303 839 314 828 q 287 864 293 849 q 281 894 281 878 q 287 924 281 910 q 303 949 293 938 q 328 966 314 959 q 359 972 342 972 q 389 966 375 972 q 413 949 403 959 q 429 924 423 938 q 434 894 434 910 m 668 894 q 662 864 668 878 q 646 839 656 849 q 622 822 636 828 q 592 816 608 816 q 561 822 576 816 q 537 839 547 828 q 520 864 526 849 q 514 894 514 878 q 520 924 514 910 q 537 949 526 938 q 561 966 547 959 q 592 972 576 972 q 622 966 608 972 q 646 949 636 959 q 662 924 656 938 q 668 894 668 910 "},"ǽ":{"x_min":41.375,"x_max":1454.109375,"ha":1495,"o":"m 857 423 q 855 395 855 408 q 855 366 855 381 q 864 241 855 302 q 894 132 872 180 q 955 55 916 85 q 1057 25 994 26 q 1128 37 1097 25 q 1183 73 1159 50 q 1224 126 1207 96 q 1252 193 1241 157 l 1412 139 q 1354 75 1388 104 q 1277 24 1321 46 q 1179 -8 1233 3 q 1061 -21 1125 -21 q 874 13 952 -21 q 744 103 795 47 q 685 53 718 75 q 612 13 652 30 q 525 -11 573 -2 q 423 -21 478 -21 q 279 -11 348 -21 q 157 18 210 -2 q 72 75 104 40 q 41 164 41 111 q 62 233 41 204 q 117 283 83 262 q 194 318 151 304 q 281 343 237 333 q 365 360 324 353 q 434 375 405 368 q 509 397 476 385 q 567 422 542 410 q 608 446 592 435 q 634 466 625 458 q 616 556 629 513 q 581 632 604 599 q 523 685 558 665 q 438 706 489 705 q 367 693 398 706 q 311 658 335 680 q 271 604 288 635 q 242 539 254 574 l 83 592 q 141 656 107 627 q 219 707 175 685 q 315 740 262 728 q 432 752 368 752 q 616 719 538 752 q 746 633 693 686 q 801 681 770 659 q 869 719 832 703 q 951 744 906 735 q 1047 752 995 752 q 1228 726 1153 752 q 1352 654 1304 699 q 1424 550 1400 609 q 1454 423 1448 490 l 857 423 m 640 376 q 640 393 640 384 q 638 409 640 401 q 577 371 619 392 q 461 327 535 350 q 384 304 421 315 q 317 276 346 293 q 269 234 287 259 q 251 169 251 208 q 269 95 251 123 q 315 52 288 67 q 373 31 342 36 q 429 26 404 26 q 523 54 483 26 q 589 129 562 82 q 627 241 615 177 q 640 376 640 305 m 1051 705 q 967 687 1001 705 q 911 636 933 668 q 876 561 889 604 q 859 469 864 518 l 1241 469 q 1227 560 1237 518 q 1195 635 1216 603 q 1139 686 1174 668 q 1051 705 1104 705 m 1003 1000 l 789 801 l 716 801 l 850 1000 l 1003 1000 "},"Ļ":{"x_min":46.125,"x_max":873.546875,"ha":842,"o":"m 46 1248 l 380 1248 l 380 52 l 873 52 q 830 -5 847 27 q 801 -69 812 -38 q 781 -141 789 -105 l 750 -148 q 754 -124 753 -136 q 755 -101 755 -111 q 727 -35 755 -56 q 647 -5 699 -13 q 519 1 594 2 q 349 0 444 0 l 46 0 l 46 25 q 105 32 82 25 q 141 51 128 39 q 160 80 155 64 q 165 115 165 96 l 165 1134 q 160 1163 165 1148 q 142 1192 155 1179 q 105 1214 128 1205 q 46 1223 82 1223 l 46 1248 m 359 -318 q 377 -279 373 -299 q 377 -238 381 -259 q 362 -195 374 -217 q 335 -153 351 -174 l 420 -69 l 506 -153 q 457 -242 491 -194 q 374 -333 424 -290 l 359 -318 "},"Õ":{"x_min":65.109375,"x_max":1129.234375,"ha":1194,"o":"m 65 486 q 80 601 65 542 q 126 716 96 661 q 202 820 157 771 q 306 906 247 870 q 437 964 364 943 q 594 986 510 986 q 755 966 682 986 q 888 912 829 946 q 993 830 948 877 q 1068 727 1038 782 q 1113 610 1098 672 q 1129 486 1129 548 q 1113 365 1129 426 q 1068 247 1098 304 q 993 140 1038 190 q 888 52 948 90 q 755 -6 829 15 q 594 -27 682 -27 q 436 -6 508 -27 q 304 52 363 14 q 201 139 246 89 q 126 246 156 189 q 80 365 95 303 q 65 486 65 426 m 298 489 q 304 375 298 431 q 325 267 311 318 q 362 172 339 216 q 417 96 385 128 q 493 44 450 63 q 590 25 535 25 q 688 44 644 25 q 766 96 732 63 q 824 174 800 130 q 865 270 849 219 q 889 375 881 320 q 898 482 897 430 q 892 590 898 535 q 871 694 885 644 q 833 787 856 744 q 777 863 810 830 q 700 913 744 895 q 601 931 657 931 q 504 915 547 931 q 427 869 461 899 q 369 798 394 839 q 330 708 345 758 q 306 603 314 659 q 298 489 299 548 m 826 1226 q 813 1159 823 1192 q 784 1100 802 1126 q 740 1057 766 1074 q 680 1041 713 1041 q 611 1056 639 1041 q 560 1088 583 1070 q 517 1119 537 1105 q 472 1134 496 1134 q 435 1123 448 1134 q 414 1097 421 1112 q 405 1067 407 1083 q 403 1041 403 1051 l 368 1041 q 377 1109 369 1076 q 402 1168 385 1142 q 447 1210 419 1194 q 516 1226 475 1226 q 580 1211 553 1226 q 630 1180 607 1197 q 673 1148 652 1163 q 715 1134 693 1134 q 750 1145 736 1134 q 772 1170 764 1155 q 783 1200 780 1185 q 787 1226 786 1215 l 826 1226 "},"ć":{"x_min":58.328125,"x_max":769.78125,"ha":821,"o":"m 769 547 l 747 545 q 707 602 731 577 q 653 645 682 628 q 591 671 623 662 q 529 680 559 680 q 419 650 468 680 q 336 571 370 619 q 282 462 301 522 q 263 343 263 402 q 284 223 263 280 q 344 122 305 166 q 438 52 383 78 q 563 26 494 26 q 658 42 620 26 q 718 78 695 58 q 751 115 741 98 q 765 137 762 133 l 755 58 q 719 25 743 40 q 664 -2 696 9 q 594 -20 633 -13 q 511 -26 555 -26 q 327 -5 410 -26 q 184 60 244 16 q 91 169 124 103 q 58 324 58 236 q 80 465 60 404 q 137 572 101 526 q 222 648 172 617 q 333 697 272 678 q 463 724 393 716 q 609 731 533 731 q 697 730 659 731 q 766 729 735 729 q 757 678 760 705 q 755 634 755 652 q 759 590 755 611 q 769 547 763 569 m 730 1000 l 516 801 l 443 801 l 577 1000 l 730 1000 "},"þ":{"x_min":16.953125,"x_max":855.921875,"ha":913,"o":"m 16 973 l 307 973 l 307 729 l 347 729 q 463 721 403 729 q 579 695 522 713 q 686 649 635 678 q 774 579 736 621 q 833 483 811 538 q 855 356 855 427 q 826 206 855 275 q 744 86 797 137 q 618 7 691 35 q 457 -21 545 -21 q 378 -12 410 -21 q 322 10 347 -3 l 383 56 q 419 29 400 37 q 467 21 439 21 q 541 43 507 21 q 599 107 575 65 q 637 212 623 150 q 651 355 651 275 q 635 476 651 425 q 592 565 619 528 q 533 625 566 602 q 466 662 500 649 q 401 681 432 676 q 348 686 370 686 l 307 686 l 307 -179 q 310 -201 307 -189 q 322 -224 313 -213 q 349 -242 332 -235 q 397 -250 367 -250 l 397 -275 l 16 -275 l 16 -250 q 62 -244 44 -250 q 91 -228 80 -238 q 105 -206 101 -219 q 109 -179 109 -193 l 109 883 q 106 906 109 893 q 92 929 103 918 q 64 947 82 940 q 16 954 46 954 l 16 973 "},"]":{"x_min":29.15625,"x_max":377.765625,"ha":500,"o":"m 29 -88 l 184 -88 l 184 1061 l 29 1061 l 29 1110 l 377 1110 l 377 -139 l 29 -139 l 29 -88 "},"ẁ":{"x_min":21.03125,"x_max":1309.640625,"ha":1350,"o":"m 921 729 l 1309 729 l 1309 704 q 1264 698 1282 704 q 1236 684 1247 693 q 1222 663 1226 675 q 1218 638 1218 651 l 1218 91 q 1221 69 1218 81 q 1235 48 1225 58 q 1263 31 1245 38 q 1309 25 1281 25 l 1309 0 l 1012 0 l 1012 75 q 976 37 996 54 q 932 6 956 19 q 880 -13 908 -6 q 817 -21 851 -21 q 743 -10 777 -21 q 680 20 708 0 q 631 66 653 39 q 594 126 609 93 q 558 70 579 96 q 510 23 537 44 q 446 -8 482 3 q 368 -21 411 -21 q 258 3 305 -21 q 178 70 210 27 q 129 168 145 112 q 112 287 112 224 l 112 637 q 108 659 112 647 q 94 680 105 670 q 66 697 84 690 q 21 704 48 704 l 21 729 l 408 729 l 408 704 q 363 698 381 704 q 335 684 345 693 q 320 663 324 675 q 316 638 316 651 l 316 245 q 324 157 316 193 q 347 99 333 121 q 380 66 361 76 q 421 56 399 56 q 474 72 448 56 q 519 122 500 88 q 550 208 539 155 q 562 335 562 261 l 562 637 q 558 659 562 647 q 544 680 554 670 q 516 697 534 690 q 470 704 499 704 l 470 729 l 858 729 l 858 704 q 812 698 830 704 q 784 682 794 692 q 770 660 773 672 q 766 633 766 647 l 766 245 q 774 157 766 193 q 796 99 782 121 q 830 66 811 76 q 870 56 849 56 q 922 71 897 56 q 967 115 948 85 q 999 193 987 146 q 1011 307 1011 240 l 1011 645 q 1006 666 1011 655 q 990 684 1001 676 q 963 698 980 693 q 921 704 946 704 l 921 729 m 563 1000 l 698 801 l 624 801 l 411 1000 l 563 1000 "},"ĭ":{"x_min":40.015625,"x_max":421.171875,"ha":461,"o":"m 421 0 l 40 0 l 40 25 q 86 30 68 25 q 114 46 104 36 q 128 68 124 56 q 132 95 132 81 l 132 632 q 128 654 132 642 q 115 677 125 667 q 87 695 105 688 q 40 702 69 702 l 40 729 l 421 729 l 421 702 q 376 697 394 702 q 347 682 358 691 q 333 662 337 674 q 328 637 328 650 l 328 95 q 332 73 328 85 q 345 50 335 61 q 373 32 355 40 q 421 25 391 25 l 421 0 m 400 985 q 384 916 397 949 q 348 857 370 883 q 295 816 325 832 q 228 801 264 801 q 161 817 191 801 q 110 858 131 832 q 75 917 88 885 q 60 985 62 950 l 95 985 q 123 939 106 959 q 164 908 139 922 q 228 894 189 894 q 297 908 270 894 q 339 939 323 922 q 365 985 357 959 l 400 985 "},"8":{"x_min":65.109375,"x_max":994.28125,"ha":1060,"o":"m 781 279 q 763 380 781 335 q 710 455 744 424 q 630 503 676 486 q 526 519 583 519 q 430 501 476 519 q 350 452 385 484 q 296 376 316 421 q 276 279 276 332 q 291 180 276 226 q 337 99 306 133 q 415 44 368 64 q 526 25 461 25 q 641 45 593 25 q 721 100 690 65 q 767 181 752 135 q 781 279 781 227 m 351 551 q 272 575 309 557 q 207 620 236 594 q 163 678 179 647 q 147 741 147 710 q 164 829 147 791 q 209 895 181 867 q 276 941 238 923 q 356 971 314 960 q 442 988 398 983 q 526 992 486 992 q 611 988 567 992 q 697 973 655 984 q 778 944 740 963 q 846 898 817 926 q 892 831 875 870 q 909 741 909 793 q 892 679 909 710 q 848 621 876 647 q 786 576 821 594 q 712 551 750 557 q 814 523 764 545 q 904 465 864 501 q 969 383 944 430 q 994 286 994 337 q 973 171 994 220 q 918 89 953 123 q 836 34 883 55 q 738 1 790 12 q 631 -15 686 -10 q 526 -19 577 -19 q 424 -14 477 -19 q 319 4 370 -8 q 222 40 268 18 q 141 96 176 63 q 85 177 106 130 q 65 286 65 224 q 91 384 65 338 q 158 466 117 430 q 250 524 200 501 q 351 551 301 546 m 526 947 q 451 933 484 947 q 393 893 417 918 q 356 832 369 868 q 343 755 343 797 q 355 677 343 713 q 390 615 367 641 q 448 573 414 588 q 526 558 482 558 q 609 573 573 558 q 667 614 644 588 q 702 676 691 640 q 714 755 714 712 q 701 835 714 799 q 663 895 688 870 q 604 933 639 920 q 526 947 569 947 "},"R":{"x_min":54.265625,"x_max":1062.78125,"ha":1067,"o":"m 1062 8 q 951 -25 1001 -16 q 864 -34 902 -34 q 769 -9 816 -34 q 678 54 722 15 q 596 141 634 93 q 526 233 557 188 q 474 316 495 279 q 444 372 453 354 q 598 423 530 386 q 655 462 627 440 q 704 515 682 484 q 739 585 726 545 q 752 674 752 624 q 741 757 752 720 q 710 823 729 794 q 666 872 691 851 q 614 906 641 893 q 559 926 587 920 q 508 933 532 933 q 449 925 472 933 q 412 905 425 918 q 393 876 398 893 q 388 841 388 859 l 388 119 q 393 89 388 105 q 409 59 397 73 q 446 34 422 44 q 508 25 470 25 l 508 0 l 54 0 l 54 25 q 113 32 90 25 q 149 51 136 39 q 168 80 163 64 q 173 115 173 96 l 173 858 q 168 887 173 872 q 150 916 163 903 q 113 938 137 929 q 54 947 90 947 l 54 972 l 508 972 q 690 955 604 972 q 839 902 775 938 q 941 809 904 866 q 979 673 979 752 q 951 556 979 606 q 879 470 924 505 q 776 410 834 434 q 659 373 719 387 q 710 289 682 331 q 769 208 738 247 q 830 137 799 170 q 890 79 861 103 q 945 40 919 54 q 990 26 970 26 q 1016 28 999 26 q 1052 38 1032 30 l 1062 8 "},"ť":{"x_min":34.59375,"x_max":1097.09375,"ha":1132,"o":"m 34 686 q 58 760 53 723 q 63 825 63 797 q 63 838 63 832 q 63 848 63 844 q 62 857 62 853 l 87 861 q 104 809 89 830 q 140 772 118 787 q 187 749 161 758 q 238 736 212 740 q 284 730 263 731 q 319 729 305 729 l 849 729 q 826 654 831 691 q 820 590 820 617 q 820 576 820 582 q 821 567 820 571 q 822 558 821 562 l 797 554 q 780 606 794 584 q 744 642 765 628 q 697 666 722 657 q 646 679 671 674 q 600 685 621 683 q 565 686 578 686 l 552 686 q 437 654 488 682 q 352 580 387 626 q 298 476 317 535 q 279 352 280 417 q 290 228 279 288 q 324 124 301 169 q 387 51 348 78 q 480 25 425 25 q 550 37 520 25 q 600 73 579 50 q 636 126 621 96 q 662 193 651 157 l 822 139 q 766 75 797 104 q 693 24 734 46 q 600 -8 652 3 q 484 -21 549 -21 q 359 -6 416 -21 q 258 35 303 8 q 179 97 212 61 q 123 174 145 132 q 90 260 101 215 q 79 349 79 305 q 96 458 79 406 q 145 552 113 509 q 225 629 177 595 q 333 686 272 663 l 34 686 m 951 819 q 968 856 964 836 q 968 897 972 876 q 953 940 964 918 q 926 982 942 961 l 1012 1068 l 1097 982 q 1049 893 1083 941 q 964 803 1015 845 l 951 819 "},"Ľ":{"x_min":46.125,"x_max":873.546875,"ha":842,"o":"m 46 1248 l 380 1248 l 380 52 l 873 52 q 830 -5 847 27 q 801 -69 812 -38 q 781 -141 789 -105 l 750 -148 q 754 -124 753 -136 q 755 -101 755 -111 q 727 -35 755 -56 q 647 -5 699 -13 q 519 1 594 2 q 349 0 444 0 l 46 0 l 46 25 q 105 32 82 25 q 141 51 128 39 q 160 80 155 64 q 165 115 165 96 l 165 1134 q 160 1163 165 1148 q 142 1192 155 1179 q 105 1214 128 1205 q 46 1223 82 1223 l 46 1248 m 510 1113 q 527 1150 523 1130 q 527 1191 531 1170 q 512 1234 523 1212 q 485 1276 501 1255 l 571 1362 l 656 1276 q 608 1187 642 1235 q 523 1097 574 1139 l 510 1113 "},"Ż":{"x_min":40.015625,"x_max":931.875,"ha":973,"o":"m 54 0 l 40 37 l 40 38 l 41 38 l 712 933 l 341 933 q 266 927 305 933 q 193 905 227 921 q 134 861 159 889 q 99 787 109 832 l 76 791 q 75 812 76 794 q 71 857 75 830 q 61 914 68 883 q 40 972 53 945 l 916 972 l 930 933 l 252 38 l 630 38 q 706 44 667 38 q 778 66 744 50 q 837 110 812 82 q 872 184 862 139 l 895 180 q 896 159 895 177 q 900 114 897 141 q 911 57 904 88 q 931 0 918 27 l 54 0 m 561 1119 q 556 1089 561 1103 q 540 1064 550 1074 q 516 1047 530 1053 q 486 1041 502 1041 q 455 1047 469 1041 q 430 1064 441 1053 q 414 1089 420 1074 q 408 1119 408 1103 q 414 1149 408 1135 q 430 1174 420 1163 q 455 1191 441 1184 q 486 1197 469 1197 q 516 1191 502 1197 q 540 1174 530 1184 q 556 1149 550 1163 q 561 1119 561 1135 "},"o":{"x_min":54.265625,"x_max":895.9375,"ha":952,"o":"m 54 364 q 65 452 54 406 q 98 540 75 497 q 154 622 120 583 q 235 689 189 660 q 341 735 282 718 q 473 752 400 752 q 610 737 549 752 q 717 694 670 721 q 798 629 764 666 q 853 548 832 592 q 885 458 875 505 q 895 364 895 411 q 885 273 895 319 q 853 185 875 227 q 797 104 831 142 q 717 39 764 67 q 609 -4 670 11 q 473 -21 548 -21 q 341 -5 400 -21 q 236 38 282 10 q 155 104 189 66 q 98 184 121 141 q 65 273 75 227 q 54 364 54 319 m 261 366 q 270 241 261 302 q 302 132 279 180 q 366 55 326 85 q 469 25 406 26 q 543 39 510 25 q 600 77 575 52 q 641 134 624 101 q 669 204 658 166 q 685 281 680 241 q 691 360 690 321 q 687 442 691 400 q 674 521 683 483 q 648 593 664 560 q 609 652 632 627 q 553 691 585 676 q 478 705 520 705 q 374 677 415 705 q 307 602 333 649 q 272 494 282 555 q 261 366 261 432 "},"5":{"x_min":19.671875,"x_max":947.484375,"ha":992,"o":"m 947 66 q 926 -49 947 0 q 870 -137 906 -100 q 789 -199 835 -174 q 690 -238 742 -223 q 582 -260 637 -253 q 476 -266 527 -266 q 339 -252 408 -266 q 208 -210 269 -238 q 96 -140 146 -183 q 19 -41 47 -98 l 176 33 q 214 -59 188 -13 q 278 -141 240 -105 q 366 -200 316 -177 q 476 -222 415 -222 q 564 -207 518 -222 q 650 -158 611 -191 q 715 -73 689 -125 q 740 52 740 -21 q 724 166 740 116 q 675 252 708 217 q 592 306 642 287 q 476 324 543 324 q 409 319 442 324 q 344 305 376 314 q 284 286 313 297 q 229 263 255 275 q 118 202 170 236 l 221 729 l 873 729 q 852 671 859 701 q 842 614 845 640 q 838 569 838 588 q 837 548 837 551 l 813 544 q 779 618 804 590 q 720 662 754 647 q 647 684 686 678 q 572 690 609 690 l 393 690 l 333 347 q 403 366 370 360 q 476 372 436 372 q 637 359 567 372 q 759 323 707 345 q 847 270 811 300 q 905 206 883 240 q 937 136 927 172 q 947 66 947 100 "},"ħ":{"x_min":0,"x_max":934.59375,"ha":957,"o":"m 422 0 l 33 0 l 33 25 q 79 30 61 25 q 107 46 96 36 q 121 68 117 56 q 124 95 124 81 l 124 273 l 0 273 l 0 365 l 124 365 l 124 844 q 121 866 124 854 q 107 887 117 877 q 79 904 96 897 q 33 910 61 910 l 33 935 l 330 935 l 330 607 q 362 653 343 630 q 407 695 381 676 q 464 728 432 714 q 537 750 497 742 q 639 753 594 760 q 718 727 684 746 q 775 679 752 708 q 814 613 799 649 q 836 537 829 577 q 843 455 843 496 l 843 95 q 846 73 843 85 q 859 50 849 61 q 886 32 868 40 q 934 25 904 25 l 934 0 l 554 0 l 554 25 q 600 30 582 25 q 628 46 617 36 q 641 68 638 56 q 645 95 645 81 l 645 497 q 633 586 645 550 q 600 644 621 623 q 553 672 580 666 q 495 672 526 679 q 422 636 453 661 q 372 575 392 611 q 341 495 352 539 q 330 404 331 451 l 330 365 l 458 365 l 458 273 l 330 273 l 330 95 q 333 73 330 85 q 346 50 337 61 q 374 32 356 40 q 422 25 392 25 l 422 0 "},"õ":{"x_min":54.265625,"x_max":895.9375,"ha":952,"o":"m 54 364 q 65 452 54 406 q 98 540 75 497 q 154 622 120 583 q 235 689 189 660 q 341 735 282 718 q 473 752 400 752 q 610 737 549 752 q 717 694 670 721 q 798 629 764 666 q 853 548 832 592 q 885 458 875 505 q 895 364 895 411 q 885 273 895 319 q 853 185 875 227 q 797 104 831 142 q 717 39 764 67 q 609 -4 670 11 q 473 -21 548 -21 q 341 -5 400 -21 q 236 38 282 10 q 155 104 189 66 q 98 184 121 141 q 65 273 75 227 q 54 364 54 319 m 261 366 q 270 241 261 302 q 302 132 279 180 q 366 55 326 85 q 469 25 406 26 q 543 39 510 25 q 600 77 575 52 q 641 134 624 101 q 669 204 658 166 q 685 281 680 241 q 691 360 690 321 q 687 442 691 400 q 674 521 683 483 q 648 593 664 560 q 609 652 632 627 q 553 691 585 676 q 478 705 520 705 q 374 677 415 705 q 307 602 333 649 q 272 494 282 555 q 261 366 261 432 m 704 986 q 691 919 701 952 q 662 860 680 886 q 618 817 644 834 q 558 801 591 801 q 489 816 517 801 q 438 848 461 830 q 395 879 415 865 q 350 894 374 894 q 313 883 326 894 q 292 857 299 872 q 283 827 285 843 q 281 801 281 811 l 246 801 q 255 869 247 836 q 280 928 263 902 q 325 970 297 954 q 394 986 353 986 q 458 971 431 986 q 508 940 485 957 q 551 908 530 923 q 593 894 571 894 q 628 905 614 894 q 650 930 642 915 q 661 960 658 945 q 665 986 664 975 l 704 986 "},",":{"x_min":58.328125,"x_max":271.96875,"ha":334,"o":"m 90 -133 q 111 -86 107 -111 q 111 -34 116 -61 q 93 18 107 -8 q 58 70 79 44 l 165 177 l 271 70 q 248 16 263 44 q 212 -40 233 -10 q 165 -97 191 -69 q 107 -152 139 -126 l 90 -133 "},"d":{"x_min":55.609375,"x_max":965.109375,"ha":999,"o":"m 676 109 q 636 62 659 85 q 579 20 612 38 q 505 -9 547 1 q 412 -21 464 -21 q 257 10 324 -21 q 145 93 190 42 q 78 208 101 144 q 55 339 55 273 q 65 438 55 388 q 95 535 75 489 q 147 622 115 581 q 221 693 178 663 q 320 740 265 723 q 445 758 376 758 q 519 751 484 758 q 582 734 554 745 q 635 711 611 724 q 676 685 658 697 l 676 976 q 672 998 676 986 q 658 1020 668 1010 q 630 1036 648 1030 q 584 1043 613 1043 l 584 1069 l 873 1069 l 873 91 q 877 69 873 81 q 891 48 881 58 q 919 31 901 38 q 965 25 937 25 l 965 0 l 676 0 l 676 109 m 462 50 q 539 66 506 50 q 596 107 573 82 q 635 161 620 131 q 660 217 651 190 q 672 264 669 244 q 676 290 676 284 l 676 555 l 623 484 q 602 595 620 546 q 581 636 594 616 q 551 672 569 656 q 509 697 533 687 q 453 706 484 706 q 364 680 402 706 q 303 610 327 655 q 268 507 280 566 q 257 381 257 448 q 273 232 257 295 q 318 129 290 170 q 383 69 345 88 q 462 50 420 50 "},"\"":{"x_min":67.828125,"x_max":412.359375,"ha":482,"o":"m 181 672 l 109 672 l 67 972 l 221 972 l 181 672 m 373 672 l 301 672 l 259 972 l 412 972 l 373 672 "},"˙":{"x_min":0,"x_max":153.953125,"ha":154,"o":"m 153 894 q 148 864 153 878 q 132 839 142 849 q 108 822 122 828 q 78 816 94 816 q 47 822 61 816 q 22 839 33 828 q 6 864 12 849 q 0 894 0 878 q 6 924 0 910 q 22 949 12 938 q 47 966 33 959 q 78 972 61 972 q 108 966 94 972 q 132 949 122 959 q 148 924 142 938 q 153 894 153 910 "},"ê":{"x_min":54.265625,"x_max":866.765625,"ha":907,"o":"m 269 423 q 267 395 267 408 q 267 366 267 381 q 276 241 267 302 q 306 132 284 180 q 367 55 328 85 q 469 25 406 26 q 540 37 509 25 q 596 73 572 50 q 636 126 619 96 q 665 193 653 157 l 825 139 q 767 75 800 104 q 689 24 733 46 q 591 -8 645 3 q 473 -21 537 -21 q 341 -5 400 -21 q 236 38 282 10 q 155 104 189 66 q 98 184 121 141 q 65 273 75 227 q 54 364 54 319 q 64 452 54 406 q 94 540 73 497 q 148 622 115 583 q 225 689 180 660 q 328 735 270 718 q 459 752 387 752 q 641 726 566 752 q 764 654 716 699 q 837 550 813 609 q 866 423 861 490 l 269 423 m 463 705 q 380 687 414 705 q 323 636 345 668 q 289 561 301 604 q 271 469 277 518 l 654 469 q 639 560 650 518 q 608 635 629 603 q 551 686 586 668 q 463 705 516 705 m 661 801 l 547 801 l 449 935 l 361 801 l 305 801 l 435 1000 l 527 1000 l 661 801 "},"„":{"x_min":58.328125,"x_max":514.09375,"ha":575,"o":"m 90 -133 q 111 -86 107 -111 q 111 -34 116 -61 q 93 18 107 -8 q 58 70 79 44 l 165 177 l 271 70 q 248 16 263 44 q 212 -40 233 -10 q 165 -97 191 -69 q 107 -152 139 -126 l 90 -133 m 331 -133 q 353 -86 348 -111 q 353 -34 358 -61 q 334 18 348 -8 q 299 70 320 44 l 406 177 l 514 70 q 490 16 505 44 q 454 -40 474 -10 q 406 -97 433 -69 q 348 -152 380 -126 l 331 -133 "},"ľ":{"x_min":33.234375,"x_max":575.09375,"ha":610,"o":"m 33 25 q 77 30 59 25 q 105 44 94 35 q 120 64 115 52 q 124 90 124 76 l 124 976 q 121 998 124 986 q 107 1020 117 1010 q 79 1036 96 1030 q 33 1043 61 1043 l 33 1069 l 322 1069 l 322 91 q 325 69 322 81 q 339 48 329 58 q 367 31 349 38 q 413 25 385 25 l 413 0 l 33 0 l 33 25 m 429 819 q 446 856 442 836 q 446 897 450 876 q 431 940 442 918 q 404 982 420 961 l 490 1068 l 575 982 q 527 893 561 941 q 442 803 493 845 l 429 819 "},"Â":{"x_min":-2.71875,"x_max":1180.78125,"ha":1104,"o":"m 1180 35 q 1068 2 1119 10 q 976 -6 1017 -6 q 920 -3 944 -6 q 879 6 896 0 q 845 19 859 12 q 793 63 815 36 q 753 122 771 90 q 720 186 735 153 q 693 248 706 219 l 676 284 q 548 239 607 265 q 442 189 489 214 q 365 144 396 164 q 320 113 333 123 q 264 64 295 86 q 194 27 233 42 q 108 4 155 12 q 4 -4 61 -4 l -2 25 q 110 67 63 35 q 193 144 158 98 q 252 247 227 189 q 295 368 276 304 q 324 445 306 404 q 367 524 342 486 q 426 596 393 562 q 501 653 459 630 q 478 697 489 674 q 457 743 467 720 q 428 803 442 770 q 395 864 414 836 q 349 911 375 892 q 284 930 323 930 q 231 924 257 930 q 181 909 205 918 l 172 937 q 291 970 231 956 q 412 984 352 984 q 468 981 440 984 q 522 967 496 977 q 565 941 544 959 q 605 896 586 922 q 641 842 624 871 q 672 784 657 813 q 698 728 687 754 q 719 683 710 702 q 838 426 779 555 q 965 173 897 298 q 991 129 977 151 q 1022 90 1005 107 q 1060 63 1039 73 q 1108 54 1081 53 q 1134 56 1117 54 q 1170 66 1150 58 l 1180 35 m 539 575 q 506 516 521 546 q 480 454 492 485 q 457 391 467 422 q 437 331 447 360 q 415 270 427 300 q 388 213 403 241 q 507 276 439 243 q 654 331 576 308 l 539 575 m 715 1041 l 601 1041 l 503 1175 l 415 1041 l 359 1041 l 489 1240 l 581 1240 l 715 1041 "},"Į":{"x_min":54.265625,"x_max":508.671875,"ha":562,"o":"m 430 -151 q 420 -202 430 -178 q 392 -244 410 -226 q 350 -272 374 -262 q 299 -283 326 -283 q 236 -272 265 -283 q 186 -242 207 -261 q 153 -193 165 -222 q 141 -130 141 -165 q 148 -94 141 -112 q 166 -58 154 -75 q 193 -26 177 -41 q 227 0 208 -11 l 54 0 l 54 25 q 114 32 90 25 q 150 53 137 40 q 168 83 164 66 q 173 119 173 100 l 173 858 q 168 887 173 872 q 150 916 163 903 q 113 938 137 929 q 54 947 90 947 l 54 972 l 508 972 l 508 947 q 447 939 471 947 q 411 918 424 931 q 393 888 398 905 q 388 852 388 871 l 388 119 q 393 89 388 105 q 409 59 397 73 q 446 34 422 44 q 508 25 470 25 l 508 0 l 295 0 q 244 -61 260 -25 q 229 -130 229 -96 q 235 -178 229 -157 q 251 -214 241 -200 q 275 -237 261 -229 q 302 -245 288 -245 q 343 -234 326 -245 q 372 -208 360 -223 q 389 -177 383 -193 q 396 -151 395 -161 l 430 -151 "},"ė":{"x_min":54.265625,"x_max":866.765625,"ha":907,"o":"m 269 423 q 267 395 267 408 q 267 366 267 381 q 276 241 267 302 q 306 132 284 180 q 367 55 328 85 q 469 25 406 26 q 540 37 509 25 q 596 73 572 50 q 636 126 619 96 q 665 193 653 157 l 825 139 q 767 75 800 104 q 689 24 733 46 q 591 -8 645 3 q 473 -21 537 -21 q 341 -5 400 -21 q 236 38 282 10 q 155 104 189 66 q 98 184 121 141 q 65 273 75 227 q 54 364 54 319 q 64 452 54 406 q 94 540 73 497 q 148 622 115 583 q 225 689 180 660 q 328 735 270 718 q 459 752 387 752 q 641 726 566 752 q 764 654 716 699 q 837 550 813 609 q 866 423 861 490 l 269 423 m 463 705 q 380 687 414 705 q 323 636 345 668 q 289 561 301 604 q 271 469 277 518 l 654 469 q 639 560 650 518 q 608 635 629 603 q 551 686 586 668 q 463 705 516 705 m 529 894 q 524 864 529 878 q 508 839 518 849 q 484 822 498 828 q 454 816 470 816 q 423 822 437 816 q 398 839 409 828 q 382 864 388 849 q 376 894 376 878 q 382 924 376 910 q 398 949 388 938 q 423 966 409 959 q 454 972 437 972 q 484 966 470 972 q 508 949 498 959 q 524 924 518 938 q 529 894 529 910 "},"Ţ":{"x_min":1.359375,"x_max":996.984375,"ha":994,"o":"m 747 0 l 293 0 l 293 25 q 353 32 330 25 q 389 53 376 40 q 407 83 402 66 q 412 119 412 100 l 412 919 l 326 919 q 250 913 290 919 q 171 891 210 908 q 95 845 132 874 q 29 769 59 816 l 1 773 q 29 836 19 802 q 44 901 39 870 q 51 972 50 936 l 996 972 q 982 933 987 953 q 973 892 976 912 q 968 854 969 872 q 967 823 967 836 q 967 810 967 815 q 968 800 967 804 q 969 791 969 795 l 944 787 q 927 839 942 817 q 891 875 912 861 q 844 899 870 890 q 793 912 818 908 q 747 918 769 916 q 712 919 725 919 l 628 919 l 628 119 q 632 89 628 105 q 649 59 636 73 q 685 34 661 44 q 747 25 708 25 l 747 0 m 435 -318 q 453 -279 449 -299 q 453 -238 457 -259 q 438 -195 450 -217 q 411 -153 427 -174 l 496 -69 l 582 -153 q 533 -242 567 -194 q 450 -333 500 -290 l 435 -318 "},"Í":{"x_min":54.265625,"x_max":533.5625,"ha":562,"o":"m 508 0 l 54 0 l 54 25 q 114 32 90 25 q 150 53 137 40 q 168 83 164 66 q 173 119 173 100 l 173 858 q 168 887 173 872 q 150 916 163 903 q 113 938 137 929 q 54 947 90 947 l 54 972 l 508 972 l 508 947 q 447 939 471 947 q 411 918 424 931 q 393 888 398 905 q 388 852 388 871 l 388 119 q 393 89 388 105 q 409 59 397 73 q 446 34 422 44 q 508 25 470 25 l 508 0 m 533 1240 l 319 1041 l 246 1041 l 380 1240 l 533 1240 "},"´":{"x_min":0,"x_max":287.5625,"ha":288,"o":"m 287 1000 l 73 801 l 0 801 l 134 1000 l 287 1000 "},"Ú":{"x_min":63.75,"x_max":1188.921875,"ha":1243,"o":"m 734 972 l 1188 972 l 1188 947 q 1128 939 1152 947 q 1092 918 1105 931 q 1074 888 1079 905 q 1069 852 1069 871 l 1069 119 q 1073 89 1069 105 q 1090 59 1078 73 q 1126 34 1103 44 q 1188 25 1150 25 l 1188 0 l 854 0 l 854 101 q 800 51 830 75 q 736 10 771 28 q 658 -17 700 -6 q 567 -27 616 -27 q 444 -14 505 -27 q 327 23 383 -2 q 223 87 271 49 q 140 176 175 126 q 84 290 104 227 q 63 429 63 354 q 82 579 63 510 q 131 705 101 648 q 202 806 162 761 q 282 886 241 851 q 502 1016 379 967 l 520 1000 q 501 982 518 998 q 459 936 484 967 q 407 859 435 906 q 356 748 379 813 q 316 600 332 684 q 301 413 301 517 q 322 241 301 315 q 381 119 343 168 q 471 45 419 69 q 584 21 523 21 q 688 42 639 21 q 774 101 737 63 q 832 191 811 139 q 854 307 854 244 l 854 852 q 850 882 854 866 q 833 913 845 899 q 796 937 820 927 q 734 947 773 947 l 734 972 m 880 1240 l 666 1041 l 593 1041 l 727 1240 l 880 1240 "},"Ŷ":{"x_min":-52.90625,"x_max":1037.6875,"ha":1019,"o":"m 733 0 l 279 0 l 279 25 q 338 32 315 25 q 375 51 361 39 q 393 80 388 64 q 398 115 398 96 l 398 397 l 123 852 l 122 852 q 100 882 113 866 q 65 913 86 899 q 14 937 44 927 q -52 947 -14 947 l -52 972 l 415 972 l 415 947 q 354 936 370 947 q 337 908 337 925 q 343 881 337 895 q 356 852 348 867 l 597 470 q 714 642 659 548 q 820 852 769 735 q 832 894 832 876 q 810 932 832 917 q 737 947 789 947 l 737 972 l 1037 972 q 942 823 992 900 q 837 672 891 746 q 727 529 784 598 q 613 402 670 459 l 613 113 q 618 84 613 100 q 636 55 623 69 q 673 33 649 42 q 733 25 696 25 l 733 0 m 756 1041 l 642 1041 l 544 1175 l 456 1041 l 400 1041 l 530 1240 l 622 1240 l 756 1041 "},"ŝ":{"x_min":59.6875,"x_max":726.375,"ha":770,"o":"m 262 -13 q 184 -10 214 -13 q 134 -3 153 -7 q 103 3 115 0 q 78 6 90 6 q 85 48 83 29 q 87 83 87 67 q 83 126 87 106 q 73 168 79 146 l 96 169 q 140 112 111 137 q 205 70 169 87 q 279 44 240 53 q 352 35 318 35 q 428 47 395 35 q 484 78 461 58 q 519 124 507 97 q 531 184 531 151 q 517 241 531 219 q 479 276 503 263 q 422 296 455 290 q 352 307 389 303 q 291 314 324 309 q 226 326 259 318 q 163 347 193 334 q 110 382 133 361 q 73 433 87 403 q 59 505 59 463 q 79 590 59 554 q 131 653 99 627 q 205 697 163 680 q 291 724 247 714 q 380 737 336 733 q 459 741 423 741 q 571 735 523 741 q 651 729 619 729 q 642 683 644 705 q 640 644 640 661 q 643 602 640 622 q 654 560 647 582 l 630 559 q 607 612 618 588 q 573 653 596 636 q 510 680 550 670 q 397 690 469 690 q 349 682 374 690 q 303 658 324 674 q 269 619 282 642 q 255 563 255 595 q 274 497 255 521 q 319 459 293 472 q 374 441 345 446 q 422 436 402 437 q 479 429 446 434 q 544 417 511 425 q 611 395 578 408 q 669 360 643 381 q 710 307 695 338 q 726 234 726 276 q 706 139 726 179 q 650 71 685 99 q 569 27 615 44 q 471 1 522 10 q 366 -10 419 -7 q 262 -13 312 -13 m 562 801 l 448 801 l 350 935 l 262 801 l 206 801 l 336 1000 l 428 1000 l 562 801 "},"Ý":{"x_min":-52.90625,"x_max":1037.6875,"ha":1019,"o":"m 733 0 l 279 0 l 279 25 q 338 32 315 25 q 375 51 361 39 q 393 80 388 64 q 398 115 398 96 l 398 397 l 123 852 l 122 852 q 100 882 113 866 q 65 913 86 899 q 14 937 44 927 q -52 947 -14 947 l -52 972 l 415 972 l 415 947 q 354 936 370 947 q 337 908 337 925 q 343 881 337 895 q 356 852 348 867 l 597 470 q 714 642 659 548 q 820 852 769 735 q 832 894 832 876 q 810 932 832 917 q 737 947 789 947 l 737 972 l 1037 972 q 942 823 992 900 q 837 672 891 746 q 727 529 784 598 q 613 402 670 459 l 613 113 q 618 84 613 100 q 636 55 623 69 q 673 33 649 42 q 733 25 696 25 l 733 0 m 808 1240 l 594 1041 l 521 1041 l 655 1240 l 808 1240 "},"Ĉ":{"x_min":66.46875,"x_max":961.046875,"ha":1022,"o":"m 961 756 l 930 755 q 879 831 910 798 q 808 887 847 864 q 726 922 769 910 q 640 934 682 934 q 543 914 588 934 q 459 858 497 893 q 391 776 421 823 q 340 675 361 729 q 309 565 320 622 q 298 454 298 508 q 311 346 298 399 q 347 245 324 293 q 406 158 371 198 q 483 88 440 118 q 577 42 526 59 q 685 26 628 26 q 775 36 736 26 q 844 61 815 46 q 892 93 872 75 q 925 128 912 111 q 944 157 937 144 q 954 173 950 169 l 943 78 q 894 34 925 54 q 822 -1 864 14 q 730 -24 781 -16 q 623 -33 680 -33 q 479 -18 549 -33 q 347 24 408 -3 q 234 93 285 52 q 146 185 183 134 q 88 299 109 237 q 66 433 67 362 q 104 631 68 543 q 201 784 141 718 q 343 892 262 849 q 515 956 423 935 q 626 971 563 968 q 751 975 688 975 q 866 973 812 975 q 956 972 920 972 q 946 915 949 940 q 943 869 943 891 q 948 812 943 838 q 961 756 952 786 m 771 1047 l 657 1047 l 559 1181 l 471 1047 l 415 1047 l 545 1246 l 637 1246 l 771 1047 "},"̕":{"x_min":50.1875,"x_max":221.09375,"ha":256,"o":"m 75 819 q 92 856 88 836 q 92 897 96 876 q 77 940 88 918 q 50 982 66 961 l 136 1068 l 221 982 q 173 893 207 941 q 88 803 139 845 l 75 819 "},"ą":{"x_min":54.265625,"x_max":935.953125,"ha":978,"o":"m 935 -151 q 925 -202 935 -178 q 897 -244 915 -226 q 856 -272 880 -262 q 805 -283 832 -283 q 742 -272 771 -283 q 692 -242 713 -261 q 658 -193 670 -222 q 647 -130 647 -165 q 656 -85 647 -108 q 683 -43 666 -63 q 722 -7 699 -23 q 771 18 745 8 q 709 60 737 35 q 663 115 681 84 q 629 65 650 89 q 577 21 608 40 q 505 -9 547 2 q 411 -21 464 -21 q 256 10 322 -21 q 144 93 189 42 q 76 208 99 144 q 54 339 54 273 q 66 438 54 388 q 101 535 78 489 q 159 622 124 581 q 241 693 194 663 q 345 740 287 723 q 472 758 402 758 q 565 747 522 758 q 640 720 607 736 q 697 687 673 705 q 735 655 721 670 q 781 685 756 672 q 830 708 805 698 q 880 722 855 717 q 927 729 905 727 l 935 706 q 887 671 908 695 q 853 613 868 650 q 836 518 837 577 q 835 446 835 483 q 835 372 835 408 q 834 303 834 336 q 833 244 834 270 q 833 203 833 219 q 833 184 833 187 q 848 88 833 125 q 883 31 864 52 q 933 -4 905 6 l 925 -26 q 865 -18 896 -25 q 804 1 834 -11 q 751 -59 767 -23 q 734 -130 734 -94 q 740 -178 734 -157 q 757 -214 747 -200 q 780 -237 767 -229 q 808 -245 794 -245 q 848 -234 831 -245 q 877 -208 866 -223 q 894 -177 889 -193 q 901 -151 900 -161 l 935 -151 m 474 50 q 553 71 522 50 q 603 124 584 93 q 630 190 621 155 q 642 251 639 225 l 648 508 q 643 543 647 522 q 632 585 639 563 q 612 629 624 607 q 582 668 600 651 q 538 695 564 685 q 479 706 513 706 q 387 680 428 706 q 316 610 345 655 q 271 507 287 566 q 255 381 255 448 q 274 232 255 295 q 323 129 293 170 q 394 69 354 88 q 474 50 433 50 "},"Ö":{"x_min":65.109375,"x_max":1129.234375,"ha":1194,"o":"m 65 486 q 80 601 65 542 q 126 716 96 661 q 202 820 157 771 q 306 906 247 870 q 437 964 364 943 q 594 986 510 986 q 755 966 682 986 q 888 912 829 946 q 993 830 948 877 q 1068 727 1038 782 q 1113 610 1098 672 q 1129 486 1129 548 q 1113 365 1129 426 q 1068 247 1098 304 q 993 140 1038 190 q 888 52 948 90 q 755 -6 829 15 q 594 -27 682 -27 q 436 -6 508 -27 q 304 52 363 14 q 201 139 246 89 q 126 246 156 189 q 80 365 95 303 q 65 486 65 426 m 298 489 q 304 375 298 431 q 325 267 311 318 q 362 172 339 216 q 417 96 385 128 q 493 44 450 63 q 590 25 535 25 q 688 44 644 25 q 766 96 732 63 q 824 174 800 130 q 865 270 849 219 q 889 375 881 320 q 898 482 897 430 q 892 590 898 535 q 871 694 885 644 q 833 787 856 744 q 777 863 810 830 q 700 913 744 895 q 601 931 657 931 q 504 915 547 931 q 427 869 461 899 q 369 798 394 839 q 330 708 345 758 q 306 603 314 659 q 298 489 299 548 m 556 1134 q 551 1104 556 1118 q 535 1079 545 1089 q 511 1062 525 1068 q 481 1056 497 1056 q 450 1062 464 1056 q 425 1079 436 1068 q 409 1104 415 1089 q 403 1134 403 1118 q 409 1164 403 1150 q 425 1189 415 1178 q 450 1206 436 1199 q 481 1212 464 1212 q 511 1206 497 1212 q 535 1189 525 1199 q 551 1164 545 1178 q 556 1134 556 1150 m 790 1134 q 784 1104 790 1118 q 768 1079 778 1089 q 744 1062 758 1068 q 714 1056 730 1056 q 683 1062 698 1056 q 659 1079 669 1068 q 642 1104 648 1089 q 636 1134 636 1118 q 642 1164 636 1150 q 659 1189 648 1178 q 683 1206 669 1199 q 714 1212 698 1212 q 744 1206 730 1212 q 768 1189 758 1199 q 784 1164 778 1178 q 790 1134 790 1150 "},"z":{"x_min":40.015625,"x_max":722.3125,"ha":761,"o":"m 50 0 l 40 34 l 40 35 l 511 693 l 270 693 q 213 688 242 693 q 158 672 183 684 q 112 638 132 659 q 86 583 93 617 l 67 585 q 65 636 67 611 q 56 682 62 657 q 40 729 50 707 l 710 729 l 720 693 l 248 35 l 491 35 q 550 40 520 35 q 605 56 579 44 q 650 89 631 68 q 676 145 669 111 l 695 141 q 698 91 695 116 q 706 45 701 69 q 722 0 711 21 l 50 0 "},"™":{"x_min":79.359375,"x_max":1444.609375,"ha":1515,"o":"m 470 473 l 230 473 l 230 499 q 260 503 248 499 q 278 512 271 506 q 287 525 285 518 q 290 540 290 532 l 290 933 l 254 933 q 217 930 236 933 q 179 918 198 927 q 142 896 160 910 q 109 858 124 881 l 79 859 q 96 897 90 877 q 105 934 102 917 q 109 973 109 954 l 600 973 q 584 927 587 950 q 581 891 581 905 l 581 869 l 555 866 q 540 903 554 889 q 509 923 526 916 q 474 931 491 929 q 446 933 456 933 l 411 933 l 411 540 q 413 527 411 534 q 421 514 415 520 q 439 503 427 507 q 470 499 451 499 l 470 473 m 959 739 q 954 815 959 777 q 937 883 949 853 q 906 931 926 913 q 857 950 886 950 q 806 933 828 950 q 767 888 783 916 q 742 823 751 859 q 734 746 734 786 q 744 664 734 701 q 769 597 754 627 q 802 544 784 567 q 835 505 819 521 q 862 482 851 490 q 874 473 872 474 l 740 473 q 709 499 730 478 q 666 555 687 521 q 627 633 644 589 q 611 726 611 676 q 614 774 611 746 q 628 830 618 801 q 654 887 637 859 q 697 936 671 914 q 760 972 723 959 q 847 986 797 986 q 951 965 910 986 q 1018 914 992 945 q 1049 941 1031 928 q 1091 964 1068 954 q 1141 980 1114 973 q 1201 986 1169 986 q 1286 975 1249 986 q 1350 946 1323 964 q 1395 903 1377 927 q 1424 853 1413 879 q 1439 800 1435 826 q 1444 750 1444 773 q 1431 670 1444 706 q 1397 604 1418 634 q 1351 553 1376 575 q 1299 515 1325 531 q 1252 489 1274 499 q 1216 473 1230 478 l 1179 473 q 1191 482 1180 474 q 1219 506 1203 490 q 1253 545 1235 522 q 1285 599 1270 568 q 1311 668 1300 630 q 1321 751 1321 706 q 1310 834 1321 797 q 1281 897 1299 871 q 1239 936 1262 923 q 1190 950 1215 950 q 1139 931 1159 950 q 1105 883 1118 913 q 1087 815 1093 853 q 1081 739 1081 777 l 1081 473 l 959 473 l 959 739 "},"Ř":{"x_min":54.265625,"x_max":1062.78125,"ha":1067,"o":"m 1062 8 q 951 -25 1001 -16 q 864 -34 902 -34 q 769 -9 816 -34 q 678 54 722 15 q 596 141 634 93 q 526 233 557 188 q 474 316 495 279 q 444 372 453 354 q 598 423 530 386 q 655 462 627 440 q 704 515 682 484 q 739 585 726 545 q 752 674 752 624 q 741 757 752 720 q 710 823 729 794 q 666 872 691 851 q 614 906 641 893 q 559 926 587 920 q 508 933 532 933 q 449 925 472 933 q 412 905 425 918 q 393 876 398 893 q 388 841 388 859 l 388 119 q 393 89 388 105 q 409 59 397 73 q 446 34 422 44 q 508 25 470 25 l 508 0 l 54 0 l 54 25 q 113 32 90 25 q 149 51 136 39 q 168 80 163 64 q 173 115 173 96 l 173 858 q 168 887 173 872 q 150 916 163 903 q 113 938 137 929 q 54 947 90 947 l 54 972 l 508 972 q 690 955 604 972 q 839 902 775 938 q 941 809 904 866 q 979 673 979 752 q 951 556 979 606 q 879 470 924 505 q 776 410 834 434 q 659 373 719 387 q 710 289 682 331 q 769 208 738 247 q 830 137 799 170 q 890 79 861 103 q 945 40 919 54 q 990 26 970 26 q 1016 28 999 26 q 1052 38 1032 30 l 1062 8 m 354 1240 l 467 1240 l 566 1105 l 653 1240 l 710 1240 l 580 1041 l 488 1041 l 354 1240 "},"ã":{"x_min":54.265625,"x_max":935.953125,"ha":978,"o":"m 472 758 q 565 747 522 758 q 640 720 607 736 q 697 687 673 705 q 735 655 721 670 q 781 685 756 672 q 830 708 805 698 q 880 722 855 717 q 927 729 905 727 l 935 706 q 887 671 908 695 q 853 613 868 650 q 836 518 837 577 q 835 446 835 483 q 835 372 835 408 q 834 303 834 336 q 833 244 834 270 q 833 203 833 219 q 833 184 833 187 q 848 88 833 125 q 883 31 864 52 q 933 -4 905 6 l 925 -26 q 853 -14 891 -25 q 779 13 815 -4 q 713 57 744 31 q 663 115 682 82 q 629 65 650 89 q 577 21 608 40 q 505 -9 547 2 q 411 -21 464 -21 q 256 10 322 -21 q 144 93 189 42 q 76 208 99 144 q 54 339 54 273 q 66 438 54 388 q 101 535 78 489 q 159 622 124 581 q 241 693 194 663 q 345 740 287 723 q 472 758 402 758 m 474 50 q 553 71 522 50 q 603 124 584 93 q 630 190 621 155 q 642 251 639 225 l 648 508 q 643 543 647 522 q 632 585 639 563 q 612 629 624 607 q 582 668 600 651 q 538 695 564 685 q 479 706 513 706 q 387 680 428 706 q 316 610 345 655 q 271 507 287 566 q 255 381 255 448 q 274 232 255 295 q 323 129 293 170 q 394 69 354 88 q 474 50 433 50 m 723 986 q 710 919 720 952 q 681 860 699 886 q 637 817 663 834 q 577 801 610 801 q 508 816 536 801 q 457 848 480 830 q 414 879 434 865 q 369 894 393 894 q 332 883 345 894 q 311 857 318 872 q 302 827 304 843 q 300 801 300 811 l 265 801 q 274 869 266 836 q 299 928 282 902 q 344 970 316 954 q 413 986 372 986 q 477 971 450 986 q 527 940 504 957 q 570 908 549 923 q 612 894 590 894 q 647 905 633 894 q 669 930 661 915 q 680 960 677 945 q 684 986 683 975 l 723 986 "},"Ň":{"x_min":55.609375,"x_max":1090.578125,"ha":1135,"o":"m 55 972 l 396 972 l 909 348 l 909 858 q 904 887 909 872 q 886 916 899 903 q 849 938 872 929 q 790 947 826 947 l 790 972 l 1090 972 l 1090 947 q 1030 939 1053 947 q 993 918 1007 931 q 975 888 980 905 q 971 852 971 871 l 971 0 l 909 0 l 236 812 l 236 119 q 240 89 236 105 q 257 59 244 73 q 293 34 269 44 q 355 25 316 25 l 355 0 l 55 0 l 55 25 q 115 32 92 25 q 152 53 139 40 q 170 83 165 66 q 174 119 174 100 l 174 886 q 145 916 158 904 q 117 934 131 927 q 88 944 103 942 q 55 947 73 947 l 55 972 m 389 1240 l 502 1240 l 601 1105 l 688 1240 l 745 1240 l 615 1041 l 523 1041 l 389 1240 "},"æ":{"x_min":41.375,"x_max":1454.109375,"ha":1495,"o":"m 857 423 q 855 395 855 408 q 855 366 855 381 q 864 241 855 302 q 894 132 872 180 q 955 55 916 85 q 1057 25 994 26 q 1128 37 1097 25 q 1183 73 1159 50 q 1224 126 1207 96 q 1252 193 1241 157 l 1412 139 q 1354 75 1388 104 q 1277 24 1321 46 q 1179 -8 1233 3 q 1061 -21 1125 -21 q 874 13 952 -21 q 744 103 795 47 q 685 53 718 75 q 612 13 652 30 q 525 -11 573 -2 q 423 -21 478 -21 q 279 -11 348 -21 q 157 18 210 -2 q 72 75 104 40 q 41 164 41 111 q 62 233 41 204 q 117 283 83 262 q 194 318 151 304 q 281 343 237 333 q 365 360 324 353 q 434 375 405 368 q 509 397 476 385 q 567 422 542 410 q 608 446 592 435 q 634 466 625 458 q 616 556 629 513 q 581 632 604 599 q 523 685 558 665 q 438 706 489 705 q 367 693 398 706 q 311 658 335 680 q 271 604 288 635 q 242 539 254 574 l 83 592 q 141 656 107 627 q 219 707 175 685 q 315 740 262 728 q 432 752 368 752 q 616 719 538 752 q 746 633 693 686 q 801 681 770 659 q 869 719 832 703 q 951 744 906 735 q 1047 752 995 752 q 1228 726 1153 752 q 1352 654 1304 699 q 1424 550 1400 609 q 1454 423 1448 490 l 857 423 m 640 376 q 640 393 640 384 q 638 409 640 401 q 577 371 619 392 q 461 327 535 350 q 384 304 421 315 q 317 276 346 293 q 269 234 287 259 q 251 169 251 208 q 269 95 251 123 q 315 52 288 67 q 373 31 342 36 q 429 26 404 26 q 523 54 483 26 q 589 129 562 82 q 627 241 615 177 q 640 376 640 305 m 1051 705 q 967 687 1001 705 q 911 636 933 668 q 876 561 889 604 q 859 469 864 518 l 1241 469 q 1227 560 1237 518 q 1195 635 1216 603 q 1139 686 1174 668 q 1051 705 1104 705 "},"ĩ":{"x_min":1,"x_max":459.484375,"ha":461,"o":"m 421 0 l 40 0 l 40 25 q 86 30 68 25 q 114 46 104 36 q 128 68 124 56 q 132 95 132 81 l 132 632 q 128 654 132 642 q 115 677 125 667 q 87 695 105 688 q 40 702 69 702 l 40 729 l 421 729 l 421 702 q 376 697 394 702 q 347 682 358 691 q 333 662 337 674 q 328 637 328 650 l 328 95 q 332 73 328 85 q 345 50 335 61 q 373 32 355 40 q 421 25 391 25 l 421 0 m 459 986 q 446 919 456 952 q 417 860 435 886 q 373 817 399 834 q 313 801 346 801 q 244 816 272 801 q 193 848 216 830 q 150 879 170 865 q 105 894 129 894 q 68 883 81 894 q 47 857 54 872 q 38 827 40 843 q 36 801 36 811 l 1 801 q 10 869 2 836 q 35 928 18 902 q 80 970 52 954 q 149 986 108 986 q 213 971 186 986 q 263 940 240 957 q 306 908 285 923 q 348 894 326 894 q 383 905 369 894 q 405 930 397 915 q 416 960 413 945 q 420 986 419 975 l 459 986 "},"É":{"x_min":66.46875,"x_max":961.046875,"ha":1023,"o":"m 930 755 q 879 831 910 798 q 808 887 847 864 q 726 922 769 910 q 640 934 682 934 q 552 917 593 934 q 475 872 510 901 q 410 804 439 843 q 359 718 381 764 q 322 622 337 672 q 302 522 308 572 l 880 522 q 858 462 866 493 q 847 403 851 430 q 843 341 843 371 l 820 337 q 798 409 811 381 q 760 454 786 438 q 691 477 734 470 q 579 483 648 483 l 298 483 l 298 454 q 311 346 298 399 q 347 245 324 293 q 406 158 371 198 q 483 88 440 118 q 577 42 526 59 q 685 26 628 26 q 775 36 736 26 q 844 61 815 46 q 892 93 872 75 q 925 128 912 111 q 944 157 937 144 q 954 173 950 169 l 943 78 q 897 36 927 56 q 827 0 868 16 q 735 -25 786 -15 q 625 -34 684 -34 q 411 -1 512 -34 q 234 92 310 31 q 112 240 158 153 q 66 433 67 326 q 104 631 68 543 q 201 784 141 718 q 343 892 262 849 q 515 956 423 935 q 626 971 563 968 q 751 975 688 975 q 866 973 812 975 q 956 972 920 972 q 946 915 949 940 q 943 869 943 891 q 948 812 943 838 q 961 756 952 786 l 930 755 m 834 1240 l 620 1041 l 547 1041 l 681 1240 l 834 1240 "},"ŀ":{"x_min":33.234375,"x_max":692.28125,"ha":771,"o":"m 33 25 q 77 30 59 25 q 105 44 94 35 q 120 64 115 52 q 124 90 124 76 l 124 976 q 121 998 124 986 q 107 1020 117 1010 q 79 1036 96 1030 q 33 1043 61 1043 l 33 1069 l 322 1069 l 322 91 q 325 69 322 81 q 339 48 329 58 q 367 31 349 38 q 413 25 385 25 l 413 0 l 33 0 l 33 25 m 481 486 q 489 527 481 507 q 511 560 497 546 q 545 583 526 575 q 586 591 564 591 q 627 583 608 591 q 661 560 646 575 q 683 527 675 546 q 692 486 692 507 q 683 445 692 464 q 661 411 675 425 q 627 388 646 397 q 586 380 608 380 q 545 388 564 380 q 511 411 526 397 q 489 445 497 425 q 481 486 481 464 "},"~":{"x_min":82.0625,"x_max":682.296875,"ha":746,"o":"m 682 648 q 664 560 678 604 q 626 483 650 517 q 568 427 602 448 q 490 406 533 406 q 426 416 455 406 q 375 438 398 425 q 333 467 352 452 q 295 497 314 483 q 258 519 277 510 q 218 529 240 529 q 169 514 187 529 q 142 480 151 500 q 131 440 133 461 q 128 406 128 419 l 82 406 q 94 496 84 452 q 127 573 105 539 q 186 627 150 607 q 276 648 223 648 q 335 639 308 648 q 383 617 361 630 q 425 588 406 604 q 463 559 444 573 q 499 537 481 546 q 536 529 517 529 q 582 542 564 529 q 611 575 600 556 q 626 615 621 594 q 630 648 630 635 l 682 648 "},"Ċ":{"x_min":66.46875,"x_max":961.046875,"ha":1022,"o":"m 961 756 l 930 755 q 879 831 910 798 q 808 887 847 864 q 726 922 769 910 q 640 934 682 934 q 543 914 588 934 q 459 858 497 893 q 391 776 421 823 q 340 675 361 729 q 309 565 320 622 q 298 454 298 508 q 311 346 298 399 q 347 245 324 293 q 406 158 371 198 q 483 88 440 118 q 577 42 526 59 q 685 26 628 26 q 775 36 736 26 q 844 61 815 46 q 892 93 872 75 q 925 128 912 111 q 944 157 937 144 q 954 173 950 169 l 943 78 q 894 34 925 54 q 822 -1 864 14 q 730 -24 781 -16 q 623 -33 680 -33 q 479 -18 549 -33 q 347 24 408 -3 q 234 93 285 52 q 146 185 183 134 q 88 299 109 237 q 66 433 67 362 q 104 631 68 543 q 201 784 141 718 q 343 892 262 849 q 515 956 423 935 q 626 971 563 968 q 751 975 688 975 q 866 973 812 975 q 956 972 920 972 q 946 915 949 940 q 943 869 943 891 q 948 812 943 838 q 961 756 952 786 m 670 1116 q 665 1086 670 1100 q 649 1061 659 1071 q 625 1044 639 1050 q 595 1038 611 1038 q 564 1044 578 1038 q 539 1061 550 1050 q 523 1086 529 1071 q 517 1116 517 1100 q 523 1146 517 1132 q 539 1171 529 1160 q 564 1188 550 1181 q 595 1194 578 1194 q 625 1188 611 1194 q 649 1171 639 1181 q 665 1146 659 1160 q 670 1116 670 1132 "},"³":{"x_min":51.546875,"x_max":530.375,"ha":611,"o":"m 278 227 q 210 236 243 227 q 147 260 177 244 q 93 301 118 276 q 51 359 69 326 l 151 408 q 165 355 155 381 q 193 308 176 328 q 232 275 210 287 q 282 262 255 262 q 320 268 298 262 q 362 288 342 274 q 396 326 382 303 q 411 384 411 349 q 399 438 411 417 q 370 471 388 459 q 330 489 353 484 q 286 494 308 494 l 212 494 l 212 541 l 286 541 q 326 548 309 541 q 354 566 343 555 q 370 592 365 577 q 376 623 376 607 q 369 660 376 643 q 349 688 362 676 q 319 707 337 700 q 282 714 302 714 q 249 708 266 714 q 217 691 233 703 q 187 662 201 680 q 164 622 174 645 l 90 674 q 173 729 126 709 q 284 748 221 748 q 357 742 320 748 q 425 720 394 735 q 476 681 456 706 q 495 622 495 657 q 490 589 495 604 q 474 561 484 573 q 453 538 465 548 q 430 522 442 529 q 502 477 474 508 q 530 394 530 445 q 505 316 530 348 q 442 265 480 284 q 360 236 404 245 q 278 227 316 227 "},"¡":{"x_min":87.484375,"x_max":298.421875,"ha":395,"o":"m 145 505 q 160 519 146 510 q 191 536 174 527 q 224 554 208 545 q 244 569 240 563 l 291 -160 l 105 -160 l 145 505 m 298 727 q 290 686 298 706 q 267 653 282 667 q 234 630 253 638 q 193 622 215 622 q 152 630 171 622 q 118 653 132 638 q 95 686 104 667 q 87 727 87 706 q 95 768 87 749 q 118 802 104 788 q 152 825 132 816 q 193 833 171 833 q 234 825 215 833 q 267 802 253 816 q 290 768 282 788 q 298 727 298 749 "},"ẅ":{"x_min":21.03125,"x_max":1309.640625,"ha":1350,"o":"m 921 729 l 1309 729 l 1309 704 q 1264 698 1282 704 q 1236 684 1247 693 q 1222 663 1226 675 q 1218 638 1218 651 l 1218 91 q 1221 69 1218 81 q 1235 48 1225 58 q 1263 31 1245 38 q 1309 25 1281 25 l 1309 0 l 1012 0 l 1012 75 q 976 37 996 54 q 932 6 956 19 q 880 -13 908 -6 q 817 -21 851 -21 q 743 -10 777 -21 q 680 20 708 0 q 631 66 653 39 q 594 126 609 93 q 558 70 579 96 q 510 23 537 44 q 446 -8 482 3 q 368 -21 411 -21 q 258 3 305 -21 q 178 70 210 27 q 129 168 145 112 q 112 287 112 224 l 112 637 q 108 659 112 647 q 94 680 105 670 q 66 697 84 690 q 21 704 48 704 l 21 729 l 408 729 l 408 704 q 363 698 381 704 q 335 684 345 693 q 320 663 324 675 q 316 638 316 651 l 316 245 q 324 157 316 193 q 347 99 333 121 q 380 66 361 76 q 421 56 399 56 q 474 72 448 56 q 519 122 500 88 q 550 208 539 155 q 562 335 562 261 l 562 637 q 558 659 562 647 q 544 680 554 670 q 516 697 534 690 q 470 704 499 704 l 470 729 l 858 729 l 858 704 q 812 698 830 704 q 784 682 794 692 q 770 660 773 672 q 766 633 766 647 l 766 245 q 774 157 766 193 q 796 99 782 121 q 830 66 811 76 q 870 56 849 56 q 922 71 897 56 q 967 115 948 85 q 999 193 987 146 q 1011 307 1011 240 l 1011 645 q 1006 666 1011 655 q 990 684 1001 676 q 963 698 980 693 q 921 704 946 704 l 921 729 m 634 894 q 629 864 634 878 q 613 839 623 849 q 589 822 603 828 q 559 816 575 816 q 528 822 542 816 q 503 839 514 828 q 487 864 493 849 q 481 894 481 878 q 487 924 481 910 q 503 949 493 938 q 528 966 514 959 q 559 972 542 972 q 589 966 575 972 q 613 949 603 959 q 629 924 623 938 q 634 894 634 910 m 868 894 q 862 864 868 878 q 846 839 856 849 q 822 822 836 828 q 792 816 808 816 q 761 822 776 816 q 737 839 747 828 q 720 864 726 849 q 714 894 714 878 q 720 924 714 910 q 737 949 726 938 q 761 966 747 959 q 792 972 776 972 q 822 966 808 972 q 846 949 836 959 q 862 924 856 938 q 868 894 868 910 "},"[":{"x_min":122.078125,"x_max":470.6875,"ha":500,"o":"m 470 -139 l 122 -139 l 122 1110 l 470 1110 l 470 1061 l 315 1061 l 315 -88 l 470 -88 l 470 -139 "},"%":{"x_min":48.828125,"x_max":1104.140625,"ha":1153,"o":"m 547 550 q 524 457 547 495 q 465 395 501 419 q 385 360 429 371 q 298 349 341 349 q 208 361 252 349 q 128 397 164 373 q 70 459 92 421 q 48 548 48 497 q 70 638 48 600 q 128 700 92 676 q 208 736 164 725 q 299 748 253 748 q 388 737 344 748 q 468 702 433 726 q 525 640 503 678 q 547 550 547 602 m 427 550 q 419 611 427 581 q 393 662 410 640 q 351 698 376 685 q 297 711 327 711 q 244 699 267 711 q 203 665 220 687 q 177 615 186 644 q 168 552 168 586 q 177 487 168 518 q 203 435 186 457 q 243 399 220 412 q 295 385 267 385 q 347 398 323 385 q 389 433 371 411 q 417 485 407 455 q 427 550 427 515 m 1104 183 q 1081 90 1104 128 q 1022 28 1058 52 q 942 -6 986 4 q 855 -16 898 -16 q 765 -5 810 -16 q 685 31 720 6 q 627 92 649 55 q 605 181 605 130 q 627 271 605 233 q 685 333 649 309 q 766 369 720 358 q 857 381 811 381 q 946 370 902 381 q 1025 335 990 359 q 1082 274 1060 311 q 1104 183 1104 236 m 984 183 q 975 244 984 215 q 950 295 967 273 q 909 331 933 318 q 854 344 885 344 q 801 332 825 344 q 760 299 777 320 q 734 248 743 278 q 725 185 725 219 q 734 121 725 151 q 760 68 743 90 q 800 32 777 46 q 852 19 824 19 q 904 32 880 19 q 946 66 928 44 q 974 118 964 88 q 984 183 984 148 m 999 729 l 270 0 l 152 0 l 880 729 l 999 729 "},"P":{"x_min":46.125,"x_max":1096.015625,"ha":1164,"o":"m 1096 514 q 1056 306 1096 404 q 942 134 1017 208 q 760 15 868 59 q 515 -27 652 -27 q 446 -24 480 -27 q 380 -10 413 -20 l 380 -153 q 369 -189 380 -170 q 340 -230 358 -208 q 299 -277 322 -252 q 251 -331 276 -303 q 205 -391 227 -360 q 165 -458 183 -423 l 165 858 q 160 887 165 872 q 142 916 155 903 q 105 938 128 929 q 46 947 82 947 l 46 972 l 380 972 q 475 969 422 972 q 587 959 529 967 q 706 936 645 951 q 822 898 766 922 q 928 841 878 875 q 1015 760 978 807 q 1074 653 1053 714 q 1096 514 1096 592 m 873 462 q 849 622 873 554 q 786 741 826 691 q 695 824 746 791 q 589 878 644 857 q 480 909 535 899 q 380 922 425 918 l 380 52 q 463 25 418 31 q 548 18 507 18 q 661 38 612 18 q 746 93 710 59 q 807 172 782 127 q 846 267 831 217 q 867 366 860 316 q 873 462 873 417 "},"∏":{"x_min":42.734375,"x_max":1039.03125,"ha":1083,"o":"m 634 919 l 489 919 l 489 0 l 287 0 l 287 912 q 228 897 258 907 q 171 870 199 887 q 118 828 143 853 q 70 769 92 804 l 42 773 q 70 836 61 802 q 86 901 80 870 q 92 972 91 936 l 1039 972 q 1023 933 1029 953 q 1014 892 1018 912 q 1010 854 1011 872 q 1009 823 1009 836 q 1009 810 1009 815 q 1010 800 1009 804 q 1011 791 1010 795 l 986 787 q 969 839 983 817 q 933 875 954 860 q 886 899 912 890 q 836 912 861 908 l 836 0 l 634 0 l 634 919 "},"_":{"x_min":169.5625,"x_max":796.234375,"ha":965,"o":"m 796 -112 l 796 -204 l 169 -204 l 169 -112 l 796 -112 "},"Ŕ":{"x_min":54.265625,"x_max":1062.78125,"ha":1067,"o":"m 1062 8 q 951 -25 1001 -16 q 864 -34 902 -34 q 769 -9 816 -34 q 678 54 722 15 q 596 141 634 93 q 526 233 557 188 q 474 316 495 279 q 444 372 453 354 q 598 423 530 386 q 655 462 627 440 q 704 515 682 484 q 739 585 726 545 q 752 674 752 624 q 741 757 752 720 q 710 823 729 794 q 666 872 691 851 q 614 906 641 893 q 559 926 587 920 q 508 933 532 933 q 449 925 472 933 q 412 905 425 918 q 393 876 398 893 q 388 841 388 859 l 388 119 q 393 89 388 105 q 409 59 397 73 q 446 34 422 44 q 508 25 470 25 l 508 0 l 54 0 l 54 25 q 113 32 90 25 q 149 51 136 39 q 168 80 163 64 q 173 115 173 96 l 173 858 q 168 887 173 872 q 150 916 163 903 q 113 938 137 929 q 54 947 90 947 l 54 972 l 508 972 q 690 955 604 972 q 839 902 775 938 q 941 809 904 866 q 979 673 979 752 q 951 556 979 606 q 879 470 924 505 q 776 410 834 434 q 659 373 719 387 q 710 289 682 331 q 769 208 738 247 q 830 137 799 170 q 890 79 861 103 q 945 40 919 54 q 990 26 970 26 q 1016 28 999 26 q 1052 38 1032 30 l 1062 8 m 752 1240 l 538 1041 l 465 1041 l 599 1240 l 752 1240 "},"ñ":{"x_min":40.015625,"x_max":984.78125,"ha":1025,"o":"m 744 986 q 731 919 741 952 q 702 860 720 886 q 658 817 684 834 q 598 801 631 801 q 529 816 557 801 q 478 848 501 830 q 435 879 455 865 q 390 894 414 894 q 353 883 366 894 q 332 857 339 872 q 323 827 325 843 q 321 801 321 811 l 286 801 q 295 869 287 836 q 320 928 303 902 q 365 970 337 954 q 434 986 393 986 q 498 971 471 986 q 548 940 525 957 q 591 908 570 923 q 633 894 611 894 q 668 905 654 894 q 690 930 682 915 q 701 960 698 945 q 705 986 704 975 l 744 986 m 421 0 l 40 0 l 40 25 q 86 30 68 25 q 114 46 104 36 q 128 68 124 56 q 132 95 132 81 l 132 636 q 128 658 132 646 q 114 679 124 670 q 86 696 104 689 q 40 702 68 702 l 40 729 l 421 729 l 421 702 q 376 697 394 702 q 347 682 358 691 q 333 662 337 674 q 328 637 328 650 l 328 465 q 385 365 352 418 q 463 259 419 311 q 566 157 508 206 q 695 70 623 108 l 695 632 q 692 654 695 642 q 679 677 689 667 q 652 695 670 688 q 604 702 634 702 l 604 729 l 984 729 l 984 702 q 940 697 957 702 q 911 682 922 691 q 897 662 901 674 q 893 637 893 650 l 893 91 q 896 69 893 81 q 910 48 900 58 q 938 31 921 38 q 984 25 956 25 l 984 0 l 695 0 q 595 41 646 12 q 496 107 543 70 q 405 185 448 144 q 328 261 362 225 l 328 95 q 332 73 328 85 q 345 50 335 61 q 373 32 355 40 q 421 25 391 25 l 421 0 "},"‚":{"x_min":58.328125,"x_max":271.96875,"ha":334,"o":"m 90 -133 q 111 -86 107 -111 q 111 -34 116 -61 q 93 18 107 -8 q 58 70 79 44 l 165 177 l 271 70 q 248 16 263 44 q 212 -40 233 -10 q 165 -97 191 -69 q 107 -152 139 -126 l 90 -133 "},"Æ":{"x_min":-2.71875,"x_max":1544.3125,"ha":1607,"o":"m 1513 755 q 1462 831 1494 798 q 1392 887 1431 864 q 1309 922 1353 910 q 1223 934 1266 934 q 1135 917 1176 934 q 1058 872 1093 901 q 993 804 1023 843 q 942 718 964 764 q 906 622 921 672 q 886 522 891 572 l 1464 522 q 1442 462 1450 493 q 1431 403 1434 430 q 1426 341 1426 371 l 1404 337 q 1382 409 1395 381 q 1344 454 1370 438 q 1275 477 1318 470 q 1162 483 1231 483 l 881 483 l 881 454 q 894 346 881 399 q 931 245 907 293 q 989 158 954 198 q 1066 88 1024 118 q 1160 42 1109 59 q 1268 26 1211 26 q 1359 36 1319 26 q 1427 61 1398 46 q 1475 93 1456 75 q 1508 128 1495 111 q 1527 157 1521 144 q 1537 173 1534 169 l 1526 78 q 1481 36 1511 56 q 1410 0 1451 16 q 1318 -25 1369 -15 q 1208 -34 1267 -34 q 1036 -13 1119 -34 q 885 46 954 7 q 764 142 816 86 q 683 269 712 198 q 679 277 681 274 q 676 284 677 280 q 548 239 607 265 q 442 189 489 214 q 365 144 396 164 q 320 113 333 123 q 264 64 295 86 q 194 27 233 42 q 108 4 155 12 q 4 -4 61 -4 l -2 25 q 110 67 63 35 q 193 144 158 98 q 252 247 227 189 q 295 368 276 304 q 324 445 306 404 q 367 524 342 486 q 426 596 393 562 q 501 653 459 630 q 478 697 489 674 q 457 743 467 720 q 433 791 446 763 q 404 848 420 820 q 368 897 387 876 q 328 925 349 919 q 306 928 317 927 q 284 930 295 930 q 231 924 257 930 q 181 909 205 918 l 172 937 q 291 970 231 956 q 412 984 352 984 q 468 981 440 984 q 522 967 496 977 q 564 941 543 959 q 602 898 584 923 q 637 846 621 874 q 668 789 654 817 q 694 734 682 760 q 715 689 706 708 q 785 785 744 741 q 875 862 826 828 q 981 919 925 895 q 1098 956 1038 942 q 1209 971 1146 968 q 1334 975 1271 975 q 1449 973 1395 975 q 1540 972 1503 972 q 1529 915 1532 940 q 1526 869 1526 891 q 1531 812 1526 838 q 1544 756 1536 786 l 1513 755 m 539 575 q 506 516 521 546 q 480 454 492 485 q 457 391 467 422 q 437 331 447 360 q 415 270 427 300 q 388 213 403 241 q 507 276 439 243 q 654 331 576 308 l 539 575 "},"ğ":{"x_min":19.671875,"x_max":820.65625,"ha":855,"o":"m 19 686 q 43 760 38 723 q 48 825 48 797 q 48 838 48 832 q 48 848 48 844 q 47 857 47 853 l 71 861 q 89 809 74 830 q 125 772 103 787 q 172 749 146 758 q 223 736 198 740 q 269 730 248 731 q 304 729 290 729 l 820 729 q 796 654 802 691 q 791 590 791 617 q 791 576 791 582 q 792 567 791 571 q 792 558 792 562 l 768 554 q 751 606 765 584 q 715 642 736 628 q 668 666 693 657 q 617 679 642 674 q 571 685 592 683 q 536 686 549 686 l 411 686 q 352 673 380 685 q 303 641 324 662 q 270 591 282 621 q 258 524 258 562 q 281 433 258 474 q 343 358 305 392 q 431 294 382 324 q 532 234 480 263 q 632 174 583 204 q 720 108 681 143 q 782 32 758 73 q 805 -59 805 -8 q 787 -142 805 -103 q 730 -211 769 -181 q 627 -258 690 -240 q 473 -275 564 -275 q 331 -258 395 -275 q 218 -212 268 -242 q 130 -141 168 -183 q 67 -50 93 -100 l 242 48 q 261 -55 246 -6 q 301 -143 275 -105 q 367 -204 328 -181 q 462 -229 407 -227 q 516 -221 491 -229 q 560 -198 541 -212 q 590 -162 579 -183 q 601 -115 601 -141 q 578 -49 601 -80 q 517 11 555 -18 q 431 70 479 41 q 332 132 383 100 q 233 200 282 164 q 147 276 185 235 q 86 365 109 317 q 63 472 63 414 q 77 547 63 514 q 114 607 91 581 q 168 652 137 633 q 231 686 198 672 l 19 686 m 597 1000 q 581 931 594 964 q 545 872 567 898 q 492 831 522 847 q 425 816 461 816 q 358 832 388 816 q 307 873 328 847 q 272 932 285 900 q 257 1000 259 965 l 292 1000 q 320 954 303 974 q 361 923 336 937 q 425 909 386 909 q 494 923 467 909 q 536 954 520 937 q 562 1000 554 974 l 597 1000 "},"Ū":{"x_min":63.75,"x_max":1188.921875,"ha":1243,"o":"m 734 972 l 1188 972 l 1188 947 q 1128 939 1152 947 q 1092 918 1105 931 q 1074 888 1079 905 q 1069 852 1069 871 l 1069 119 q 1073 89 1069 105 q 1090 59 1078 73 q 1126 34 1103 44 q 1188 25 1150 25 l 1188 0 l 854 0 l 854 101 q 800 51 830 75 q 736 10 771 28 q 658 -17 700 -6 q 567 -27 616 -27 q 444 -14 505 -27 q 327 23 383 -2 q 223 87 271 49 q 140 176 175 126 q 84 290 104 227 q 63 429 63 354 q 82 579 63 510 q 131 705 101 648 q 202 806 162 761 q 282 886 241 851 q 502 1016 379 967 l 520 1000 q 501 982 518 998 q 459 936 484 967 q 407 859 435 906 q 356 748 379 813 q 316 600 332 684 q 301 413 301 517 q 322 241 301 315 q 381 119 343 168 q 471 45 419 69 q 584 21 523 21 q 688 42 639 21 q 774 101 737 63 q 832 191 811 139 q 854 307 854 244 l 854 852 q 850 882 854 866 q 833 913 845 899 q 796 937 820 927 q 734 947 773 947 l 734 972 m 805 1041 l 436 1041 l 436 1105 l 805 1105 l 805 1041 "},"ª":{"x_min":98.34375,"x_max":715.53125,"ha":802,"o":"m 392 987 q 457 980 427 987 q 510 961 486 972 q 549 937 533 950 q 576 915 566 925 q 642 951 607 938 q 710 966 678 965 l 715 951 q 680 926 695 943 q 656 886 667 911 q 645 819 646 860 q 644 743 644 783 q 644 669 644 703 q 644 612 644 635 q 644 585 644 588 q 654 518 644 544 q 678 478 665 493 q 714 454 694 461 l 708 438 q 657 446 684 439 q 605 465 631 453 q 559 496 580 478 q 524 537 537 514 q 500 502 515 520 q 464 472 486 485 q 414 450 443 458 q 348 441 385 441 q 240 463 286 441 q 161 522 193 486 q 114 603 130 558 q 98 694 98 648 q 116 798 98 746 q 172 892 135 850 q 263 961 208 934 q 392 987 318 987 m 393 491 q 448 507 427 491 q 483 545 470 522 q 503 593 497 568 q 511 636 509 617 l 515 796 q 500 873 513 839 q 486 902 495 887 q 464 927 477 916 q 435 944 452 937 q 396 951 418 951 q 331 933 360 951 q 281 884 302 915 q 249 811 261 853 q 238 723 238 770 q 251 619 238 663 q 286 547 265 575 q 336 505 308 518 q 393 491 364 491 m 715 388 l 715 339 l 98 339 l 98 388 l 715 388 "},"Œ":{"x_min":65.109375,"x_max":1791.859375,"ha":1854,"o":"m 1761 755 q 1710 831 1741 798 q 1639 887 1678 864 q 1557 922 1600 910 q 1471 934 1513 934 q 1382 917 1424 934 q 1305 872 1341 901 q 1241 804 1270 843 q 1189 718 1211 764 q 1153 622 1167 672 q 1133 522 1139 572 l 1711 522 q 1689 462 1696 493 q 1678 403 1682 430 q 1673 341 1674 371 l 1651 337 q 1629 409 1642 381 q 1591 454 1616 438 q 1522 477 1565 470 q 1410 483 1479 483 l 1129 483 l 1129 454 q 1157 294 1129 371 q 1236 158 1185 217 q 1358 62 1287 98 q 1515 26 1429 26 q 1606 36 1566 26 q 1674 61 1645 46 q 1723 93 1703 75 q 1755 128 1743 111 q 1774 157 1768 144 q 1785 173 1781 169 l 1773 78 q 1728 36 1757 56 q 1657 0 1698 16 q 1565 -25 1616 -15 q 1455 -34 1514 -34 q 1321 -22 1386 -34 q 1198 14 1256 -9 q 1091 72 1140 37 q 1003 151 1041 107 q 927 79 969 112 q 833 22 885 46 q 722 -14 782 -1 q 594 -27 662 -27 q 436 -6 508 -27 q 304 52 363 14 q 201 139 246 89 q 126 246 156 189 q 80 365 95 303 q 65 486 65 426 q 80 601 65 542 q 126 716 96 661 q 202 820 157 771 q 306 906 247 870 q 437 964 364 943 q 594 986 510 986 q 736 971 670 986 q 856 929 801 956 q 955 865 911 902 q 1032 783 999 828 q 1173 892 1093 849 q 1346 956 1253 935 q 1456 971 1394 968 q 1582 975 1519 975 q 1696 973 1642 975 q 1787 972 1751 972 q 1776 915 1780 940 q 1773 869 1773 891 q 1778 812 1773 838 q 1791 756 1783 786 l 1761 755 m 298 489 q 304 375 298 431 q 325 267 311 318 q 362 172 339 216 q 417 96 385 128 q 493 44 450 63 q 590 25 535 25 q 688 44 644 25 q 766 96 732 63 q 824 174 800 130 q 865 270 849 219 q 889 375 881 320 q 898 482 897 430 q 892 590 898 535 q 871 694 885 644 q 833 787 856 744 q 777 863 810 830 q 700 913 744 895 q 601 931 657 931 q 504 915 547 931 q 427 869 461 899 q 369 798 394 839 q 330 708 345 758 q 306 603 314 659 q 298 489 299 548 "},"Ą":{"x_min":-2.71875,"x_max":1180.78125,"ha":1104,"o":"m 1180 -151 q 1170 -202 1180 -178 q 1142 -244 1160 -226 q 1100 -272 1124 -262 q 1049 -283 1077 -283 q 986 -272 1015 -283 q 936 -242 957 -261 q 903 -193 915 -222 q 891 -130 891 -165 q 913 -63 891 -96 q 967 -6 934 -30 q 915 -2 937 -6 q 876 6 892 1 q 845 19 858 12 q 793 63 815 36 q 753 122 771 90 q 720 186 735 153 q 693 248 706 219 l 676 284 q 548 239 607 265 q 442 189 489 214 q 365 144 396 164 q 320 113 333 123 q 264 64 295 86 q 194 27 233 42 q 108 4 155 12 q 4 -4 61 -4 l -2 25 q 110 67 63 35 q 193 144 158 98 q 252 247 227 189 q 295 368 276 304 q 324 445 306 404 q 367 524 342 486 q 426 596 393 562 q 501 653 459 630 q 478 697 489 674 q 457 743 467 720 q 428 803 442 770 q 395 864 414 836 q 349 911 375 892 q 284 930 323 930 q 231 924 257 930 q 181 909 205 918 l 172 937 q 291 970 231 956 q 412 984 352 984 q 468 981 440 984 q 522 967 496 977 q 565 941 544 959 q 605 896 586 922 q 641 842 624 871 q 672 784 657 813 q 698 728 687 754 q 719 683 710 702 q 838 426 779 555 q 965 173 897 298 q 991 129 977 151 q 1022 90 1005 107 q 1060 63 1039 73 q 1108 54 1081 53 q 1134 56 1117 54 q 1170 66 1150 58 l 1180 35 q 1107 11 1142 20 q 1041 -1 1072 2 q 993 -62 1007 -27 q 979 -130 979 -97 q 985 -178 979 -157 q 1001 -214 991 -200 q 1025 -237 1011 -229 q 1052 -245 1038 -245 q 1093 -234 1076 -245 q 1122 -208 1110 -223 q 1139 -177 1133 -193 q 1146 -151 1145 -161 l 1180 -151 m 539 575 q 506 516 521 546 q 480 454 492 485 q 457 391 467 422 q 437 331 447 360 q 415 270 427 300 q 388 213 403 241 q 507 276 439 243 q 654 331 576 308 l 539 575 "},"T":{"x_min":1.359375,"x_max":996.984375,"ha":994,"o":"m 747 0 l 293 0 l 293 25 q 353 32 330 25 q 389 53 376 40 q 407 83 402 66 q 412 119 412 100 l 412 919 l 326 919 q 250 913 290 919 q 171 891 210 908 q 95 845 132 874 q 29 769 59 816 l 1 773 q 29 836 19 802 q 44 901 39 870 q 51 972 50 936 l 996 972 q 982 933 987 953 q 973 892 976 912 q 968 854 969 872 q 967 823 967 836 q 967 810 967 815 q 968 800 967 804 q 969 791 969 795 l 944 787 q 927 839 942 817 q 891 875 912 861 q 844 899 870 890 q 793 912 818 908 q 747 918 769 916 q 712 919 725 919 l 628 919 l 628 119 q 632 89 628 105 q 649 59 636 73 q 685 34 661 44 q 747 25 708 25 l 747 0 "},"š":{"x_min":59.6875,"x_max":726.375,"ha":770,"o":"m 262 -13 q 184 -10 214 -13 q 134 -3 153 -7 q 103 3 115 0 q 78 6 90 6 q 85 48 83 29 q 87 83 87 67 q 83 126 87 106 q 73 168 79 146 l 96 169 q 140 112 111 137 q 205 70 169 87 q 279 44 240 53 q 352 35 318 35 q 428 47 395 35 q 484 78 461 58 q 519 124 507 97 q 531 184 531 151 q 517 241 531 219 q 479 276 503 263 q 422 296 455 290 q 352 307 389 303 q 291 314 324 309 q 226 326 259 318 q 163 347 193 334 q 110 382 133 361 q 73 433 87 403 q 59 505 59 463 q 79 590 59 554 q 131 653 99 627 q 205 697 163 680 q 291 724 247 714 q 380 737 336 733 q 459 741 423 741 q 571 735 523 741 q 651 729 619 729 q 642 683 644 705 q 640 644 640 661 q 643 602 640 622 q 654 560 647 582 l 630 559 q 607 612 618 588 q 573 653 596 636 q 510 680 550 670 q 397 690 469 690 q 349 682 374 690 q 303 658 324 674 q 269 619 282 642 q 255 563 255 595 q 274 497 255 521 q 319 459 293 472 q 374 441 345 446 q 422 436 402 437 q 479 429 446 434 q 544 417 511 425 q 611 395 578 408 q 669 360 643 381 q 710 307 695 338 q 726 234 726 276 q 706 139 726 179 q 650 71 685 99 q 569 27 615 44 q 471 1 522 10 q 366 -10 419 -7 q 262 -13 312 -13 m 214 1000 l 327 1000 l 426 865 l 513 1000 l 570 1000 l 440 801 l 348 801 l 214 1000 "},"Þ":{"x_min":46.125,"x_max":1096.015625,"ha":1136,"o":"m 1096 416 q 1056 247 1096 328 q 942 106 1017 167 q 760 8 868 44 q 515 -27 652 -27 q 446 -24 480 -27 q 380 -10 413 -20 l 380 -160 q 368 -193 380 -174 q 339 -234 357 -212 q 297 -282 320 -257 q 250 -336 274 -307 q 204 -395 226 -364 q 165 -458 181 -425 l 165 858 q 160 887 165 872 q 142 916 155 903 q 105 938 128 929 q 46 947 82 947 l 46 972 l 380 972 l 380 805 l 432 805 q 511 804 465 805 q 611 798 558 803 q 720 783 663 793 q 831 753 777 772 q 933 706 885 734 q 1017 637 981 678 q 1074 542 1053 596 q 1096 416 1096 487 m 873 365 q 848 519 873 455 q 783 626 824 583 q 691 695 743 670 q 584 735 638 721 q 476 753 529 748 q 380 758 423 757 l 380 52 q 463 25 418 31 q 548 18 507 18 q 661 33 612 18 q 746 74 710 48 q 807 135 782 101 q 846 208 831 170 q 867 287 860 246 q 873 365 873 327 "},"j":{"x_min":-283.5,"x_max":416.421875,"ha":449,"o":"m 35 729 l 416 729 l 416 702 q 372 697 389 702 q 344 683 354 692 q 329 663 333 674 q 324 638 324 651 l 326 189 q 289 -9 326 77 q 189 -155 253 -95 q 38 -245 126 -215 q -151 -276 -48 -276 q -193 -276 -176 -276 q -225 -275 -211 -275 q -252 -274 -239 -274 q -280 -273 -265 -273 q -271 -223 -274 -249 q -269 -179 -269 -196 q -273 -134 -269 -155 q -283 -91 -277 -113 l -261 -90 q -181 -189 -230 -153 q -70 -225 -132 -225 q 15 -198 -21 -225 q 76 -126 52 -170 q 112 -24 101 -81 q 124 91 124 32 l 126 637 q 121 659 124 647 q 107 680 117 670 q 80 696 97 690 q 35 702 63 702 l 35 729 "},"1":{"x_min":52.90625,"x_max":514.09375,"ha":550,"o":"m 514 25 l 514 0 l 52 0 l 52 25 q 115 31 91 25 q 154 47 140 37 q 174 69 168 56 q 183 96 181 82 l 183 634 q 174 662 181 650 q 153 684 168 675 q 114 698 139 693 q 52 704 90 704 l 52 729 l 383 729 l 383 120 q 387 83 383 101 q 405 52 392 65 q 445 32 419 40 q 514 25 471 25 "},"›":{"x_min":90.203125,"x_max":436.09375,"ha":488,"o":"m 436 413 l 436 318 l 90 124 l 90 230 l 345 360 l 345 369 l 90 503 l 90 604 l 436 413 "},"<":{"x_min":48.828125,"x_max":533.078125,"ha":625,"o":"m 533 794 l 533 694 l 139 476 l 139 467 l 533 254 l 533 148 l 48 425 l 48 520 l 533 794 "},"t":{"x_min":34.59375,"x_max":849.8125,"ha":876,"o":"m 34 686 q 58 760 53 723 q 63 825 63 797 q 63 838 63 832 q 63 848 63 844 q 62 857 62 853 l 87 861 q 104 809 89 830 q 140 772 118 787 q 187 749 161 758 q 238 736 212 740 q 284 730 263 731 q 319 729 305 729 l 849 729 q 826 654 831 691 q 820 590 820 617 q 820 576 820 582 q 821 567 820 571 q 822 558 821 562 l 797 554 q 780 606 794 584 q 744 642 765 628 q 697 666 722 657 q 646 679 671 674 q 600 685 621 683 q 565 686 578 686 l 552 686 q 437 654 488 682 q 352 580 387 626 q 298 476 317 535 q 279 352 280 417 q 290 228 279 288 q 324 124 301 169 q 387 51 348 78 q 480 25 425 25 q 550 37 520 25 q 600 73 579 50 q 636 126 621 96 q 662 193 651 157 l 822 139 q 766 75 797 104 q 693 24 734 46 q 600 -8 652 3 q 484 -21 549 -21 q 359 -6 416 -21 q 258 35 303 8 q 179 97 212 61 q 123 174 145 132 q 90 260 101 215 q 79 349 79 305 q 96 458 79 406 q 145 552 113 509 q 225 629 177 595 q 333 686 272 663 l 34 686 "},"¬":{"x_min":104.453125,"x_max":730.453125,"ha":844,"o":"m 730 514 l 730 250 l 588 250 l 588 422 l 104 422 l 104 514 l 730 514 "},"ù":{"x_min":19.671875,"x_max":962.390625,"ha":1003,"o":"m 400 704 q 354 698 371 704 q 326 682 336 692 q 312 660 316 672 q 308 633 308 647 l 308 231 q 324 142 308 179 q 366 84 341 105 q 424 56 392 63 q 486 56 455 49 q 562 93 529 67 q 618 156 596 119 q 653 239 641 193 q 665 335 665 285 l 665 633 q 662 655 665 643 q 649 678 659 668 q 621 696 639 689 q 573 704 603 704 l 573 729 l 962 729 l 962 704 q 916 698 934 704 q 888 682 898 692 q 874 660 878 672 q 870 633 870 647 l 870 95 q 874 73 870 85 q 887 50 877 61 q 914 32 896 40 q 962 25 932 25 l 962 0 l 665 0 l 665 137 q 631 86 651 111 q 584 40 611 61 q 522 3 557 18 q 444 -21 487 -12 q 339 -24 386 -31 q 256 1 293 -17 q 191 49 219 20 q 146 115 164 79 q 120 191 128 151 q 111 273 111 232 l 111 637 q 107 659 111 647 q 93 680 103 670 q 65 697 83 690 q 19 704 47 704 l 19 729 l 400 729 l 400 704 m 376 1000 l 511 801 l 437 801 l 224 1000 l 376 1000 "},"ĉ":{"x_min":58.328125,"x_max":769.78125,"ha":821,"o":"m 769 547 l 747 545 q 707 602 731 577 q 653 645 682 628 q 591 671 623 662 q 529 680 559 680 q 419 650 468 680 q 336 571 370 619 q 282 462 301 522 q 263 343 263 402 q 284 223 263 280 q 344 122 305 166 q 438 52 383 78 q 563 26 494 26 q 658 42 620 26 q 718 78 695 58 q 751 115 741 98 q 765 137 762 133 l 755 58 q 719 25 743 40 q 664 -2 696 9 q 594 -20 633 -13 q 511 -26 555 -26 q 327 -5 410 -26 q 184 60 244 16 q 91 169 124 103 q 58 324 58 236 q 80 465 60 404 q 137 572 101 526 q 222 648 172 617 q 333 697 272 678 q 463 724 393 716 q 609 731 533 731 q 697 730 659 731 q 766 729 735 729 q 757 678 760 705 q 755 634 755 652 q 759 590 755 611 q 769 547 763 569 m 646 801 l 532 801 l 434 935 l 346 801 l 290 801 l 420 1000 l 512 1000 l 646 801 "},"ï":{"x_min":37,"x_max":424.265625,"ha":461,"o":"m 421 0 l 40 0 l 40 25 q 86 30 68 25 q 114 46 104 36 q 128 68 124 56 q 132 95 132 81 l 132 632 q 128 654 132 642 q 115 677 125 667 q 87 695 105 688 q 40 702 69 702 l 40 729 l 421 729 l 421 702 q 376 697 394 702 q 347 682 358 691 q 333 662 337 674 q 328 637 328 650 l 328 95 q 332 73 328 85 q 345 50 335 61 q 373 32 355 40 q 421 25 391 25 l 421 0 m 190 894 q 185 864 190 878 q 169 839 179 849 q 145 822 159 828 q 115 816 131 816 q 84 822 98 816 q 59 839 70 828 q 43 864 49 849 q 37 894 37 878 q 43 924 37 910 q 59 949 49 938 q 84 966 70 959 q 115 972 98 972 q 145 966 131 972 q 169 949 159 959 q 185 924 179 938 q 190 894 190 910 m 424 894 q 418 864 424 878 q 402 839 412 849 q 378 822 392 828 q 348 816 364 816 q 317 822 332 816 q 293 839 303 828 q 276 864 282 849 q 270 894 270 878 q 276 924 270 910 q 293 949 282 938 q 317 966 303 959 q 348 972 332 972 q 378 966 364 972 q 402 949 392 959 q 418 924 412 938 q 424 894 424 910 "},"ī":{"x_min":40.015625,"x_max":421.171875,"ha":461,"o":"m 421 0 l 40 0 l 40 25 q 86 30 68 25 q 114 46 104 36 q 128 68 124 56 q 132 95 132 81 l 132 632 q 128 654 132 642 q 115 677 125 667 q 87 695 105 688 q 40 702 69 702 l 40 729 l 421 729 l 421 702 q 376 697 394 702 q 347 682 358 691 q 333 662 337 674 q 328 637 328 650 l 328 95 q 332 73 328 85 q 345 50 335 61 q 373 32 355 40 q 421 25 391 25 l 421 0 m 415 799 l 46 799 l 46 863 l 415 863 l 415 799 "},"Ò":{"x_min":65.109375,"x_max":1129.234375,"ha":1194,"o":"m 65 486 q 80 601 65 542 q 126 716 96 661 q 202 820 157 771 q 306 906 247 870 q 437 964 364 943 q 594 986 510 986 q 755 966 682 986 q 888 912 829 946 q 993 830 948 877 q 1068 727 1038 782 q 1113 610 1098 672 q 1129 486 1129 548 q 1113 365 1129 426 q 1068 247 1098 304 q 993 140 1038 190 q 888 52 948 90 q 755 -6 829 15 q 594 -27 682 -27 q 436 -6 508 -27 q 304 52 363 14 q 201 139 246 89 q 126 246 156 189 q 80 365 95 303 q 65 486 65 426 m 298 489 q 304 375 298 431 q 325 267 311 318 q 362 172 339 216 q 417 96 385 128 q 493 44 450 63 q 590 25 535 25 q 688 44 644 25 q 766 96 732 63 q 824 174 800 130 q 865 270 849 219 q 889 375 881 320 q 898 482 897 430 q 892 590 898 535 q 871 694 885 644 q 833 787 856 744 q 777 863 810 830 q 700 913 744 895 q 601 931 657 931 q 504 915 547 931 q 427 869 461 899 q 369 798 394 839 q 330 708 345 758 q 306 603 314 659 q 298 489 299 548 m 490 1240 l 625 1041 l 551 1041 l 338 1240 l 490 1240 "},"Ď":{"x_min":61.046875,"x_max":1174,"ha":1238,"o":"m 540 -33 q 355 0 442 -33 q 202 93 267 33 q 99 236 137 153 q 61 417 61 318 q 99 593 61 510 q 210 745 138 676 q 384 866 282 813 q 613 951 486 918 l 562 987 q 493 1064 514 1020 q 472 1155 472 1108 q 481 1222 472 1189 q 509 1284 491 1256 q 550 1335 526 1313 q 602 1369 574 1357 l 619 1344 q 573 1269 573 1311 q 609 1186 573 1230 q 711 1094 644 1142 q 910 939 824 1011 q 1054 794 996 866 q 1142 648 1112 722 q 1174 487 1171 573 q 1148 327 1174 400 q 1079 197 1123 255 q 975 96 1035 139 q 844 24 914 52 q 696 -18 773 -4 q 540 -33 619 -33 m 944 432 q 930 560 944 499 q 882 679 915 621 q 795 795 849 737 q 662 914 741 853 q 560 878 609 902 q 471 820 512 854 q 396 742 430 786 q 339 651 362 699 q 303 550 316 602 q 290 444 290 497 q 301 340 290 391 q 334 242 313 288 q 387 156 356 196 q 457 88 418 117 q 542 44 496 60 q 641 27 589 27 q 759 57 704 27 q 856 140 815 86 q 921 267 897 193 q 944 432 944 341 m 648 1367 l 761 1367 l 860 1232 l 947 1367 l 1004 1367 l 874 1168 l 782 1168 l 648 1367 "},"&":{"x_min":63.75,"x_max":1040.390625,"ha":1064,"o":"m 291 559 q 250 602 271 579 q 212 649 229 624 q 185 701 196 674 q 174 758 174 728 q 202 868 174 823 q 274 940 229 912 q 374 980 318 968 q 484 992 429 992 q 559 987 521 992 q 631 970 596 982 q 697 940 666 959 q 750 896 727 922 q 786 835 773 870 q 798 758 798 801 q 781 678 798 716 q 733 608 765 640 q 658 549 702 575 q 559 501 614 522 l 804 245 q 837 333 826 288 q 849 421 849 378 l 1020 341 q 963 241 995 288 q 891 153 931 193 l 1040 0 l 833 0 l 773 61 q 636 1 710 22 q 483 -19 563 -19 q 381 -13 432 -19 q 283 5 330 -8 q 196 41 236 18 q 127 95 156 63 q 80 171 97 127 q 63 271 63 215 q 77 356 63 315 q 121 433 92 397 q 195 499 151 470 q 301 548 240 529 l 291 559 m 262 250 q 277 173 262 212 q 321 100 293 133 q 391 46 349 67 q 483 25 432 25 q 609 51 550 23 q 714 123 667 78 l 405 441 q 297 358 332 404 q 262 250 262 311 m 642 784 q 627 867 642 835 q 589 917 612 899 q 538 941 566 935 q 484 947 510 947 q 429 939 457 947 q 380 911 402 930 q 344 860 358 891 q 330 781 330 828 q 346 732 330 758 q 386 679 363 705 q 433 629 408 653 q 472 591 457 606 q 536 621 505 603 q 591 664 567 640 q 629 718 615 688 q 642 784 642 748 "},"˝":{"x_min":0,"x_max":474.75,"ha":475,"o":"m 474 1000 l 267 801 l 187 801 l 322 1000 l 474 1000 m 287 1000 l 73 801 l 0 801 l 134 1000 l 287 1000 "},"I":{"x_min":54.265625,"x_max":508.671875,"ha":562,"o":"m 508 0 l 54 0 l 54 25 q 114 32 90 25 q 150 53 137 40 q 168 83 164 66 q 173 119 173 100 l 173 858 q 168 887 173 872 q 150 916 163 903 q 113 938 137 929 q 54 947 90 947 l 54 972 l 508 972 l 508 947 q 447 939 471 947 q 411 918 424 931 q 393 888 398 905 q 388 852 388 871 l 388 119 q 393 89 388 105 q 409 59 397 73 q 446 34 422 44 q 508 25 470 25 l 508 0 "},"G":{"x_min":66.46875,"x_max":1125.171875,"ha":1164,"o":"m 497 411 q 547 454 516 430 q 622 499 578 478 q 724 534 667 520 q 852 548 781 548 q 952 536 903 548 q 1039 495 1001 523 q 1101 423 1077 467 q 1125 315 1125 379 q 1102 217 1125 263 q 1041 131 1080 170 q 948 62 1001 92 q 835 9 895 31 q 708 -23 774 -11 q 577 -34 642 -34 q 441 -20 506 -34 q 319 21 376 -6 q 216 89 262 48 q 136 181 169 129 q 84 296 103 233 q 66 433 66 360 q 87 571 67 507 q 139 688 106 634 q 217 785 172 741 q 315 863 262 829 q 425 920 367 896 q 543 956 483 943 q 596 966 567 963 q 656 971 625 969 q 719 974 687 973 q 784 975 752 975 q 902 973 846 975 q 995 972 958 972 q 985 915 988 940 q 982 869 982 891 q 986 812 982 838 q 1000 756 991 786 l 969 755 q 916 831 949 798 q 845 886 884 864 q 761 919 805 908 q 673 930 716 930 q 546 907 602 930 q 450 846 491 884 q 379 758 408 807 q 332 655 350 708 q 306 549 314 602 q 298 451 298 496 q 324 282 298 360 q 397 148 351 204 q 507 59 444 91 q 645 27 571 27 q 738 40 698 27 q 807 73 778 52 q 855 120 836 93 q 886 175 874 147 q 902 232 897 204 q 906 284 906 261 q 893 359 906 324 q 856 421 881 394 q 796 462 832 447 q 715 478 760 478 q 641 467 675 478 q 581 443 607 457 q 537 415 555 430 q 511 394 519 401 l 497 411 "},"`":{"x_min":0,"x_max":287.5625,"ha":288,"o":"m 152 1000 l 287 801 l 213 801 l 0 1000 l 152 1000 "},"·":{"x_min":79.359375,"x_max":290.28125,"ha":370,"o":"m 79 486 q 87 527 79 507 q 109 560 95 546 q 143 583 124 575 q 184 591 162 591 q 225 583 206 591 q 259 560 244 575 q 281 527 273 546 q 290 486 290 507 q 281 445 290 464 q 259 411 273 425 q 225 388 244 397 q 184 380 206 380 q 143 388 162 380 q 109 411 124 397 q 87 445 95 425 q 79 486 79 464 "},"ŏ":{"x_min":54.265625,"x_max":895.9375,"ha":952,"o":"m 54 364 q 65 452 54 406 q 98 540 75 497 q 154 622 120 583 q 235 689 189 660 q 341 735 282 718 q 473 752 400 752 q 610 737 549 752 q 717 694 670 721 q 798 629 764 666 q 853 548 832 592 q 885 458 875 505 q 895 364 895 411 q 885 273 895 319 q 853 185 875 227 q 797 104 831 142 q 717 39 764 67 q 609 -4 670 11 q 473 -21 548 -21 q 341 -5 400 -21 q 236 38 282 10 q 155 104 189 66 q 98 184 121 141 q 65 273 75 227 q 54 364 54 319 m 261 366 q 270 241 261 302 q 302 132 279 180 q 366 55 326 85 q 469 25 406 26 q 543 39 510 25 q 600 77 575 52 q 641 134 624 101 q 669 204 658 166 q 685 281 680 241 q 691 360 690 321 q 687 442 691 400 q 674 521 683 483 q 648 593 664 560 q 609 652 632 627 q 553 691 585 676 q 478 705 520 705 q 374 677 415 705 q 307 602 333 649 q 272 494 282 555 q 261 366 261 432 m 646 1000 q 630 931 643 964 q 594 872 616 898 q 541 831 571 847 q 474 816 510 816 q 407 832 437 816 q 356 873 377 847 q 321 932 334 900 q 306 1000 308 965 l 341 1000 q 369 954 352 974 q 410 923 385 937 q 474 909 435 909 q 543 923 516 909 q 585 954 569 937 q 611 1000 603 974 l 646 1000 "},"¿":{"x_min":55.609375,"x_max":809.796875,"ha":853,"o":"m 444 558 l 499 558 q 490 481 499 514 q 464 422 480 448 q 427 375 448 396 q 386 335 407 354 q 345 294 365 315 q 308 248 324 274 q 283 192 293 223 q 273 119 273 160 q 289 13 273 56 q 333 -56 305 -29 q 396 -95 360 -83 q 469 -107 431 -107 q 543 -93 508 -107 q 607 -56 578 -80 q 659 2 636 -31 q 695 79 681 37 l 809 -4 q 735 -79 775 -48 q 651 -127 695 -109 q 558 -153 607 -145 q 457 -161 510 -161 q 361 -154 409 -161 q 268 -132 312 -147 q 184 -94 223 -118 q 117 -37 145 -70 q 72 40 88 -4 q 55 139 55 84 q 72 227 55 190 q 116 291 88 264 q 178 338 143 318 q 249 375 213 358 q 321 409 286 392 q 383 446 356 425 q 427 493 411 466 q 444 558 444 520 m 345 726 q 355 773 345 751 q 382 813 365 796 q 421 839 399 830 q 469 849 444 849 q 516 839 494 849 q 556 813 539 830 q 582 773 573 796 q 592 726 592 751 q 582 678 592 701 q 556 639 573 656 q 516 612 539 622 q 469 602 494 602 q 421 612 444 602 q 382 639 399 622 q 355 678 365 656 q 345 726 345 701 "},"ý":{"x_min":21.03125,"x_max":922.390625,"ha":956,"o":"m 533 729 l 922 729 l 922 704 q 876 698 893 704 q 848 682 858 692 q 834 660 838 672 q 830 633 830 647 l 829 108 q 815 0 829 47 q 775 -86 800 -48 q 716 -153 750 -124 q 640 -202 681 -181 q 554 -238 600 -223 q 462 -262 509 -252 q 424 -268 446 -265 q 378 -272 402 -271 q 329 -275 354 -274 q 282 -276 304 -276 q 193 -275 231 -276 q 124 -273 156 -273 q 133 -223 131 -249 q 136 -179 136 -196 q 132 -134 136 -155 q 122 -91 128 -113 l 144 -90 q 183 -147 159 -122 q 237 -189 208 -172 q 299 -216 267 -206 q 362 -225 332 -225 q 471 -206 423 -225 q 554 -153 520 -187 q 607 -71 588 -120 q 625 35 625 -23 l 625 122 q 592 75 611 98 q 548 33 573 52 q 490 0 522 14 q 417 -21 458 -13 q 316 -24 360 -31 q 237 1 271 -17 q 179 49 203 20 q 141 115 155 79 q 119 191 126 151 q 112 273 112 232 l 112 637 q 108 659 112 647 q 94 680 105 670 q 66 697 84 690 q 21 704 48 704 l 21 729 l 401 729 l 401 704 q 356 698 374 704 q 328 684 339 693 q 314 663 318 675 q 309 638 309 651 l 309 231 q 322 142 309 179 q 354 84 334 105 q 402 56 375 63 q 459 56 429 49 q 534 93 503 67 q 585 156 565 119 q 615 239 606 193 q 625 335 625 285 l 625 633 q 621 655 625 643 q 608 678 618 668 q 580 696 598 689 q 533 704 562 704 l 533 729 m 727 1000 l 513 801 l 440 801 l 574 1000 l 727 1000 "},"º":{"x_min":98.34375,"x_max":687.71875,"ha":786,"o":"m 98 715 q 115 808 98 760 q 169 896 132 856 q 260 961 205 935 q 392 987 316 987 q 527 963 471 987 q 619 901 583 940 q 671 813 655 862 q 687 715 687 765 q 671 620 687 668 q 618 534 654 573 q 527 470 583 495 q 392 445 471 445 q 261 470 316 445 q 169 533 205 494 q 115 620 133 572 q 98 715 98 668 m 242 718 q 249 630 242 672 q 271 554 255 588 q 316 500 288 521 q 388 479 344 480 q 461 500 432 479 q 509 555 491 522 q 535 631 527 589 q 544 714 543 672 q 538 799 544 756 q 514 876 531 842 q 468 933 497 911 q 394 955 440 955 q 322 935 351 955 q 276 883 293 916 q 250 807 258 850 q 242 718 243 764 m 687 388 l 687 339 l 98 339 l 98 388 l 687 388 "},"ź":{"x_min":40.015625,"x_max":722.3125,"ha":761,"o":"m 50 0 l 40 34 l 40 35 l 511 693 l 270 693 q 213 688 242 693 q 158 672 183 684 q 112 638 132 659 q 86 583 93 617 l 67 585 q 65 636 67 611 q 56 682 62 657 q 40 729 50 707 l 710 729 l 720 693 l 248 35 l 491 35 q 550 40 520 35 q 605 56 579 44 q 650 89 631 68 q 676 145 669 111 l 695 141 q 698 91 695 116 q 706 45 701 69 q 722 0 711 21 l 50 0 m 612 1000 l 398 801 l 325 801 l 459 1000 l 612 1000 "},"ű":{"x_min":19.671875,"x_max":962.390625,"ha":1003,"o":"m 400 704 q 354 698 371 704 q 326 682 336 692 q 312 660 316 672 q 308 633 308 647 l 308 231 q 324 142 308 179 q 366 84 341 105 q 424 56 392 63 q 486 56 455 49 q 562 93 529 67 q 618 156 596 119 q 653 239 641 193 q 665 335 665 285 l 665 633 q 662 655 665 643 q 649 678 659 668 q 621 696 639 689 q 573 704 603 704 l 573 729 l 962 729 l 962 704 q 916 698 934 704 q 888 682 898 692 q 874 660 878 672 q 870 633 870 647 l 870 95 q 874 73 870 85 q 887 50 877 61 q 914 32 896 40 q 962 25 932 25 l 962 0 l 665 0 l 665 137 q 631 86 651 111 q 584 40 611 61 q 522 3 557 18 q 444 -21 487 -12 q 339 -24 386 -31 q 256 1 293 -17 q 191 49 219 20 q 146 115 164 79 q 120 191 128 151 q 111 273 111 232 l 111 637 q 107 659 111 647 q 93 680 103 670 q 65 697 83 690 q 19 704 47 704 l 19 729 l 400 729 l 400 704 m 838 1000 l 631 801 l 551 801 l 686 1000 l 838 1000 m 651 1000 l 437 801 l 364 801 l 498 1000 l 651 1000 "},"Ǽ":{"x_min":-2.71875,"x_max":1544.3125,"ha":1607,"o":"m 1513 755 q 1462 831 1494 798 q 1392 887 1431 864 q 1309 922 1353 910 q 1223 934 1266 934 q 1135 917 1176 934 q 1058 872 1093 901 q 993 804 1023 843 q 942 718 964 764 q 906 622 921 672 q 886 522 891 572 l 1464 522 q 1442 462 1450 493 q 1431 403 1434 430 q 1426 341 1426 371 l 1404 337 q 1382 409 1395 381 q 1344 454 1370 438 q 1275 477 1318 470 q 1162 483 1231 483 l 881 483 l 881 454 q 894 346 881 399 q 931 245 907 293 q 989 158 954 198 q 1066 88 1024 118 q 1160 42 1109 59 q 1268 26 1211 26 q 1359 36 1319 26 q 1427 61 1398 46 q 1475 93 1456 75 q 1508 128 1495 111 q 1527 157 1521 144 q 1537 173 1534 169 l 1526 78 q 1481 36 1511 56 q 1410 0 1451 16 q 1318 -25 1369 -15 q 1208 -34 1267 -34 q 1036 -13 1119 -34 q 885 46 954 7 q 764 142 816 86 q 683 269 712 198 q 679 277 681 274 q 676 284 677 280 q 548 239 607 265 q 442 189 489 214 q 365 144 396 164 q 320 113 333 123 q 264 64 295 86 q 194 27 233 42 q 108 4 155 12 q 4 -4 61 -4 l -2 25 q 110 67 63 35 q 193 144 158 98 q 252 247 227 189 q 295 368 276 304 q 324 445 306 404 q 367 524 342 486 q 426 596 393 562 q 501 653 459 630 q 478 697 489 674 q 457 743 467 720 q 433 791 446 763 q 404 848 420 820 q 368 897 387 876 q 328 925 349 919 q 306 928 317 927 q 284 930 295 930 q 231 924 257 930 q 181 909 205 918 l 172 937 q 291 970 231 956 q 412 984 352 984 q 468 981 440 984 q 522 967 496 977 q 564 941 543 959 q 602 898 584 923 q 637 846 621 874 q 668 789 654 817 q 694 734 682 760 q 715 689 706 708 q 785 785 744 741 q 875 862 826 828 q 981 919 925 895 q 1098 956 1038 942 q 1209 971 1146 968 q 1334 975 1271 975 q 1449 973 1395 975 q 1540 972 1503 972 q 1529 915 1532 940 q 1526 869 1526 891 q 1531 812 1526 838 q 1544 756 1536 786 l 1513 755 m 539 575 q 506 516 521 546 q 480 454 492 485 q 457 391 467 422 q 437 331 447 360 q 415 270 427 300 q 388 213 403 241 q 507 276 439 243 q 654 331 576 308 l 539 575 m 1019 1146 l 805 947 l 732 947 l 866 1146 l 1019 1146 "},"ń":{"x_min":40.015625,"x_max":984.78125,"ha":1025,"o":"m 421 0 l 40 0 l 40 25 q 86 30 68 25 q 114 46 104 36 q 128 68 124 56 q 132 95 132 81 l 132 636 q 128 658 132 646 q 114 679 124 670 q 86 696 104 689 q 40 702 68 702 l 40 729 l 421 729 l 421 702 q 376 697 394 702 q 347 682 358 691 q 333 662 337 674 q 328 637 328 650 l 328 465 q 385 365 352 418 q 463 259 419 311 q 566 157 508 206 q 695 70 623 108 l 695 632 q 692 654 695 642 q 679 677 689 667 q 652 695 670 688 q 604 702 634 702 l 604 729 l 984 729 l 984 702 q 940 697 957 702 q 911 682 922 691 q 897 662 901 674 q 893 637 893 650 l 893 91 q 896 69 893 81 q 910 48 900 58 q 938 31 921 38 q 984 25 956 25 l 984 0 l 695 0 q 595 41 646 12 q 496 107 543 70 q 405 185 448 144 q 328 261 362 225 l 328 95 q 332 73 328 85 q 345 50 335 61 q 373 32 355 40 q 421 25 391 25 l 421 0 m 786 1000 l 572 801 l 499 801 l 633 1000 l 786 1000 "},";":{"x_min":87.484375,"x_max":301.125,"ha":389,"o":"m 119 -133 q 141 -86 136 -111 q 141 -34 145 -61 q 122 18 136 -8 q 87 70 108 44 l 194 177 l 301 70 q 277 16 292 44 q 241 -40 262 -10 q 194 -97 221 -69 q 136 -152 168 -126 l 119 -133 m 87 497 q 95 538 87 518 q 118 571 104 557 q 152 594 132 585 q 193 602 171 602 q 234 594 215 602 q 267 571 253 585 q 290 538 282 557 q 298 497 298 518 q 290 456 298 475 q 267 422 282 436 q 234 400 253 408 q 193 392 215 392 q 152 400 171 392 q 118 422 132 408 q 95 456 104 436 q 87 497 87 475 "},"Ġ":{"x_min":66.46875,"x_max":1125.171875,"ha":1164,"o":"m 497 411 q 547 454 516 430 q 622 499 578 478 q 724 534 667 520 q 852 548 781 548 q 952 536 903 548 q 1039 495 1001 523 q 1101 423 1077 467 q 1125 315 1125 379 q 1102 217 1125 263 q 1041 131 1080 170 q 948 62 1001 92 q 835 9 895 31 q 708 -23 774 -11 q 577 -34 642 -34 q 441 -20 506 -34 q 319 21 376 -6 q 216 89 262 48 q 136 181 169 129 q 84 296 103 233 q 66 433 66 360 q 87 571 67 507 q 139 688 106 634 q 217 785 172 741 q 315 863 262 829 q 425 920 367 896 q 543 956 483 943 q 596 966 567 963 q 656 971 625 969 q 719 974 687 973 q 784 975 752 975 q 902 973 846 975 q 995 972 958 972 q 985 915 988 940 q 982 869 982 891 q 986 812 982 838 q 1000 756 991 786 l 969 755 q 916 831 949 798 q 845 886 884 864 q 761 919 805 908 q 673 930 716 930 q 546 907 602 930 q 450 846 491 884 q 379 758 408 807 q 332 655 350 708 q 306 549 314 602 q 298 451 298 496 q 324 282 298 360 q 397 148 351 204 q 507 59 444 91 q 645 27 571 27 q 738 40 698 27 q 807 73 778 52 q 855 120 836 93 q 886 175 874 147 q 902 232 897 204 q 906 284 906 261 q 893 359 906 324 q 856 421 881 394 q 796 462 832 447 q 715 478 760 478 q 641 467 675 478 q 581 443 607 457 q 537 415 555 430 q 511 394 519 401 l 497 411 m 700 1119 q 695 1089 700 1103 q 679 1064 689 1074 q 655 1047 669 1053 q 625 1041 641 1041 q 594 1047 608 1041 q 569 1064 580 1053 q 553 1089 559 1074 q 547 1119 547 1103 q 553 1149 547 1135 q 569 1174 559 1163 q 594 1191 580 1184 q 625 1197 608 1197 q 655 1191 641 1197 q 679 1174 669 1184 q 695 1149 689 1163 q 700 1119 700 1135 "},"6":{"x_min":73.921875,"x_max":975.28125,"ha":1046,"o":"m 975 333 q 956 222 975 272 q 905 133 937 172 q 830 65 873 94 q 736 17 786 36 q 633 -10 687 -1 q 527 -19 579 -19 q 420 -9 474 -19 q 316 23 366 0 q 221 82 265 46 q 144 171 177 118 q 92 295 111 224 q 73 455 73 365 q 108 682 73 581 q 207 853 143 783 q 360 962 271 924 q 558 1000 449 1000 q 679 991 627 1000 q 777 962 732 983 q 865 905 822 940 q 955 815 907 869 l 817 731 q 784 823 804 781 q 735 895 764 865 q 669 943 707 926 q 580 961 630 961 q 464 930 516 961 q 374 846 413 900 q 313 715 336 791 q 284 547 290 639 q 351 603 314 581 q 429 638 389 626 q 509 656 469 651 q 581 661 548 661 q 735 643 663 661 q 860 586 807 625 q 944 484 913 547 q 975 333 975 422 m 763 319 q 743 453 763 398 q 689 542 722 507 q 614 592 656 577 q 527 608 571 608 q 443 589 484 608 q 370 533 402 570 q 318 443 337 497 q 298 319 298 389 q 318 186 298 243 q 371 92 339 130 q 445 36 404 55 q 527 18 486 18 q 611 36 569 18 q 687 92 653 55 q 742 186 720 130 q 763 319 763 243 "},"n":{"x_min":40.015625,"x_max":984.78125,"ha":1025,"o":"m 421 0 l 40 0 l 40 25 q 86 30 68 25 q 114 46 104 36 q 128 68 124 56 q 132 95 132 81 l 132 636 q 128 658 132 646 q 114 679 124 670 q 86 696 104 689 q 40 702 68 702 l 40 729 l 421 729 l 421 702 q 376 697 394 702 q 347 682 358 691 q 333 662 337 674 q 328 637 328 650 l 328 465 q 385 365 352 418 q 463 259 419 311 q 566 157 508 206 q 695 70 623 108 l 695 632 q 692 654 695 642 q 679 677 689 667 q 652 695 670 688 q 604 702 634 702 l 604 729 l 984 729 l 984 702 q 940 697 957 702 q 911 682 922 691 q 897 662 901 674 q 893 637 893 650 l 893 91 q 896 69 893 81 q 910 48 900 58 q 938 31 921 38 q 984 25 956 25 l 984 0 l 695 0 q 595 41 646 12 q 496 107 543 70 q 405 185 448 144 q 328 261 362 225 l 328 95 q 332 73 328 85 q 345 50 335 61 q 373 32 355 40 q 421 25 391 25 l 421 0 "},"ģ":{"x_min":19.671875,"x_max":820.65625,"ha":855,"o":"m 19 686 q 43 760 38 723 q 48 825 48 797 q 48 838 48 832 q 48 848 48 844 q 47 857 47 853 l 71 861 q 89 809 74 830 q 125 772 103 787 q 172 749 146 758 q 223 736 198 740 q 269 730 248 731 q 304 729 290 729 l 820 729 q 796 654 802 691 q 791 590 791 617 q 791 576 791 582 q 792 567 791 571 q 792 558 792 562 l 768 554 q 751 606 765 584 q 715 642 736 628 q 668 666 693 657 q 617 679 642 674 q 571 685 592 683 q 536 686 549 686 l 411 686 q 352 673 380 685 q 303 641 324 662 q 270 591 282 621 q 258 524 258 562 q 281 433 258 474 q 343 358 305 392 q 431 294 382 324 q 532 234 480 263 q 632 174 583 204 q 720 108 681 143 q 782 32 758 73 q 805 -59 805 -8 q 787 -142 805 -103 q 730 -211 769 -181 q 627 -258 690 -240 q 473 -275 564 -275 q 331 -258 395 -275 q 218 -212 268 -242 q 130 -141 168 -183 q 67 -50 93 -100 l 242 48 q 261 -55 246 -6 q 301 -143 275 -105 q 367 -204 328 -181 q 462 -229 407 -227 q 516 -221 491 -229 q 560 -198 541 -212 q 590 -162 579 -183 q 601 -115 601 -141 q 578 -49 601 -80 q 517 11 555 -18 q 431 70 479 41 q 332 132 383 100 q 233 200 282 164 q 147 276 185 235 q 86 365 109 317 q 63 472 63 414 q 77 547 63 514 q 114 607 91 581 q 168 652 137 633 q 231 686 198 672 l 19 686 m 488 1052 q 470 1014 474 1034 q 470 973 466 994 q 485 930 474 952 q 513 889 496 909 l 428 803 l 342 889 q 390 977 357 929 q 474 1068 424 1025 l 488 1052 "},"¤":{"x_min":48.828125,"x_max":368.28125,"ha":429,"o":"m 284 600 q 278 656 284 634 q 260 690 271 678 q 237 708 250 703 q 213 712 225 712 q 189 706 202 712 q 167 686 177 699 q 150 650 157 672 q 144 600 144 629 q 150 550 144 571 q 167 515 157 529 q 189 494 177 501 q 213 487 202 487 q 238 494 225 487 q 261 514 250 501 q 278 549 271 528 q 284 600 284 571 m 140 734 q 213 754 174 754 q 247 750 231 754 q 279 739 263 746 l 322 796 l 368 768 l 322 708 q 355 659 343 687 q 368 600 368 631 q 356 541 368 568 q 324 493 344 514 l 368 437 l 323 409 l 283 461 q 250 449 267 453 q 213 445 232 445 q 136 466 172 445 l 92 409 l 48 437 l 95 499 q 70 546 79 520 q 61 600 61 571 q 70 655 61 629 q 98 701 80 681 l 48 768 l 94 796 l 140 734 "},"∂":{"x_min":52.90625,"x_max":894.578125,"ha":961,"o":"m 344 1016 q 488 964 418 997 q 619 886 558 931 q 730 784 680 841 q 817 661 781 727 q 874 520 854 595 q 894 364 894 445 q 884 273 894 319 q 852 185 874 227 q 796 104 830 142 q 715 39 763 67 q 608 -4 668 11 q 472 -21 547 -21 q 340 -5 399 -21 q 235 38 281 10 q 154 104 188 66 q 97 184 120 141 q 63 273 74 227 q 52 364 52 319 q 63 452 52 406 q 96 540 74 497 q 153 622 119 583 q 234 689 187 660 q 340 735 280 718 q 472 752 399 752 q 548 748 512 752 q 616 734 583 743 q 561 817 592 779 q 492 888 530 855 q 411 948 455 920 q 316 1000 366 975 l 344 1016 m 259 366 q 268 241 259 302 q 301 132 278 180 q 365 55 324 85 q 467 25 405 26 q 541 39 509 25 q 598 77 574 52 q 640 134 623 101 q 668 204 657 166 q 683 281 678 241 q 690 360 689 321 q 686 442 690 400 q 672 521 682 483 q 647 593 663 560 q 607 652 631 627 q 551 691 583 676 q 476 705 518 705 q 373 677 414 705 q 306 602 331 649 q 270 494 281 555 q 259 366 260 432 "},"Ĝ":{"x_min":66.46875,"x_max":1125.171875,"ha":1164,"o":"m 497 411 q 547 454 516 430 q 622 499 578 478 q 724 534 667 520 q 852 548 781 548 q 952 536 903 548 q 1039 495 1001 523 q 1101 423 1077 467 q 1125 315 1125 379 q 1102 217 1125 263 q 1041 131 1080 170 q 948 62 1001 92 q 835 9 895 31 q 708 -23 774 -11 q 577 -34 642 -34 q 441 -20 506 -34 q 319 21 376 -6 q 216 89 262 48 q 136 181 169 129 q 84 296 103 233 q 66 433 66 360 q 87 571 67 507 q 139 688 106 634 q 217 785 172 741 q 315 863 262 829 q 425 920 367 896 q 543 956 483 943 q 596 966 567 963 q 656 971 625 969 q 719 974 687 973 q 784 975 752 975 q 902 973 846 975 q 995 972 958 972 q 985 915 988 940 q 982 869 982 891 q 986 812 982 838 q 1000 756 991 786 l 969 755 q 916 831 949 798 q 845 886 884 864 q 761 919 805 908 q 673 930 716 930 q 546 907 602 930 q 450 846 491 884 q 379 758 408 807 q 332 655 350 708 q 306 549 314 602 q 298 451 298 496 q 324 282 298 360 q 397 148 351 204 q 507 59 444 91 q 645 27 571 27 q 738 40 698 27 q 807 73 778 52 q 855 120 836 93 q 886 175 874 147 q 902 232 897 204 q 906 284 906 261 q 893 359 906 324 q 856 421 881 394 q 796 462 832 447 q 715 478 760 478 q 641 467 675 478 q 581 443 607 457 q 537 415 555 430 q 511 394 519 401 l 497 411 m 827 1050 l 713 1050 l 615 1184 l 527 1050 l 471 1050 l 601 1249 l 693 1249 l 827 1050 "},"p":{"x_min":31.875,"x_max":870.84375,"ha":928,"o":"m 31 729 l 362 729 q 478 721 419 729 q 594 695 537 713 q 701 649 651 678 q 789 579 751 621 q 848 483 826 538 q 870 356 870 427 q 841 206 870 275 q 759 86 812 137 q 633 7 706 35 q 472 -21 560 -21 q 394 -12 425 -21 q 337 10 362 -3 l 398 56 q 435 29 415 37 q 483 21 455 21 q 556 43 522 21 q 614 107 590 65 q 652 212 638 150 q 666 355 666 275 q 650 476 666 425 q 608 565 634 528 q 548 625 581 602 q 481 662 515 649 q 417 681 448 676 q 364 686 386 686 l 322 686 l 322 -179 q 325 -201 322 -189 q 337 -224 328 -213 q 364 -242 347 -235 q 412 -250 382 -250 l 412 -275 l 31 -275 l 31 -250 q 78 -244 60 -250 q 106 -228 96 -238 q 120 -206 116 -219 q 124 -179 124 -193 l 124 638 q 121 661 124 649 q 108 685 118 674 q 80 702 98 695 q 31 710 61 710 l 31 729 "},"‡":{"x_min":62.390625,"x_max":569.703125,"ha":632,"o":"m 223 834 l 223 1112 l 406 1112 l 406 834 l 569 834 l 569 743 l 406 743 l 406 230 l 569 230 l 569 139 l 406 139 l 406 -139 l 223 -139 l 223 139 l 62 139 l 62 230 l 223 230 l 223 743 l 62 743 l 62 834 l 223 834 "},"ň":{"x_min":40.015625,"x_max":984.78125,"ha":1025,"o":"m 421 0 l 40 0 l 40 25 q 86 30 68 25 q 114 46 104 36 q 128 68 124 56 q 132 95 132 81 l 132 636 q 128 658 132 646 q 114 679 124 670 q 86 696 104 689 q 40 702 68 702 l 40 729 l 421 729 l 421 702 q 376 697 394 702 q 347 682 358 691 q 333 662 337 674 q 328 637 328 650 l 328 465 q 385 365 352 418 q 463 259 419 311 q 566 157 508 206 q 695 70 623 108 l 695 632 q 692 654 695 642 q 679 677 689 667 q 652 695 670 688 q 604 702 634 702 l 604 729 l 984 729 l 984 702 q 940 697 957 702 q 911 682 922 691 q 897 662 901 674 q 893 637 893 650 l 893 91 q 896 69 893 81 q 910 48 900 58 q 938 31 921 38 q 984 25 956 25 l 984 0 l 695 0 q 595 41 646 12 q 496 107 543 70 q 405 185 448 144 q 328 261 362 225 l 328 95 q 332 73 328 85 q 345 50 335 61 q 373 32 355 40 q 421 25 391 25 l 421 0 m 334 1000 l 447 1000 l 546 865 l 633 1000 l 690 1000 l 560 801 l 468 801 l 334 1000 "},"ę":{"x_min":54.265625,"x_max":866.765625,"ha":907,"o":"m 752 -151 q 742 -202 752 -178 q 714 -244 732 -226 q 673 -272 697 -262 q 622 -283 649 -283 q 558 -272 588 -283 q 508 -242 529 -261 q 475 -193 487 -222 q 463 -130 463 -165 q 480 -70 463 -100 q 524 -18 497 -41 q 499 -20 512 -19 q 473 -21 486 -21 q 341 -5 400 -21 q 236 38 282 10 q 155 104 189 66 q 98 184 121 141 q 65 273 75 227 q 54 364 54 319 q 64 452 54 406 q 94 540 73 497 q 148 622 115 583 q 225 689 180 660 q 328 735 270 718 q 459 752 387 752 q 641 726 566 752 q 764 654 716 699 q 837 550 813 609 q 866 423 861 490 l 269 423 q 267 395 267 408 q 267 366 267 381 q 276 241 267 302 q 306 132 284 180 q 367 55 328 85 q 469 25 406 26 q 540 37 509 25 q 596 73 572 50 q 636 126 619 96 q 665 193 653 157 l 825 139 q 738 53 790 90 q 612 -2 686 16 q 565 -63 580 -28 q 551 -130 551 -97 q 557 -178 551 -157 q 574 -214 563 -200 q 597 -237 584 -229 q 625 -245 611 -245 q 665 -234 648 -245 q 694 -208 682 -223 q 711 -177 706 -193 q 718 -151 717 -161 l 752 -151 m 463 705 q 380 687 414 705 q 323 636 345 668 q 289 561 301 604 q 271 469 277 518 l 654 469 q 639 560 650 518 q 608 635 629 603 q 551 686 586 668 q 463 705 516 705 "},"S":{"x_min":70.53125,"x_max":923.734375,"ha":978,"o":"m 336 -18 q 233 -15 273 -18 q 168 -9 194 -12 q 126 -2 143 -5 q 92 0 109 0 q 103 55 100 30 q 107 103 107 81 q 101 159 107 133 q 88 215 96 185 l 119 216 q 176 138 138 173 q 261 76 214 102 q 358 35 307 50 q 455 21 409 21 q 556 40 510 21 q 636 90 602 59 q 688 162 669 122 q 706 245 706 202 q 685 321 706 292 q 628 368 663 351 q 546 395 592 386 q 453 409 501 404 q 374 419 417 413 q 289 435 332 424 q 207 464 246 446 q 137 510 168 482 q 88 577 107 537 q 70 673 70 617 q 96 788 70 739 q 164 871 122 836 q 261 929 206 906 q 374 965 316 952 q 490 983 432 978 q 594 988 547 988 q 672 986 636 988 q 739 980 708 983 q 796 974 770 977 q 844 972 822 972 q 833 915 836 940 q 830 868 830 891 q 835 812 830 838 q 848 756 840 786 l 817 755 q 797 805 807 780 q 774 850 788 829 q 742 890 761 872 q 692 921 722 908 q 618 941 662 934 q 512 948 575 948 q 431 933 470 948 q 360 892 391 918 q 310 830 329 866 q 291 751 291 794 q 305 687 291 714 q 341 642 319 661 q 392 613 364 624 q 448 595 420 601 q 502 585 476 588 q 544 581 527 583 q 617 573 576 579 q 699 557 657 568 q 782 527 741 545 q 854 480 822 509 q 904 409 885 451 q 923 312 923 368 q 898 185 923 238 q 829 95 872 132 q 728 36 786 58 q 604 2 670 14 q 470 -14 539 -10 q 336 -18 401 -18 "},"/":{"x_min":40.015625,"x_max":634.8125,"ha":676,"o":"m 634 972 l 213 0 l 40 0 l 461 972 l 634 972 "},"į":{"x_min":40.015625,"x_max":421.171875,"ha":461,"o":"m 375 -151 q 364 -202 375 -178 q 336 -244 354 -226 q 295 -272 318 -262 q 244 -283 271 -283 q 180 -272 209 -283 q 130 -242 151 -261 q 98 -193 109 -222 q 86 -130 86 -165 q 92 -94 86 -112 q 110 -58 99 -75 q 137 -26 122 -41 q 172 0 153 -11 l 40 0 l 40 25 q 86 30 68 25 q 114 46 104 36 q 128 68 124 56 q 132 95 132 81 l 132 632 q 128 654 132 642 q 115 677 125 667 q 87 695 105 688 q 40 702 69 702 l 40 729 l 421 729 l 421 702 q 376 697 394 702 q 347 682 358 691 q 333 662 337 674 q 328 637 328 650 l 328 95 q 332 73 328 85 q 345 50 335 61 q 373 32 355 40 q 421 25 391 25 l 421 0 l 240 0 q 189 -61 204 -25 q 173 -130 173 -96 q 179 -178 173 -157 q 196 -214 185 -200 q 220 -237 206 -229 q 247 -245 233 -245 q 287 -234 270 -245 q 316 -208 305 -223 q 334 -177 328 -193 q 340 -151 339 -161 l 375 -151 m 126 909 q 134 950 126 931 q 157 984 143 969 q 190 1006 171 998 q 231 1015 210 1015 q 272 1006 253 1015 q 306 984 292 998 q 329 950 320 969 q 337 909 337 931 q 329 868 337 887 q 306 834 320 849 q 272 812 292 820 q 231 804 253 804 q 190 812 210 804 q 157 834 171 820 q 134 868 143 849 q 126 909 126 887 "},"Ŧ":{"x_min":1.359375,"x_max":996.984375,"ha":994,"o":"m 412 458 l 412 919 l 326 919 q 250 913 290 919 q 171 891 210 908 q 95 845 132 874 q 29 769 59 816 l 1 773 q 29 836 19 802 q 44 901 39 870 q 51 972 50 936 l 996 972 q 982 933 987 953 q 973 892 976 912 q 968 854 969 872 q 967 823 967 836 q 967 810 967 815 q 968 800 967 804 q 969 791 969 795 l 944 787 q 927 839 942 817 q 891 875 912 861 q 844 899 870 890 q 793 912 818 908 q 747 918 769 916 q 712 919 725 919 l 628 919 l 628 458 l 796 458 l 796 366 l 628 366 l 628 119 q 632 89 628 105 q 649 59 636 73 q 685 34 661 44 q 747 25 708 25 l 747 0 l 293 0 l 293 25 q 353 32 330 25 q 389 53 376 40 q 407 83 402 66 q 412 119 412 100 l 412 366 l 240 366 l 240 458 l 412 458 "},"y":{"x_min":21.03125,"x_max":922.390625,"ha":956,"o":"m 533 729 l 922 729 l 922 704 q 876 698 893 704 q 848 682 858 692 q 834 660 838 672 q 830 633 830 647 l 829 108 q 815 0 829 47 q 775 -86 800 -48 q 716 -153 750 -124 q 640 -202 681 -181 q 554 -238 600 -223 q 462 -262 509 -252 q 424 -268 446 -265 q 378 -272 402 -271 q 329 -275 354 -274 q 282 -276 304 -276 q 193 -275 231 -276 q 124 -273 156 -273 q 133 -223 131 -249 q 136 -179 136 -196 q 132 -134 136 -155 q 122 -91 128 -113 l 144 -90 q 183 -147 159 -122 q 237 -189 208 -172 q 299 -216 267 -206 q 362 -225 332 -225 q 471 -206 423 -225 q 554 -153 520 -187 q 607 -71 588 -120 q 625 35 625 -23 l 625 122 q 592 75 611 98 q 548 33 573 52 q 490 0 522 14 q 417 -21 458 -13 q 316 -24 360 -31 q 237 1 271 -17 q 179 49 203 20 q 141 115 155 79 q 119 191 126 151 q 112 273 112 232 l 112 637 q 108 659 112 647 q 94 680 105 670 q 66 697 84 690 q 21 704 48 704 l 21 729 l 401 729 l 401 704 q 356 698 374 704 q 328 684 339 693 q 314 663 318 675 q 309 638 309 651 l 309 231 q 322 142 309 179 q 354 84 334 105 q 402 56 375 63 q 459 56 429 49 q 534 93 503 67 q 585 156 565 119 q 615 239 606 193 q 625 335 625 285 l 625 633 q 621 655 625 643 q 608 678 618 668 q 580 696 598 689 q 533 704 562 704 l 533 729 "},"≈":{"x_min":99.703125,"x_max":699.921875,"ha":777,"o":"m 699 773 q 682 686 696 729 q 644 608 668 642 q 586 553 620 574 q 508 531 552 531 q 445 540 473 531 q 394 563 417 550 q 351 593 370 577 q 313 622 331 609 q 276 645 295 636 q 236 654 257 654 q 187 640 205 654 q 160 606 169 626 q 149 565 151 586 q 147 531 147 544 l 99 531 q 112 621 101 577 q 145 698 123 664 q 204 753 168 732 q 294 773 240 773 q 352 765 326 773 q 401 742 379 756 q 443 714 424 729 q 481 685 463 698 q 517 663 499 672 q 554 654 535 654 q 600 668 582 654 q 629 701 618 682 q 643 740 639 720 q 648 773 647 760 l 699 773 m 699 523 q 682 436 696 479 q 644 358 668 392 q 586 303 620 324 q 508 282 552 282 q 445 291 473 282 q 394 314 417 300 q 351 343 370 327 q 313 372 331 358 q 276 395 295 385 q 236 404 257 404 q 187 389 205 404 q 160 356 169 375 q 149 315 151 336 q 147 282 147 295 l 99 282 q 112 371 101 327 q 145 448 123 415 q 204 502 168 482 q 294 523 240 523 q 352 514 326 523 q 401 492 379 505 q 443 463 424 479 q 481 435 463 448 q 517 413 499 421 q 554 404 535 404 q 600 418 582 404 q 629 451 618 432 q 643 490 639 470 q 648 523 647 510 l 699 523 "},"ǿ":{"x_min":54.265625,"x_max":895.9375,"ha":952,"o":"m 861 729 l 781 645 q 833 584 811 617 q 868 515 854 551 q 889 440 882 478 q 895 364 895 402 q 885 273 895 319 q 853 185 875 227 q 797 104 831 142 q 717 39 764 67 q 609 -4 670 11 q 473 -21 548 -21 q 330 -2 394 -21 q 219 50 267 16 l 172 0 l 82 0 l 168 91 q 117 152 139 120 q 82 220 96 185 q 61 291 67 255 q 54 364 54 328 q 65 452 54 406 q 98 540 75 497 q 154 622 120 583 q 235 689 189 660 q 341 735 282 718 q 473 752 400 752 q 617 734 554 752 q 729 686 680 716 l 771 729 l 861 729 m 691 360 q 687 445 691 402 q 672 529 682 489 l 299 136 q 364 56 323 86 q 469 25 405 26 q 543 39 510 25 q 600 77 575 52 q 641 134 624 101 q 669 204 658 166 q 685 281 680 241 q 691 360 690 321 m 261 366 q 264 284 261 324 q 276 206 267 243 l 645 597 q 617 641 633 621 q 580 675 601 661 q 534 697 560 689 q 478 705 509 705 q 374 677 415 705 q 307 602 333 649 q 272 494 282 555 q 261 366 261 432 m 723 1000 l 509 801 l 436 801 l 570 1000 l 723 1000 "},"g":{"x_min":19.671875,"x_max":820.65625,"ha":855,"o":"m 19 686 q 43 760 38 723 q 48 825 48 797 q 48 838 48 832 q 48 848 48 844 q 47 857 47 853 l 71 861 q 89 809 74 830 q 125 772 103 787 q 172 749 146 758 q 223 736 198 740 q 269 730 248 731 q 304 729 290 729 l 820 729 q 796 654 802 691 q 791 590 791 617 q 791 576 791 582 q 792 567 791 571 q 792 558 792 562 l 768 554 q 751 606 765 584 q 715 642 736 628 q 668 666 693 657 q 617 679 642 674 q 571 685 592 683 q 536 686 549 686 l 411 686 q 352 673 380 685 q 303 641 324 662 q 270 591 282 621 q 258 524 258 562 q 281 433 258 474 q 343 358 305 392 q 431 294 382 324 q 532 234 480 263 q 632 174 583 204 q 720 108 681 143 q 782 32 758 73 q 805 -59 805 -8 q 787 -142 805 -103 q 730 -211 769 -181 q 627 -258 690 -240 q 473 -275 564 -275 q 331 -258 395 -275 q 218 -212 268 -242 q 130 -141 168 -183 q 67 -50 93 -100 l 242 48 q 261 -55 246 -6 q 301 -143 275 -105 q 367 -204 328 -181 q 462 -229 407 -227 q 516 -221 491 -229 q 560 -198 541 -212 q 590 -162 579 -183 q 601 -115 601 -141 q 578 -49 601 -80 q 517 11 555 -18 q 431 70 479 41 q 332 132 383 100 q 233 200 282 164 q 147 276 185 235 q 86 365 109 317 q 63 472 63 414 q 77 547 63 514 q 114 607 91 581 q 168 652 137 633 q 231 686 198 672 l 19 686 "},"ĸ":{"x_min":33.234375,"x_max":950.1875,"ha":953,"o":"m 422 0 l 33 0 l 33 25 q 77 30 59 25 q 105 44 94 35 q 120 64 115 52 q 124 90 124 76 l 124 637 q 121 659 124 647 q 107 680 117 670 q 79 697 96 690 q 33 704 61 704 l 33 729 l 330 729 l 330 695 q 412 734 364 718 q 523 750 459 750 q 659 736 596 750 q 767 693 721 722 q 838 621 812 665 q 864 519 864 578 q 839 419 864 462 q 776 345 815 377 q 687 294 737 314 q 585 261 637 273 q 675 171 629 214 q 763 96 720 129 q 839 45 805 64 q 894 26 874 26 q 913 28 900 26 q 942 35 926 29 l 950 5 q 860 -19 902 -12 q 783 -26 819 -26 q 699 -9 743 -26 q 611 32 655 6 q 527 90 568 58 q 451 152 486 122 q 391 210 417 183 q 352 251 365 236 q 505 305 438 269 q 561 341 533 320 q 610 387 589 361 q 645 446 632 414 q 658 519 658 479 q 644 605 658 571 q 608 658 630 638 q 558 685 585 678 q 502 693 530 693 q 442 681 473 693 q 387 647 412 670 q 346 590 362 624 q 330 508 330 555 l 330 95 q 333 73 330 85 q 346 50 337 61 q 374 32 356 40 q 422 25 392 25 l 422 0 "},"²":{"x_min":70.53125,"x_max":527.65625,"ha":591,"o":"m 514 605 q 498 547 514 571 q 458 507 483 524 q 399 481 432 491 q 331 461 366 470 q 289 448 311 455 q 248 433 268 441 q 210 416 228 425 q 180 396 193 406 l 527 396 q 499 360 510 379 q 482 324 489 341 q 470 286 474 305 l 441 276 q 444 295 442 286 q 445 311 445 304 q 437 335 445 326 q 414 348 429 343 q 376 354 398 352 q 327 355 354 355 l 70 355 q 128 412 100 388 q 182 451 156 435 q 232 479 208 467 q 278 499 256 490 q 321 520 301 510 q 356 542 341 530 q 379 572 370 555 q 387 613 387 589 q 382 648 387 630 q 366 680 377 666 q 337 705 355 695 q 294 715 320 715 q 233 697 257 715 q 196 656 210 680 q 176 611 182 633 q 169 579 170 588 l 83 628 q 128 684 105 661 q 177 721 151 707 q 232 742 202 735 q 297 748 261 748 q 380 740 341 748 q 450 715 420 733 q 496 671 479 698 q 514 605 514 644 "},"–":{"x_min":108.515625,"x_max":663.984375,"ha":773,"o":"m 663 514 l 663 422 l 108 422 l 108 514 l 663 514 "},"ë":{"x_min":54.265625,"x_max":866.765625,"ha":907,"o":"m 269 423 q 267 395 267 408 q 267 366 267 381 q 276 241 267 302 q 306 132 284 180 q 367 55 328 85 q 469 25 406 26 q 540 37 509 25 q 596 73 572 50 q 636 126 619 96 q 665 193 653 157 l 825 139 q 767 75 800 104 q 689 24 733 46 q 591 -8 645 3 q 473 -21 537 -21 q 341 -5 400 -21 q 236 38 282 10 q 155 104 189 66 q 98 184 121 141 q 65 273 75 227 q 54 364 54 319 q 64 452 54 406 q 94 540 73 497 q 148 622 115 583 q 225 689 180 660 q 328 735 270 718 q 459 752 387 752 q 641 726 566 752 q 764 654 716 699 q 837 550 813 609 q 866 423 861 490 l 269 423 m 463 705 q 380 687 414 705 q 323 636 345 668 q 289 561 301 604 q 271 469 277 518 l 654 469 q 639 560 650 518 q 608 635 629 603 q 551 686 586 668 q 463 705 516 705 m 420 894 q 415 864 420 878 q 399 839 409 849 q 375 822 389 828 q 345 816 361 816 q 314 822 328 816 q 289 839 300 828 q 273 864 279 849 q 267 894 267 878 q 273 924 267 910 q 289 949 279 938 q 314 966 300 959 q 345 972 328 972 q 375 966 361 972 q 399 949 389 959 q 415 924 409 938 q 420 894 420 910 m 654 894 q 648 864 654 878 q 632 839 642 849 q 608 822 622 828 q 578 816 594 816 q 547 822 562 816 q 523 839 533 828 q 506 864 512 849 q 500 894 500 878 q 506 924 500 910 q 523 949 512 938 q 547 966 533 959 q 578 972 562 972 q 608 966 594 972 q 632 949 622 959 q 648 924 642 938 q 654 894 654 910 "},"J":{"x_min":-38.65625,"x_max":499.84375,"ha":539,"o":"m 46 972 l 499 972 l 499 947 q 440 940 463 947 q 404 919 417 932 q 385 890 390 906 q 380 855 380 874 l 380 388 q 362 167 380 266 q 316 -9 345 69 q 251 -147 288 -87 q 177 -250 215 -207 q -26 -402 87 -353 l -38 -380 q 63 -240 18 -326 q 100 -156 82 -203 q 133 -51 118 -109 q 156 75 147 6 q 165 226 165 145 l 165 858 q 160 887 165 872 q 142 916 155 903 q 105 938 128 929 q 46 947 82 947 l 46 972 "},"Ã":{"x_min":-2.71875,"x_max":1180.78125,"ha":1104,"o":"m 1180 35 q 1068 2 1119 10 q 976 -6 1017 -6 q 920 -3 944 -6 q 879 6 896 0 q 845 19 859 12 q 793 63 815 36 q 753 122 771 90 q 720 186 735 153 q 693 248 706 219 l 676 284 q 548 239 607 265 q 442 189 489 214 q 365 144 396 164 q 320 113 333 123 q 264 64 295 86 q 194 27 233 42 q 108 4 155 12 q 4 -4 61 -4 l -2 25 q 110 67 63 35 q 193 144 158 98 q 252 247 227 189 q 295 368 276 304 q 324 445 306 404 q 367 524 342 486 q 426 596 393 562 q 501 653 459 630 q 478 697 489 674 q 457 743 467 720 q 428 803 442 770 q 395 864 414 836 q 349 911 375 892 q 284 930 323 930 q 231 924 257 930 q 181 909 205 918 l 172 937 q 291 970 231 956 q 412 984 352 984 q 468 981 440 984 q 522 967 496 977 q 565 941 544 959 q 605 896 586 922 q 641 842 624 871 q 672 784 657 813 q 698 728 687 754 q 719 683 710 702 q 838 426 779 555 q 965 173 897 298 q 991 129 977 151 q 1022 90 1005 107 q 1060 63 1039 73 q 1108 54 1081 53 q 1134 56 1117 54 q 1170 66 1150 58 l 1180 35 m 539 575 q 506 516 521 546 q 480 454 492 485 q 457 391 467 422 q 437 331 447 360 q 415 270 427 300 q 388 213 403 241 q 507 276 439 243 q 654 331 576 308 l 539 575 m 711 1226 q 698 1159 708 1192 q 669 1100 687 1126 q 625 1057 651 1074 q 565 1041 598 1041 q 496 1056 524 1041 q 445 1088 468 1070 q 402 1119 422 1105 q 357 1134 381 1134 q 320 1123 333 1134 q 299 1097 306 1112 q 290 1067 292 1083 q 288 1041 288 1051 l 253 1041 q 262 1109 254 1076 q 287 1168 270 1142 q 332 1210 304 1194 q 401 1226 360 1226 q 465 1211 438 1226 q 515 1180 492 1197 q 558 1148 537 1163 q 600 1134 578 1134 q 635 1145 621 1134 q 657 1170 649 1155 q 668 1200 665 1185 q 672 1226 671 1215 l 711 1226 "},"ŷ":{"x_min":21.03125,"x_max":922.390625,"ha":956,"o":"m 533 729 l 922 729 l 922 704 q 876 698 893 704 q 848 682 858 692 q 834 660 838 672 q 830 633 830 647 l 829 108 q 815 0 829 47 q 775 -86 800 -48 q 716 -153 750 -124 q 640 -202 681 -181 q 554 -238 600 -223 q 462 -262 509 -252 q 424 -268 446 -265 q 378 -272 402 -271 q 329 -275 354 -274 q 282 -276 304 -276 q 193 -275 231 -276 q 124 -273 156 -273 q 133 -223 131 -249 q 136 -179 136 -196 q 132 -134 136 -155 q 122 -91 128 -113 l 144 -90 q 183 -147 159 -122 q 237 -189 208 -172 q 299 -216 267 -206 q 362 -225 332 -225 q 471 -206 423 -225 q 554 -153 520 -187 q 607 -71 588 -120 q 625 35 625 -23 l 625 122 q 592 75 611 98 q 548 33 573 52 q 490 0 522 14 q 417 -21 458 -13 q 316 -24 360 -31 q 237 1 271 -17 q 179 49 203 20 q 141 115 155 79 q 119 191 126 151 q 112 273 112 232 l 112 637 q 108 659 112 647 q 94 680 105 670 q 66 697 84 690 q 21 704 48 704 l 21 729 l 401 729 l 401 704 q 356 698 374 704 q 328 684 339 693 q 314 663 318 675 q 309 638 309 651 l 309 231 q 322 142 309 179 q 354 84 334 105 q 402 56 375 63 q 459 56 429 49 q 534 93 503 67 q 585 156 565 119 q 615 239 606 193 q 625 335 625 285 l 625 633 q 621 655 625 643 q 608 678 618 668 q 580 696 598 689 q 533 704 562 704 l 533 729 m 654 801 l 540 801 l 442 935 l 354 801 l 298 801 l 428 1000 l 520 1000 l 654 801 "},"ŕ":{"x_min":40.015625,"x_max":873.546875,"ha":893,"o":"m 873 5 q 785 -19 825 -12 q 711 -26 744 -26 q 633 -8 671 -26 q 560 36 594 8 q 495 99 525 64 q 441 167 465 133 q 399 231 417 201 q 373 279 382 261 q 491 318 439 290 q 535 346 514 330 q 572 386 556 363 q 599 438 589 409 q 609 505 609 467 q 590 590 609 556 q 543 643 571 623 q 482 671 515 663 q 422 678 449 678 q 377 673 395 678 q 348 659 359 668 q 334 638 338 650 q 330 613 330 626 l 330 95 q 333 73 330 85 q 346 50 337 61 q 374 32 356 40 q 422 25 392 25 l 422 0 l 40 0 l 40 25 q 86 30 68 25 q 114 46 104 36 q 128 68 124 56 q 132 95 132 81 l 132 636 q 128 658 132 646 q 114 679 124 670 q 86 696 104 689 q 40 702 68 702 l 40 729 l 422 729 q 566 716 495 729 q 692 676 636 704 q 781 607 747 649 q 815 505 815 564 q 794 421 815 457 q 738 359 773 385 q 659 314 704 332 q 568 284 615 296 q 628 190 594 237 q 696 107 661 144 q 763 48 731 71 q 817 26 795 26 q 837 28 824 26 q 865 35 849 29 l 873 5 m 663 1000 l 449 801 l 376 801 l 510 1000 l 663 1000 "},"©":{"x_min":73.921875,"x_max":556.828125,"ha":632,"o":"m 73 474 q 87 551 73 512 q 131 623 101 591 q 206 677 160 656 q 314 698 251 698 q 425 678 379 698 q 501 627 472 659 q 543 555 530 595 q 556 474 556 515 q 543 396 556 436 q 501 324 530 356 q 425 272 472 293 q 314 252 379 252 q 206 272 251 252 q 131 324 161 293 q 88 396 102 356 q 73 474 73 436 m 96 474 q 109 404 96 440 q 149 340 122 368 q 217 293 176 311 q 314 275 258 275 q 414 293 373 275 q 482 340 455 311 q 520 404 508 368 q 533 474 533 440 q 521 548 533 512 q 482 612 509 583 q 414 658 456 640 q 314 676 373 676 q 216 656 257 676 q 149 608 175 637 q 109 542 122 578 q 96 474 96 507 m 412 550 q 378 587 400 573 q 331 600 355 600 q 292 587 309 600 q 262 555 274 575 q 243 512 250 535 q 237 465 237 488 q 245 420 237 442 q 267 382 252 399 q 300 356 281 366 q 343 345 320 345 q 374 350 361 345 q 396 361 387 354 q 410 374 405 367 q 416 384 415 380 l 425 384 l 422 356 q 386 330 411 341 q 326 320 360 320 q 264 330 293 320 q 212 358 234 340 q 176 402 189 376 q 162 459 163 427 q 174 517 163 491 q 203 561 185 542 q 244 594 221 581 q 293 615 267 607 q 326 618 308 618 q 364 619 345 619 l 426 619 q 422 584 422 596 q 424 568 422 577 q 429 550 425 559 l 412 550 "},"˘":{"x_min":0,"x_max":340.46875,"ha":340,"o":"m 340 1000 q 324 931 337 964 q 288 872 310 898 q 235 831 265 847 q 168 816 204 816 q 101 832 131 816 q 50 873 71 847 q 15 932 28 900 q 0 1000 2 965 l 35 1000 q 63 954 46 974 q 104 923 79 937 q 168 909 129 909 q 237 923 210 909 q 279 954 263 937 q 305 1000 297 974 l 340 1000 "},"Ă":{"x_min":-2.71875,"x_max":1180.78125,"ha":1104,"o":"m 1180 35 q 1068 2 1119 10 q 976 -6 1017 -6 q 920 -3 944 -6 q 879 6 896 0 q 845 19 859 12 q 793 63 815 36 q 753 122 771 90 q 720 186 735 153 q 693 248 706 219 l 676 284 q 548 239 607 265 q 442 189 489 214 q 365 144 396 164 q 320 113 333 123 q 264 64 295 86 q 194 27 233 42 q 108 4 155 12 q 4 -4 61 -4 l -2 25 q 110 67 63 35 q 193 144 158 98 q 252 247 227 189 q 295 368 276 304 q 324 445 306 404 q 367 524 342 486 q 426 596 393 562 q 501 653 459 630 q 478 697 489 674 q 457 743 467 720 q 428 803 442 770 q 395 864 414 836 q 349 911 375 892 q 284 930 323 930 q 231 924 257 930 q 181 909 205 918 l 172 937 q 291 970 231 956 q 412 984 352 984 q 468 981 440 984 q 522 967 496 977 q 565 941 544 959 q 605 896 586 922 q 641 842 624 871 q 672 784 657 813 q 698 728 687 754 q 719 683 710 702 q 838 426 779 555 q 965 173 897 298 q 991 129 977 151 q 1022 90 1005 107 q 1060 63 1039 73 q 1108 54 1081 53 q 1134 56 1117 54 q 1170 66 1150 58 l 1180 35 m 539 575 q 506 516 521 546 q 480 454 492 485 q 457 391 467 422 q 437 331 447 360 q 415 270 427 300 q 388 213 403 241 q 507 276 439 243 q 654 331 576 308 l 539 575 m 708 1221 q 692 1152 705 1185 q 656 1093 678 1119 q 603 1052 633 1068 q 536 1037 572 1037 q 469 1053 499 1037 q 418 1094 439 1068 q 383 1153 396 1121 q 368 1221 370 1186 l 403 1221 q 431 1175 414 1195 q 472 1144 447 1158 q 536 1130 497 1130 q 605 1144 578 1130 q 647 1175 631 1158 q 673 1221 665 1195 l 708 1221 "},"D":{"x_min":61.046875,"x_max":1174,"ha":1238,"o":"m 540 -33 q 355 0 442 -33 q 202 93 267 33 q 99 236 137 153 q 61 417 61 318 q 99 593 61 510 q 210 745 138 676 q 384 866 282 813 q 613 951 486 918 l 562 987 q 493 1064 514 1020 q 472 1155 472 1108 q 481 1222 472 1189 q 509 1284 491 1256 q 550 1335 526 1313 q 602 1369 574 1357 l 619 1344 q 573 1269 573 1311 q 609 1186 573 1230 q 711 1094 644 1142 q 910 939 824 1011 q 1054 794 996 866 q 1142 648 1112 722 q 1174 487 1171 573 q 1148 327 1174 400 q 1079 197 1123 255 q 975 96 1035 139 q 844 24 914 52 q 696 -18 773 -4 q 540 -33 619 -33 m 944 432 q 930 560 944 499 q 882 679 915 621 q 795 795 849 737 q 662 914 741 853 q 560 878 609 902 q 471 820 512 854 q 396 742 430 786 q 339 651 362 699 q 303 550 316 602 q 290 444 290 497 q 301 340 290 391 q 334 242 313 288 q 387 156 356 196 q 457 88 418 117 q 542 44 496 60 q 641 27 589 27 q 759 57 704 27 q 856 140 815 86 q 921 267 897 193 q 944 432 944 341 "},"ł":{"x_min":16.953125,"x_max":572.421875,"ha":541,"o":"m 197 604 l 197 976 q 193 998 197 986 q 179 1020 189 1010 q 151 1036 169 1030 q 105 1043 133 1043 l 105 1069 l 394 1069 l 394 702 l 572 791 l 572 699 l 394 611 l 394 91 q 398 69 394 81 q 412 48 402 58 q 440 31 422 38 q 486 25 457 25 l 486 0 l 105 0 l 105 25 q 149 30 132 25 q 178 44 167 35 q 192 64 188 52 q 197 90 197 76 l 197 512 l 16 422 l 16 514 l 197 604 "},"ÿ":{"x_min":21.03125,"x_max":922.390625,"ha":956,"o":"m 533 729 l 922 729 l 922 704 q 876 698 893 704 q 848 682 858 692 q 834 660 838 672 q 830 633 830 647 l 829 108 q 815 0 829 47 q 775 -86 800 -48 q 716 -153 750 -124 q 640 -202 681 -181 q 554 -238 600 -223 q 462 -262 509 -252 q 424 -268 446 -265 q 378 -272 402 -271 q 329 -275 354 -274 q 282 -276 304 -276 q 193 -275 231 -276 q 124 -273 156 -273 q 133 -223 131 -249 q 136 -179 136 -196 q 132 -134 136 -155 q 122 -91 128 -113 l 144 -90 q 183 -147 159 -122 q 237 -189 208 -172 q 299 -216 267 -206 q 362 -225 332 -225 q 471 -206 423 -225 q 554 -153 520 -187 q 607 -71 588 -120 q 625 35 625 -23 l 625 122 q 592 75 611 98 q 548 33 573 52 q 490 0 522 14 q 417 -21 458 -13 q 316 -24 360 -31 q 237 1 271 -17 q 179 49 203 20 q 141 115 155 79 q 119 191 126 151 q 112 273 112 232 l 112 637 q 108 659 112 647 q 94 680 105 670 q 66 697 84 690 q 21 704 48 704 l 21 729 l 401 729 l 401 704 q 356 698 374 704 q 328 684 339 693 q 314 663 318 675 q 309 638 309 651 l 309 231 q 322 142 309 179 q 354 84 334 105 q 402 56 375 63 q 459 56 429 49 q 534 93 503 67 q 585 156 565 119 q 615 239 606 193 q 625 335 625 285 l 625 633 q 621 655 625 643 q 608 678 618 668 q 580 696 598 689 q 533 704 562 704 l 533 729 m 431 894 q 426 864 431 878 q 410 839 420 849 q 386 822 400 828 q 356 816 372 816 q 325 822 339 816 q 300 839 311 828 q 284 864 290 849 q 278 894 278 878 q 284 924 278 910 q 300 949 290 938 q 325 966 311 959 q 356 972 339 972 q 386 966 372 972 q 410 949 400 959 q 426 924 420 938 q 431 894 431 910 m 665 894 q 659 864 665 878 q 643 839 653 849 q 619 822 633 828 q 589 816 605 816 q 558 822 573 816 q 534 839 544 828 q 517 864 523 849 q 511 894 511 878 q 517 924 511 910 q 534 949 523 938 q 558 966 544 959 q 589 972 573 972 q 619 966 605 972 q 643 949 633 959 q 659 924 653 938 q 665 894 665 910 "},"ĺ":{"x_min":33.234375,"x_max":463.5625,"ha":447,"o":"m 33 25 q 77 30 59 25 q 105 44 94 35 q 120 64 115 52 q 124 90 124 76 l 124 976 q 121 998 124 986 q 107 1020 117 1010 q 79 1036 96 1030 q 33 1043 61 1043 l 33 1069 l 322 1069 l 322 91 q 325 69 322 81 q 339 48 329 58 q 367 31 349 38 q 413 25 385 25 l 413 0 l 33 0 l 33 25 m 463 1335 l 249 1136 l 176 1136 l 310 1335 l 463 1335 "},"Ł":{"x_min":6.78125,"x_max":881.6875,"ha":850,"o":"m 54 1248 l 388 1248 l 388 704 l 562 791 l 562 699 l 388 612 l 388 52 l 881 52 q 838 -5 855 27 q 809 -69 820 -38 q 790 -141 797 -105 l 758 -148 q 762 -124 761 -136 q 763 -101 763 -111 q 735 -35 763 -56 q 655 -5 707 -13 q 527 1 602 2 q 358 0 452 0 l 54 0 l 54 25 q 113 32 90 25 q 149 51 136 39 q 168 80 163 64 q 173 115 173 96 l 173 505 l 6 422 l 6 514 l 173 597 l 173 1134 q 168 1163 173 1148 q 150 1192 163 1179 q 113 1214 137 1205 q 54 1223 90 1223 l 54 1248 "},"$":{"x_min":65.109375,"x_max":531.734375,"ha":590,"o":"m 316 751 q 331 752 324 752 q 345 752 338 752 q 423 748 389 752 q 479 744 456 744 q 473 712 474 727 q 472 685 472 697 q 474 656 472 670 q 482 626 476 642 l 465 626 q 448 661 456 644 q 426 689 441 677 q 386 708 412 701 q 316 716 361 715 l 316 539 l 319 539 q 358 535 336 537 q 404 526 381 532 q 451 511 427 520 q 492 486 474 501 q 520 449 510 471 q 531 398 531 427 q 513 324 531 354 q 465 274 495 294 q 397 244 436 255 q 316 229 358 233 l 316 0 l 273 0 l 273 226 q 239 225 255 225 q 206 225 222 225 q 152 227 172 225 q 118 231 131 229 q 95 236 104 234 q 78 238 87 238 q 83 267 82 254 q 84 293 84 281 q 81 322 84 308 q 75 351 78 336 l 91 352 q 121 313 101 330 q 166 283 141 295 q 218 265 191 271 q 270 259 246 259 l 273 259 l 273 448 l 270 448 q 205 457 240 451 q 138 477 169 463 q 86 517 107 491 q 65 587 65 543 q 84 656 65 628 q 132 703 103 685 q 199 733 162 722 q 273 748 236 744 l 273 973 l 316 973 l 316 751 m 396 364 q 390 395 396 382 q 373 417 384 408 q 348 432 362 426 q 316 441 333 438 l 316 265 q 375 301 354 276 q 396 364 396 327 m 202 629 q 208 594 202 609 q 225 570 215 579 q 247 554 235 560 q 273 545 260 548 l 273 712 q 247 701 259 708 q 224 684 234 694 q 208 660 215 674 q 202 629 202 646 "},"w":{"x_min":21.03125,"x_max":1309.640625,"ha":1350,"o":"m 921 729 l 1309 729 l 1309 704 q 1264 698 1282 704 q 1236 684 1247 693 q 1222 663 1226 675 q 1218 638 1218 651 l 1218 91 q 1221 69 1218 81 q 1235 48 1225 58 q 1263 31 1245 38 q 1309 25 1281 25 l 1309 0 l 1012 0 l 1012 75 q 976 37 996 54 q 932 6 956 19 q 880 -13 908 -6 q 817 -21 851 -21 q 743 -10 777 -21 q 680 20 708 0 q 631 66 653 39 q 594 126 609 93 q 558 70 579 96 q 510 23 537 44 q 446 -8 482 3 q 368 -21 411 -21 q 258 3 305 -21 q 178 70 210 27 q 129 168 145 112 q 112 287 112 224 l 112 637 q 108 659 112 647 q 94 680 105 670 q 66 697 84 690 q 21 704 48 704 l 21 729 l 408 729 l 408 704 q 363 698 381 704 q 335 684 345 693 q 320 663 324 675 q 316 638 316 651 l 316 245 q 324 157 316 193 q 347 99 333 121 q 380 66 361 76 q 421 56 399 56 q 474 72 448 56 q 519 122 500 88 q 550 208 539 155 q 562 335 562 261 l 562 637 q 558 659 562 647 q 544 680 554 670 q 516 697 534 690 q 470 704 499 704 l 470 729 l 858 729 l 858 704 q 812 698 830 704 q 784 682 794 692 q 770 660 773 672 q 766 633 766 647 l 766 245 q 774 157 766 193 q 796 99 782 121 q 830 66 811 76 q 870 56 849 56 q 922 71 897 56 q 967 115 948 85 q 999 193 987 146 q 1011 307 1011 240 l 1011 645 q 1006 666 1011 655 q 990 684 1001 676 q 963 698 980 693 q 921 704 946 704 l 921 729 "},"\\":{"x_min":41.375,"x_max":636.171875,"ha":676,"o":"m 215 972 l 636 0 l 462 0 l 41 972 l 215 972 "},"Ì":{"x_min":33,"x_max":508.671875,"ha":562,"o":"m 508 0 l 54 0 l 54 25 q 114 32 90 25 q 150 53 137 40 q 168 83 164 66 q 173 119 173 100 l 173 858 q 168 887 173 872 q 150 916 163 903 q 113 938 137 929 q 54 947 90 947 l 54 972 l 508 972 l 508 947 q 447 939 471 947 q 411 918 424 931 q 393 888 398 905 q 388 852 388 871 l 388 119 q 393 89 388 105 q 409 59 397 73 q 446 34 422 44 q 508 25 470 25 l 508 0 m 185 1240 l 320 1041 l 246 1041 l 33 1240 l 185 1240 "},"Ç":{"x_min":65.109375,"x_max":959.6875,"ha":1021,"o":"m 657 -168 q 644 -228 657 -203 q 611 -268 632 -252 q 560 -290 590 -283 q 498 -297 531 -297 q 447 -286 471 -297 q 406 -258 423 -276 q 378 -216 388 -240 q 368 -165 368 -192 l 402 -165 q 412 -205 402 -187 q 434 -235 421 -223 q 460 -253 446 -246 q 482 -259 474 -259 q 520 -250 505 -259 q 544 -227 535 -241 q 558 -198 554 -214 q 562 -168 562 -182 q 551 -121 562 -138 q 526 -96 541 -105 q 495 -86 511 -88 q 469 -84 479 -84 l 499 -22 q 329 31 408 -6 q 192 128 250 70 q 99 264 133 187 q 65 433 65 341 q 103 631 67 543 q 200 784 139 718 q 341 892 261 849 q 514 956 422 935 q 624 971 562 968 q 750 975 687 975 q 865 973 811 975 q 955 972 918 972 q 945 915 948 940 q 942 869 942 891 q 946 812 942 838 q 959 756 951 786 l 929 755 q 877 831 909 798 q 807 887 846 864 q 725 922 768 910 q 638 934 681 934 q 541 914 587 934 q 458 858 496 893 q 390 776 420 823 q 339 675 360 729 q 307 565 318 622 q 297 454 297 508 q 309 346 297 399 q 346 245 322 293 q 404 158 370 198 q 482 88 439 118 q 575 42 524 59 q 683 26 626 26 q 774 36 735 26 q 842 61 813 46 q 891 93 871 75 q 923 128 910 111 q 942 157 935 144 q 952 173 949 169 l 942 78 q 893 34 924 54 q 821 -1 862 14 q 729 -24 779 -16 q 622 -33 678 -33 q 580 -31 601 -33 q 540 -27 560 -29 l 527 -55 q 572 -63 549 -55 q 614 -84 595 -70 q 644 -120 632 -99 q 657 -168 657 -141 "},"Ŝ":{"x_min":70.53125,"x_max":923.734375,"ha":978,"o":"m 336 -18 q 233 -15 273 -18 q 168 -9 194 -12 q 126 -2 143 -5 q 92 0 109 0 q 103 55 100 30 q 107 103 107 81 q 101 159 107 133 q 88 215 96 185 l 119 216 q 176 138 138 173 q 261 76 214 102 q 358 35 307 50 q 455 21 409 21 q 556 40 510 21 q 636 90 602 59 q 688 162 669 122 q 706 245 706 202 q 685 321 706 292 q 628 368 663 351 q 546 395 592 386 q 453 409 501 404 q 374 419 417 413 q 289 435 332 424 q 207 464 246 446 q 137 510 168 482 q 88 577 107 537 q 70 673 70 617 q 96 788 70 739 q 164 871 122 836 q 261 929 206 906 q 374 965 316 952 q 490 983 432 978 q 594 988 547 988 q 672 986 636 988 q 739 980 708 983 q 796 974 770 977 q 844 972 822 972 q 833 915 836 940 q 830 868 830 891 q 835 812 830 838 q 848 756 840 786 l 817 755 q 797 805 807 780 q 774 850 788 829 q 742 890 761 872 q 692 921 722 908 q 618 941 662 934 q 512 948 575 948 q 431 933 470 948 q 360 892 391 918 q 310 830 329 866 q 291 751 291 794 q 305 687 291 714 q 341 642 319 661 q 392 613 364 624 q 448 595 420 601 q 502 585 476 588 q 544 581 527 583 q 617 573 576 579 q 699 557 657 568 q 782 527 741 545 q 854 480 822 509 q 904 409 885 451 q 923 312 923 368 q 898 185 923 238 q 829 95 872 132 q 728 36 786 58 q 604 2 670 14 q 470 -14 539 -10 q 336 -18 401 -18 m 666 1061 l 552 1061 l 454 1195 l 366 1061 l 310 1061 l 440 1260 l 532 1260 l 666 1061 "},"C":{"x_min":66.46875,"x_max":961.046875,"ha":1022,"o":"m 961 756 l 930 755 q 879 831 910 798 q 808 887 847 864 q 726 922 769 910 q 640 934 682 934 q 543 914 588 934 q 459 858 497 893 q 391 776 421 823 q 340 675 361 729 q 309 565 320 622 q 298 454 298 508 q 311 346 298 399 q 347 245 324 293 q 406 158 371 198 q 483 88 440 118 q 577 42 526 59 q 685 26 628 26 q 775 36 736 26 q 844 61 815 46 q 892 93 872 75 q 925 128 912 111 q 944 157 937 144 q 954 173 950 169 l 943 78 q 894 34 925 54 q 822 -1 864 14 q 730 -24 781 -16 q 623 -33 680 -33 q 479 -18 549 -33 q 347 24 408 -3 q 234 93 285 52 q 146 185 183 134 q 88 299 109 237 q 66 433 67 362 q 104 631 68 543 q 201 784 141 718 q 343 892 262 849 q 515 956 423 935 q 626 971 563 968 q 751 975 688 975 q 866 973 812 975 q 956 972 920 972 q 946 915 949 940 q 943 869 943 891 q 948 812 943 838 q 961 756 952 786 "},"Ē":{"x_min":66.46875,"x_max":961.046875,"ha":1023,"o":"m 930 755 q 879 831 910 798 q 808 887 847 864 q 726 922 769 910 q 640 934 682 934 q 552 917 593 934 q 475 872 510 901 q 410 804 439 843 q 359 718 381 764 q 322 622 337 672 q 302 522 308 572 l 880 522 q 858 462 866 493 q 847 403 851 430 q 843 341 843 371 l 820 337 q 798 409 811 381 q 760 454 786 438 q 691 477 734 470 q 579 483 648 483 l 298 483 l 298 454 q 311 346 298 399 q 347 245 324 293 q 406 158 371 198 q 483 88 440 118 q 577 42 526 59 q 685 26 628 26 q 775 36 736 26 q 844 61 815 46 q 892 93 872 75 q 925 128 912 111 q 944 157 937 144 q 954 173 950 169 l 943 78 q 897 36 927 56 q 827 0 868 16 q 735 -25 786 -15 q 625 -34 684 -34 q 411 -1 512 -34 q 234 92 310 31 q 112 240 158 153 q 66 433 67 326 q 104 631 68 543 q 201 784 141 718 q 343 892 262 849 q 515 956 423 935 q 626 971 563 968 q 751 975 688 975 q 866 973 812 975 q 956 972 920 972 q 946 915 949 940 q 943 869 943 891 q 948 812 943 838 q 961 756 952 786 l 930 755 m 793 1047 l 424 1047 l 424 1111 l 793 1111 l 793 1047 "},"!":{"x_min":96.984375,"x_max":308.59375,"ha":397,"o":"m 250 307 q 235 293 249 301 q 204 275 221 284 q 171 257 187 266 q 151 242 155 248 l 104 972 l 290 972 l 250 307 m 96 84 q 105 125 96 106 q 128 159 113 145 q 161 182 142 173 q 202 190 181 190 q 243 182 224 190 q 277 159 263 173 q 300 125 291 145 q 308 84 308 106 q 300 43 308 63 q 277 10 291 24 q 243 -12 263 -4 q 202 -21 224 -21 q 161 -12 181 -21 q 128 10 142 -4 q 105 43 113 24 q 96 84 96 63 "},"ç":{"x_min":58.328125,"x_max":769.78125,"ha":821,"o":"m 558 -181 q 545 -242 558 -217 q 512 -282 533 -266 q 462 -304 491 -297 q 400 -311 433 -311 q 349 -300 373 -311 q 307 -272 325 -290 q 279 -230 289 -254 q 269 -179 269 -206 l 304 -179 q 313 -219 304 -201 q 335 -248 322 -236 q 361 -266 347 -260 q 383 -273 375 -273 q 421 -264 406 -273 q 446 -241 436 -255 q 459 -211 455 -227 q 463 -181 463 -196 q 453 -135 463 -152 q 427 -110 442 -118 q 397 -100 413 -102 q 370 -98 381 -98 l 411 -19 q 265 15 330 -10 q 154 84 200 41 q 83 187 108 127 q 58 324 58 247 q 80 465 60 404 q 137 572 101 526 q 222 648 172 617 q 333 697 272 678 q 463 724 393 716 q 609 731 533 731 q 697 730 659 731 q 766 729 735 729 q 757 678 760 705 q 755 634 755 652 q 759 590 755 611 q 769 547 763 569 l 747 545 q 707 602 731 577 q 653 645 682 628 q 591 671 623 662 q 529 680 559 680 q 419 650 468 680 q 336 571 370 619 q 282 462 301 522 q 263 343 263 402 q 284 223 263 280 q 344 122 305 166 q 438 52 383 78 q 563 26 494 26 q 658 42 620 26 q 718 78 695 58 q 751 115 741 98 q 765 137 762 133 l 755 58 q 719 25 743 40 q 664 -2 696 9 q 594 -20 633 -13 q 511 -26 555 -26 q 478 -25 494 -26 q 448 -23 463 -25 l 429 -69 q 474 -76 451 -69 q 515 -98 497 -84 q 546 -133 534 -112 q 558 -181 558 -154 "},"Ĵ":{"x_min":-38.65625,"x_max":499.84375,"ha":539,"o":"m 46 972 l 499 972 l 499 947 q 440 940 463 947 q 404 919 417 932 q 385 890 390 906 q 380 855 380 874 l 380 388 q 362 167 380 266 q 316 -9 345 69 q 251 -147 288 -87 q 177 -250 215 -207 q -26 -402 87 -353 l -38 -380 q 63 -240 18 -326 q 100 -156 82 -203 q 133 -51 118 -109 q 156 75 147 6 q 165 226 165 145 l 165 858 q 160 887 165 872 q 142 916 155 903 q 105 938 128 929 q 46 947 82 947 l 46 972 m 446 1041 l 332 1041 l 234 1175 l 146 1041 l 90 1041 l 220 1240 l 312 1240 l 446 1041 "},"È":{"x_min":66.46875,"x_max":961.046875,"ha":1023,"o":"m 930 755 q 879 831 910 798 q 808 887 847 864 q 726 922 769 910 q 640 934 682 934 q 552 917 593 934 q 475 872 510 901 q 410 804 439 843 q 359 718 381 764 q 322 622 337 672 q 302 522 308 572 l 880 522 q 858 462 866 493 q 847 403 851 430 q 843 341 843 371 l 820 337 q 798 409 811 381 q 760 454 786 438 q 691 477 734 470 q 579 483 648 483 l 298 483 l 298 454 q 311 346 298 399 q 347 245 324 293 q 406 158 371 198 q 483 88 440 118 q 577 42 526 59 q 685 26 628 26 q 775 36 736 26 q 844 61 815 46 q 892 93 872 75 q 925 128 912 111 q 944 157 937 144 q 954 173 950 169 l 943 78 q 897 36 927 56 q 827 0 868 16 q 735 -25 786 -15 q 625 -34 684 -34 q 411 -1 512 -34 q 234 92 310 31 q 112 240 158 153 q 66 433 67 326 q 104 631 68 543 q 201 784 141 718 q 343 892 262 849 q 515 956 423 935 q 626 971 563 968 q 751 975 688 975 q 866 973 812 975 q 956 972 920 972 q 946 915 949 940 q 943 869 943 891 q 948 812 943 838 q 961 756 952 786 l 930 755 m 522 1240 l 657 1041 l 583 1041 l 370 1240 l 522 1240 "},"ﬁ":{"x_min":33.234375,"x_max":1150.265625,"ha":1190,"o":"m 1150 0 l 769 0 l 769 25 q 815 30 797 25 q 843 46 833 36 q 857 68 853 56 q 861 95 861 81 l 861 616 q 858 638 861 626 q 848 660 855 650 q 826 678 840 671 q 790 686 812 686 l 323 686 l 323 328 l 640 328 q 622 281 628 307 q 614 232 617 255 q 611 179 611 205 l 592 176 q 571 238 584 216 q 528 271 557 261 q 451 284 499 282 q 323 286 402 286 l 323 -183 q 327 -204 323 -193 q 340 -226 330 -216 q 368 -243 350 -236 q 413 -250 385 -250 l 413 -275 l 33 -275 l 33 -250 q 79 -244 61 -250 q 107 -228 97 -238 q 122 -206 118 -219 q 126 -179 126 -193 l 126 629 q 122 651 126 639 q 108 673 118 663 q 80 689 98 682 q 34 695 63 695 l 34 729 l 1150 729 l 1150 702 q 1105 697 1123 702 q 1077 682 1087 691 q 1062 662 1066 674 q 1058 637 1058 650 l 1058 95 q 1061 73 1058 85 q 1074 50 1064 61 q 1102 32 1084 40 q 1150 25 1120 25 l 1150 0 m 855 909 q 864 950 855 931 q 886 984 872 969 q 920 1006 900 998 q 961 1015 939 1015 q 1002 1006 982 1015 q 1035 984 1021 998 q 1058 950 1049 969 q 1066 909 1066 931 q 1058 868 1066 887 q 1035 834 1049 849 q 1002 812 1021 820 q 961 804 982 804 q 920 812 939 804 q 886 834 900 820 q 864 868 872 849 q 855 909 855 887 "},"X":{"x_min":-6.78125,"x_max":1049.890625,"ha":1060,"o":"m 34 25 q 106 34 73 25 q 165 57 139 43 q 210 88 191 71 q 240 119 229 105 l 450 411 q 407 493 430 450 q 364 580 385 537 q 322 665 342 623 q 284 743 301 707 q 252 805 269 772 q 212 867 234 838 q 164 913 191 895 q 105 931 138 931 q 52 925 78 931 q 2 909 26 918 l -6 937 q 53 957 22 947 q 118 975 85 967 q 183 989 150 984 q 247 994 216 994 q 305 988 278 994 q 356 967 333 982 q 407 921 381 953 q 458 850 433 889 q 508 766 484 810 q 554 683 532 722 q 573 646 563 664 q 592 611 583 628 l 766 852 q 777 867 771 858 q 789 886 784 876 q 798 903 794 895 q 801 918 801 912 q 786 939 801 931 q 733 947 771 947 l 733 972 l 1048 972 l 1048 947 q 976 937 1009 947 q 917 914 944 928 q 872 883 891 900 q 843 852 853 866 l 625 548 q 670 459 647 504 q 718 368 693 415 q 772 273 744 322 q 834 173 800 225 q 867 128 849 149 q 903 90 885 107 q 941 64 922 73 q 978 54 960 54 q 1004 56 987 54 q 1040 66 1020 58 l 1049 35 q 938 2 988 10 q 851 -6 889 -6 q 798 -3 820 -6 q 760 6 776 0 q 730 19 743 12 q 673 64 700 36 q 620 123 645 91 q 574 188 595 155 q 536 248 552 221 q 513 287 527 261 q 482 348 499 314 l 307 107 q 289 78 296 92 q 282 54 282 64 q 297 32 282 40 q 349 25 311 25 l 349 0 l 34 0 l 34 25 "},"ô":{"x_min":54.265625,"x_max":895.9375,"ha":952,"o":"m 54 364 q 65 452 54 406 q 98 540 75 497 q 154 622 120 583 q 235 689 189 660 q 341 735 282 718 q 473 752 400 752 q 610 737 549 752 q 717 694 670 721 q 798 629 764 666 q 853 548 832 592 q 885 458 875 505 q 895 364 895 411 q 885 273 895 319 q 853 185 875 227 q 797 104 831 142 q 717 39 764 67 q 609 -4 670 11 q 473 -21 548 -21 q 341 -5 400 -21 q 236 38 282 10 q 155 104 189 66 q 98 184 121 141 q 65 273 75 227 q 54 364 54 319 m 261 366 q 270 241 261 302 q 302 132 279 180 q 366 55 326 85 q 469 25 406 26 q 543 39 510 25 q 600 77 575 52 q 641 134 624 101 q 669 204 658 166 q 685 281 680 241 q 691 360 690 321 q 687 442 691 400 q 674 521 683 483 q 648 593 664 560 q 609 652 632 627 q 553 691 585 676 q 478 705 520 705 q 374 677 415 705 q 307 602 333 649 q 272 494 282 555 q 261 366 261 432 m 652 801 l 538 801 l 440 935 l 352 801 l 296 801 l 426 1000 l 518 1000 l 652 801 "},"Ė":{"x_min":66.46875,"x_max":961.046875,"ha":1023,"o":"m 930 755 q 879 831 910 798 q 808 887 847 864 q 726 922 769 910 q 640 934 682 934 q 552 917 593 934 q 475 872 510 901 q 410 804 439 843 q 359 718 381 764 q 322 622 337 672 q 302 522 308 572 l 880 522 q 858 462 866 493 q 847 403 851 430 q 843 341 843 371 l 820 337 q 798 409 811 381 q 760 454 786 438 q 691 477 734 470 q 579 483 648 483 l 298 483 l 298 454 q 311 346 298 399 q 347 245 324 293 q 406 158 371 198 q 483 88 440 118 q 577 42 526 59 q 685 26 628 26 q 775 36 736 26 q 844 61 815 46 q 892 93 872 75 q 925 128 912 111 q 944 157 937 144 q 954 173 950 169 l 943 78 q 897 36 927 56 q 827 0 868 16 q 735 -25 786 -15 q 625 -34 684 -34 q 411 -1 512 -34 q 234 92 310 31 q 112 240 158 153 q 66 433 67 326 q 104 631 68 543 q 201 784 141 718 q 343 892 262 849 q 515 956 423 935 q 626 971 563 968 q 751 975 688 975 q 866 973 812 975 q 956 972 920 972 q 946 915 949 940 q 943 869 943 891 q 948 812 943 838 q 961 756 952 786 l 930 755 m 706 1119 q 701 1089 706 1103 q 685 1064 695 1074 q 661 1047 675 1053 q 631 1041 647 1041 q 600 1047 614 1041 q 575 1064 586 1053 q 559 1089 565 1074 q 553 1119 553 1103 q 559 1149 553 1135 q 575 1174 565 1163 q 600 1191 586 1184 q 631 1197 614 1197 q 661 1191 647 1197 q 685 1174 675 1184 q 701 1149 695 1163 q 706 1119 706 1135 "},"Ā":{"x_min":-2.71875,"x_max":1180.78125,"ha":1104,"o":"m 1180 35 q 1068 2 1119 10 q 976 -6 1017 -6 q 920 -3 944 -6 q 879 6 896 0 q 845 19 859 12 q 793 63 815 36 q 753 122 771 90 q 720 186 735 153 q 693 248 706 219 l 676 284 q 548 239 607 265 q 442 189 489 214 q 365 144 396 164 q 320 113 333 123 q 264 64 295 86 q 194 27 233 42 q 108 4 155 12 q 4 -4 61 -4 l -2 25 q 110 67 63 35 q 193 144 158 98 q 252 247 227 189 q 295 368 276 304 q 324 445 306 404 q 367 524 342 486 q 426 596 393 562 q 501 653 459 630 q 478 697 489 674 q 457 743 467 720 q 428 803 442 770 q 395 864 414 836 q 349 911 375 892 q 284 930 323 930 q 231 924 257 930 q 181 909 205 918 l 172 937 q 291 970 231 956 q 412 984 352 984 q 468 981 440 984 q 522 967 496 977 q 565 941 544 959 q 605 896 586 922 q 641 842 624 871 q 672 784 657 813 q 698 728 687 754 q 719 683 710 702 q 838 426 779 555 q 965 173 897 298 q 991 129 977 151 q 1022 90 1005 107 q 1060 63 1039 73 q 1108 54 1081 53 q 1134 56 1117 54 q 1170 66 1150 58 l 1180 35 m 539 575 q 506 516 521 546 q 480 454 492 485 q 457 391 467 422 q 437 331 447 360 q 415 270 427 300 q 388 213 403 241 q 507 276 439 243 q 654 331 576 308 l 539 575 m 694 1055 l 325 1055 l 325 1119 l 694 1119 l 694 1055 "}}}
